<svg width="28" height="18" viewBox="0 0 28 18" fill="none" xmlns="http://www.w3.org/2000/svg">
<path d="M2 2.25C2 1.00736 3.00433 0 4.24324 0C5.48215 0 6.48649 1.00736 6.48649 2.25C6.48649 3.49264 5.48215 4.5 4.24324 4.5C3.00433 4.5 2 3.49264 2 2.25Z" fill="#FFCF00"/>
<path d="M2 9C2 7.75736 3.00433 6.75 4.24324 6.75C5.48215 6.75 6.48649 7.75736 6.48649 9C6.48649 10.2426 5.48215 11.25 4.24324 11.25C3.00433 11.25 2 10.2426 2 9Z" fill="#D95644"/>
<path d="M2 15.75C2 14.5074 3.00433 13.5 4.24324 13.5C5.48215 13.5 6.48649 14.5074 6.48649 15.75C6.48649 16.9926 5.48215 18 4.24324 18C3.00433 18 2 16.9926 2 15.75Z" fill="#3CB679"/>
<path d="M8.72998 9C8.72998 7.75736 9.78872 6.75 11.0947 6.75H18.7031C20.0091 6.75 21.0678 7.75736 21.0678 9C21.0678 10.2426 20.0091 11.25 18.7031 11.25H11.0947C9.78872 11.25 8.72998 10.2426 8.72998 9Z" fill="#41BEFF"/>
<path d="M8.72998 15.75C8.72998 14.5074 9.74059 13.5 10.9872 13.5H24.4187C25.6653 13.5 26.6759 14.5074 26.6759 15.75C26.6759 16.9926 25.6653 18 24.4187 18H10.9872C9.74059 18 8.72998 16.9926 8.72998 15.75Z" fill="#4551BE"/>
<path d="M8.72998 2.25C8.72998 1.00736 9.81278 0 11.1485 0H25.3791C26.7148 0 27.7975 1.00736 27.7975 2.25C27.7975 3.49264 26.7148 4.5 25.3791 4.5H11.1485C9.81278 4.5 8.72998 3.49264 8.72998 2.25Z" fill="#EB5D96"/>
</svg>
