<svg width="186" height="49" viewBox="0 0 186 49" fill="none" xmlns="http://www.w3.org/2000/svg">
<path d="M71.1949 17.0025C71.9267 9.87699 76.9032 4.58574 83.4898 4.58574C91.0277 4.58574 94.9796 10.3708 95.5651 17.0025H71.1949ZM98.6388 32.5941C99.2243 32.1002 99.517 31.4653 99.517 30.8303C99.517 29.5604 98.4192 28.5022 97.0288 28.5022C96.3701 28.5022 95.8578 28.7844 95.4187 29.1371C92.6377 31.6064 89.1981 33.3701 84.5143 33.3701C77.7814 33.3701 71.9999 28.9255 71.1949 21.0239H98.5656C99.9561 21.0239 101.2 19.9656 101.2 18.4841C101.2 8.81874 94.8332 0 83.6361 0C73.1709 0 65.4866 8.46599 65.4866 18.9779V19.119C65.4866 30.407 73.9759 38.097 84.368 38.097C90.8081 38.097 95.0528 35.9099 98.6388 32.5941Z" fill="white"/>
<path d="M127.018 35.4866L141.289 4.44464C141.435 4.0919 141.582 3.59804 141.582 3.10419C141.582 1.62265 140.338 0.4233 138.801 0.4233C137.337 0.4233 136.532 1.34045 136.166 2.3987L123.725 31.042L111.503 2.5398C111.064 1.34045 110.259 0.4233 108.649 0.4233C107.039 0.4233 105.795 1.6932 105.795 3.10419C105.795 3.59804 106.014 4.09189 106.161 4.58574L120.358 35.4866C121.017 36.8976 122.042 37.8148 123.579 37.8148H123.871C125.408 37.8148 126.36 36.8976 127.018 35.4866Z" fill="white"/>
<path d="M155.804 48.75C161.512 48.75 165.172 45.9986 168.465 38.4497L183.248 4.44464C183.394 4.02135 183.541 3.5275 183.541 3.10419C183.541 1.62265 182.297 0.4233 180.76 0.4233C179.296 0.4233 178.491 1.34045 178.052 2.46925L166.342 31.1831L153.169 2.5398C152.657 1.34045 151.852 0.4233 150.315 0.4233C148.705 0.4233 147.461 1.62265 147.461 3.10419C147.461 3.59804 147.607 4.09189 147.827 4.58574L163.635 36.8976L163.342 37.462C161.293 41.9067 159.244 43.9526 155.731 43.9526C153.828 43.9526 152.73 43.6704 151.633 43.3177C151.193 43.1766 150.754 43.0355 150.242 43.0355C148.998 43.0355 147.827 44.0232 147.827 45.3636C147.827 46.6335 148.705 47.339 149.583 47.6918C151.486 48.3267 153.316 48.75 155.804 48.75Z" fill="white"/>
<path d="M4 4.875C4 2.18261 6.20227 0 8.91892 0C11.6356 0 13.8378 2.18261 13.8378 4.875C13.8378 7.56739 11.6356 9.75 8.91892 9.75C6.20227 9.75 4 7.56739 4 4.875Z" fill="#FFCF00"/>
<path d="M4 19.5C4 16.8076 6.20227 14.625 8.91892 14.625C11.6356 14.625 13.8378 16.8076 13.8378 19.5C13.8378 22.1924 11.6356 24.375 8.91892 24.375C6.20227 24.375 4 22.1924 4 19.5Z" fill="#D95644"/>
<path d="M4 34.125C4 31.4326 6.20227 29.25 8.91892 29.25C11.6356 29.25 13.8378 31.4326 13.8378 34.125C13.8378 36.8174 11.6356 39 8.91892 39C6.20227 39 4 36.8174 4 34.125Z" fill="#3CB679"/>
<path d="M18.7568 19.5C18.7568 16.8076 21.0784 14.625 23.9422 14.625H40.6255C43.4893 14.625 45.8109 16.8076 45.8109 19.5C45.8109 22.1924 43.4893 24.375 40.6255 24.375H23.9422C21.0784 24.375 18.7568 22.1924 18.7568 19.5Z" fill="#41BEFF"/>
<path d="M18.7568 34.125C18.7568 31.4326 20.9729 29.25 23.7065 29.25H53.1585C55.8922 29.25 58.1082 31.4326 58.1082 34.125C58.1082 36.8174 55.8922 39 53.1585 39H23.7065C20.9729 39 18.7568 36.8174 18.7568 34.125Z" fill="#4551BE"/>
<path d="M18.7568 4.875C18.7568 2.18261 21.1312 0 24.06 0H55.2644C58.1933 0 60.5676 2.18261 60.5676 4.875C60.5676 7.56739 58.1933 9.75 55.2644 9.75H24.06C21.1312 9.75 18.7568 7.56739 18.7568 4.875Z" fill="#EB5D96"/>
</svg>
