<svg
  stroke="black"
  stroke-linecap="round"
  font-size="60"
  viewBox="0 0 1000 1000"
  xmlns="http://www.w3.org/2000/svg"
>
  <g>
    <rect fill="white" stroke="white" x="0" y="0" width="100%" height="100%"></rect>
    <line x1="0" y1="1000" x2="1000" y2="950"></line>
    <line x1="50" y1="1000" x2="1000" y2="900"></line>
    <line x1="100" y1="1000" x2="1000" y2="850"></line>
    <line x1="150" y1="1000" x2="1000" y2="800"></line>
    <line x1="200" y1="1000" x2="1000" y2="750"></line>
    <line x1="250" y1="1000" x2="1000" y2="700"></line>
    <line x1="300" y1="1000" x2="1000" y2="650"></line>
    <line x1="350" y1="1000" x2="1000" y2="600"></line>
    <line x1="400" y1="1000" x2="1000" y2="550"></line>
    <line x1="450" y1="1000" x2="1000" y2="500"></line>
    <line x1="500" y1="1000" x2="1000" y2="450"></line>
    <line x1="550" y1="1000" x2="1000" y2="400"></line>
    <line x1="600" y1="1000" x2="1000" y2="350"></line>
    <line x1="650" y1="1000" x2="1000" y2="300"></line>
    <line x1="700" y1="1000" x2="1000" y2="250"></line>
    <line x1="750" y1="1000" x2="1000" y2="200"></line>
    <line x1="800" y1="1000" x2="1000" y2="150"></line>
    <line x1="850" y1="1000" x2="1000" y2="100"></line>
    <line x1="900" y1="1000" x2="1000" y2="50"></line>
    <line x1="950" y1="1000" x2="1000" y2="0"></line>
  </g>
</svg>
