<svg
  stroke="black"
  stroke-linecap="round"
  font-size="60"
  viewBox="0 0 1000 1000"
  xmlns="http://www.w3.org/2000/svg"
>
  <g>
    <rect fill="white" stroke="white" x="0" y="0" width="100%" height="100%"></rect>
    <line x1="0" y1="1000" x2="1000" y2="980"></line>
    <line x1="20" y1="1000" x2="1000" y2="960"></line>
    <line x1="40" y1="1000" x2="1000" y2="940"></line>
    <line x1="60" y1="1000" x2="1000" y2="920"></line>
    <line x1="80" y1="1000" x2="1000" y2="900"></line>
    <line x1="100" y1="1000" x2="1000" y2="880"></line>
    <line x1="120" y1="1000" x2="1000" y2="860"></line>
    <line x1="140" y1="1000" x2="1000" y2="840"></line>
    <line x1="160" y1="1000" x2="1000" y2="820"></line>
    <line x1="180" y1="1000" x2="1000" y2="800"></line>
    <line x1="200" y1="1000" x2="1000" y2="780"></line>
    <line x1="220" y1="1000" x2="1000" y2="760"></line>
    <line x1="240" y1="1000" x2="1000" y2="740"></line>
    <line x1="260" y1="1000" x2="1000" y2="720"></line>
    <line x1="280" y1="1000" x2="1000" y2="700"></line>
    <line x1="300" y1="1000" x2="1000" y2="680"></line>
    <line x1="320" y1="1000" x2="1000" y2="660"></line>
    <line x1="340" y1="1000" x2="1000" y2="640"></line>
    <line x1="360" y1="1000" x2="1000" y2="620"></line>
    <line x1="380" y1="1000" x2="1000" y2="600"></line>
    <line x1="400" y1="1000" x2="1000" y2="580"></line>
    <line x1="420" y1="1000" x2="1000" y2="560"></line>
    <line x1="440" y1="1000" x2="1000" y2="540"></line>
    <line x1="460" y1="1000" x2="1000" y2="520"></line>
    <line x1="480" y1="1000" x2="1000" y2="500"></line>
    <line x1="500" y1="1000" x2="1000" y2="480"></line>
    <line x1="520" y1="1000" x2="1000" y2="460"></line>
    <line x1="540" y1="1000" x2="1000" y2="440"></line>
    <line x1="560" y1="1000" x2="1000" y2="420"></line>
    <line x1="580" y1="1000" x2="1000" y2="400"></line>
    <line x1="600" y1="1000" x2="1000" y2="380"></line>
    <line x1="620" y1="1000" x2="1000" y2="360"></line>
    <line x1="640" y1="1000" x2="1000" y2="340"></line>
    <line x1="660" y1="1000" x2="1000" y2="320"></line>
    <line x1="680" y1="1000" x2="1000" y2="300"></line>
    <line x1="700" y1="1000" x2="1000" y2="280"></line>
    <line x1="720" y1="1000" x2="1000" y2="260"></line>
    <line x1="740" y1="1000" x2="1000" y2="240"></line>
    <line x1="760" y1="1000" x2="1000" y2="220"></line>
    <line x1="780" y1="1000" x2="1000" y2="200"></line>
    <line x1="800" y1="1000" x2="1000" y2="180"></line>
    <line x1="820" y1="1000" x2="1000" y2="160"></line>
    <line x1="840" y1="1000" x2="1000" y2="140"></line>
    <line x1="860" y1="1000" x2="1000" y2="120"></line>
    <line x1="880" y1="1000" x2="1000" y2="100"></line>
    <line x1="900" y1="1000" x2="1000" y2="80"></line>
    <line x1="920" y1="1000" x2="1000" y2="60"></line>
    <line x1="940" y1="1000" x2="1000" y2="40"></line>
    <line x1="960" y1="1000" x2="1000" y2="20"></line>
    <line x1="980" y1="1000" x2="1000" y2="0"></line>
  </g>
</svg>
