<svg
  stroke="black"
  stroke-linecap="round"
  font-size="60"
  viewBox="0 0 1000 1000"
  xmlns="http://www.w3.org/2000/svg"
>
  <rect fill="white" stroke="white" x="0" y="0" width="100%" height="100%"></rect>
  <g fill="skyblue" stroke="skyblue">
    <rect fill="white" stroke="white" x="0" y="0" width="100%" height="100%"></rect>
    <circle cx="490" cy="1000" r="50"></circle>
    <rect fill="white" stroke="white" x="0" y="0" width="100%" height="100%"></rect>
    <circle cx="490" cy="995" r="50"></circle>
    <rect fill="white" stroke="white" x="0" y="0" width="100%" height="100%"></rect>
    <circle cx="490" cy="990" r="50"></circle>
    <rect fill="white" stroke="white" x="0" y="0" width="100%" height="100%"></rect>
    <circle cx="510" cy="985" r="50"></circle>
    <rect fill="white" stroke="white" x="0" y="0" width="100%" height="100%"></rect>
    <circle cx="500" cy="980" r="50"></circle>
    <rect fill="white" stroke="white" x="0" y="0" width="100%" height="100%"></rect>
    <circle cx="510" cy="975" r="50"></circle>
    <rect fill="white" stroke="white" x="0" y="0" width="100%" height="100%"></rect>
    <circle cx="490" cy="970" r="50"></circle>
    <rect fill="white" stroke="white" x="0" y="0" width="100%" height="100%"></rect>
    <circle cx="470" cy="965" r="50"></circle>
    <rect fill="white" stroke="white" x="0" y="0" width="100%" height="100%"></rect>
    <circle cx="460" cy="960" r="50"></circle>
    <rect fill="white" stroke="white" x="0" y="0" width="100%" height="100%"></rect>
    <circle cx="440" cy="955" r="50"></circle>
    <rect fill="white" stroke="white" x="0" y="0" width="100%" height="100%"></rect>
    <circle cx="460" cy="950" r="50"></circle>
    <rect fill="white" stroke="white" x="0" y="0" width="100%" height="100%"></rect>
    <circle cx="450" cy="945" r="50"></circle>
    <rect fill="white" stroke="white" x="0" y="0" width="100%" height="100%"></rect>
    <circle cx="450" cy="940" r="50"></circle>
    <rect fill="white" stroke="white" x="0" y="0" width="100%" height="100%"></rect>
    <circle cx="470" cy="935" r="50"></circle>
    <rect fill="white" stroke="white" x="0" y="0" width="100%" height="100%"></rect>
    <circle cx="480" cy="930" r="50"></circle>
    <rect fill="white" stroke="white" x="0" y="0" width="100%" height="100%"></rect>
    <circle cx="500" cy="925" r="50"></circle>
    <rect fill="white" stroke="white" x="0" y="0" width="100%" height="100%"></rect>
    <circle cx="490" cy="920" r="50"></circle>
    <rect fill="white" stroke="white" x="0" y="0" width="100%" height="100%"></rect>
    <circle cx="470" cy="915" r="50"></circle>
    <rect fill="white" stroke="white" x="0" y="0" width="100%" height="100%"></rect>
    <circle cx="470" cy="910" r="50"></circle>
    <rect fill="white" stroke="white" x="0" y="0" width="100%" height="100%"></rect>
    <circle cx="460" cy="905" r="50"></circle>
    <rect fill="white" stroke="white" x="0" y="0" width="100%" height="100%"></rect>
    <circle cx="440" cy="900" r="50"></circle>
    <rect fill="white" stroke="white" x="0" y="0" width="100%" height="100%"></rect>
    <circle cx="430" cy="895" r="50"></circle>
    <rect fill="white" stroke="white" x="0" y="0" width="100%" height="100%"></rect>
    <circle cx="440" cy="890" r="50"></circle>
    <rect fill="white" stroke="white" x="0" y="0" width="100%" height="100%"></rect>
    <circle cx="450" cy="885" r="50"></circle>
    <rect fill="white" stroke="white" x="0" y="0" width="100%" height="100%"></rect>
    <circle cx="450" cy="880" r="50"></circle>
    <rect fill="white" stroke="white" x="0" y="0" width="100%" height="100%"></rect>
    <circle cx="450" cy="875" r="50"></circle>
    <rect fill="white" stroke="white" x="0" y="0" width="100%" height="100%"></rect>
    <circle cx="450" cy="870" r="50"></circle>
    <rect fill="white" stroke="white" x="0" y="0" width="100%" height="100%"></rect>
    <circle cx="460" cy="865" r="50"></circle>
    <rect fill="white" stroke="white" x="0" y="0" width="100%" height="100%"></rect>
    <circle cx="440" cy="860" r="50"></circle>
    <rect fill="white" stroke="white" x="0" y="0" width="100%" height="100%"></rect>
    <circle cx="420" cy="855" r="50"></circle>
    <rect fill="white" stroke="white" x="0" y="0" width="100%" height="100%"></rect>
    <circle cx="410" cy="850" r="50"></circle>
    <rect fill="white" stroke="white" x="0" y="0" width="100%" height="100%"></rect>
    <circle cx="420" cy="845" r="50"></circle>
    <rect fill="white" stroke="white" x="0" y="0" width="100%" height="100%"></rect>
    <circle cx="420" cy="840" r="50"></circle>
    <rect fill="white" stroke="white" x="0" y="0" width="100%" height="100%"></rect>
    <circle cx="410" cy="835" r="50"></circle>
    <rect fill="white" stroke="white" x="0" y="0" width="100%" height="100%"></rect>
    <circle cx="430" cy="830" r="50"></circle>
    <rect fill="white" stroke="white" x="0" y="0" width="100%" height="100%"></rect>
    <circle cx="420" cy="825" r="50"></circle>
    <rect fill="white" stroke="white" x="0" y="0" width="100%" height="100%"></rect>
    <circle cx="420" cy="820" r="50"></circle>
    <rect fill="white" stroke="white" x="0" y="0" width="100%" height="100%"></rect>
    <circle cx="410" cy="815" r="50"></circle>
    <rect fill="white" stroke="white" x="0" y="0" width="100%" height="100%"></rect>
    <circle cx="390" cy="810" r="50"></circle>
    <rect fill="white" stroke="white" x="0" y="0" width="100%" height="100%"></rect>
    <circle cx="380" cy="805" r="50"></circle>
    <rect fill="white" stroke="white" x="0" y="0" width="100%" height="100%"></rect>
    <circle cx="390" cy="800" r="50"></circle>
    <rect fill="white" stroke="white" x="0" y="0" width="100%" height="100%"></rect>
    <circle cx="370" cy="795" r="50"></circle>
    <rect fill="white" stroke="white" x="0" y="0" width="100%" height="100%"></rect>
    <circle cx="390" cy="790" r="50"></circle>
    <rect fill="white" stroke="white" x="0" y="0" width="100%" height="100%"></rect>
    <circle cx="400" cy="785" r="50"></circle>
    <rect fill="white" stroke="white" x="0" y="0" width="100%" height="100%"></rect>
    <circle cx="410" cy="780" r="50"></circle>
    <rect fill="white" stroke="white" x="0" y="0" width="100%" height="100%"></rect>
    <circle cx="410" cy="775" r="50"></circle>
    <rect fill="white" stroke="white" x="0" y="0" width="100%" height="100%"></rect>
    <circle cx="420" cy="770" r="50"></circle>
    <rect fill="white" stroke="white" x="0" y="0" width="100%" height="100%"></rect>
    <circle cx="440" cy="765" r="50"></circle>
    <rect fill="white" stroke="white" x="0" y="0" width="100%" height="100%"></rect>
    <circle cx="460" cy="760" r="50"></circle>
    <rect fill="white" stroke="white" x="0" y="0" width="100%" height="100%"></rect>
    <circle cx="470" cy="755" r="50"></circle>
    <rect fill="white" stroke="white" x="0" y="0" width="100%" height="100%"></rect>
    <circle cx="470" cy="750" r="50"></circle>
    <rect fill="white" stroke="white" x="0" y="0" width="100%" height="100%"></rect>
    <circle cx="460" cy="745" r="50"></circle>
    <rect fill="white" stroke="white" x="0" y="0" width="100%" height="100%"></rect>
    <circle cx="480" cy="740" r="50"></circle>
    <rect fill="white" stroke="white" x="0" y="0" width="100%" height="100%"></rect>
    <circle cx="500" cy="735" r="50"></circle>
    <rect fill="white" stroke="white" x="0" y="0" width="100%" height="100%"></rect>
    <circle cx="480" cy="730" r="50"></circle>
    <rect fill="white" stroke="white" x="0" y="0" width="100%" height="100%"></rect>
    <circle cx="460" cy="725" r="50"></circle>
    <rect fill="white" stroke="white" x="0" y="0" width="100%" height="100%"></rect>
    <circle cx="470" cy="720" r="50"></circle>
    <rect fill="white" stroke="white" x="0" y="0" width="100%" height="100%"></rect>
    <circle cx="480" cy="715" r="50"></circle>
    <rect fill="white" stroke="white" x="0" y="0" width="100%" height="100%"></rect>
    <circle cx="490" cy="710" r="50"></circle>
    <rect fill="white" stroke="white" x="0" y="0" width="100%" height="100%"></rect>
    <circle cx="470" cy="705" r="50"></circle>
    <rect fill="white" stroke="white" x="0" y="0" width="100%" height="100%"></rect>
    <circle cx="460" cy="700" r="50"></circle>
    <rect fill="white" stroke="white" x="0" y="0" width="100%" height="100%"></rect>
    <circle cx="440" cy="695" r="50"></circle>
    <rect fill="white" stroke="white" x="0" y="0" width="100%" height="100%"></rect>
    <circle cx="420" cy="690" r="50"></circle>
    <rect fill="white" stroke="white" x="0" y="0" width="100%" height="100%"></rect>
    <circle cx="410" cy="685" r="50"></circle>
    <rect fill="white" stroke="white" x="0" y="0" width="100%" height="100%"></rect>
    <circle cx="400" cy="680" r="50"></circle>
    <rect fill="white" stroke="white" x="0" y="0" width="100%" height="100%"></rect>
    <circle cx="410" cy="675" r="50"></circle>
    <rect fill="white" stroke="white" x="0" y="0" width="100%" height="100%"></rect>
    <circle cx="400" cy="670" r="50"></circle>
    <rect fill="white" stroke="white" x="0" y="0" width="100%" height="100%"></rect>
    <circle cx="400" cy="665" r="50"></circle>
    <rect fill="white" stroke="white" x="0" y="0" width="100%" height="100%"></rect>
    <circle cx="410" cy="660" r="50"></circle>
    <rect fill="white" stroke="white" x="0" y="0" width="100%" height="100%"></rect>
    <circle cx="400" cy="655" r="50"></circle>
    <rect fill="white" stroke="white" x="0" y="0" width="100%" height="100%"></rect>
    <circle cx="410" cy="650" r="50"></circle>
    <rect fill="white" stroke="white" x="0" y="0" width="100%" height="100%"></rect>
    <circle cx="400" cy="645" r="50"></circle>
    <rect fill="white" stroke="white" x="0" y="0" width="100%" height="100%"></rect>
    <circle cx="400" cy="640" r="50"></circle>
    <rect fill="white" stroke="white" x="0" y="0" width="100%" height="100%"></rect>
    <circle cx="410" cy="635" r="50"></circle>
    <rect fill="white" stroke="white" x="0" y="0" width="100%" height="100%"></rect>
    <circle cx="410" cy="630" r="50"></circle>
    <rect fill="white" stroke="white" x="0" y="0" width="100%" height="100%"></rect>
    <circle cx="430" cy="625" r="50"></circle>
    <rect fill="white" stroke="white" x="0" y="0" width="100%" height="100%"></rect>
    <circle cx="430" cy="620" r="50"></circle>
    <rect fill="white" stroke="white" x="0" y="0" width="100%" height="100%"></rect>
    <circle cx="440" cy="615" r="50"></circle>
    <rect fill="white" stroke="white" x="0" y="0" width="100%" height="100%"></rect>
    <circle cx="430" cy="610" r="50"></circle>
    <rect fill="white" stroke="white" x="0" y="0" width="100%" height="100%"></rect>
    <circle cx="410" cy="605" r="50"></circle>
    <rect fill="white" stroke="white" x="0" y="0" width="100%" height="100%"></rect>
    <circle cx="420" cy="600" r="50"></circle>
    <rect fill="white" stroke="white" x="0" y="0" width="100%" height="100%"></rect>
    <circle cx="430" cy="595" r="50"></circle>
    <rect fill="white" stroke="white" x="0" y="0" width="100%" height="100%"></rect>
    <circle cx="430" cy="590" r="50"></circle>
    <rect fill="white" stroke="white" x="0" y="0" width="100%" height="100%"></rect>
    <circle cx="440" cy="585" r="50"></circle>
    <rect fill="white" stroke="white" x="0" y="0" width="100%" height="100%"></rect>
    <circle cx="430" cy="580" r="50"></circle>
    <rect fill="white" stroke="white" x="0" y="0" width="100%" height="100%"></rect>
    <circle cx="450" cy="575" r="50"></circle>
    <rect fill="white" stroke="white" x="0" y="0" width="100%" height="100%"></rect>
    <circle cx="460" cy="570" r="50"></circle>
    <rect fill="white" stroke="white" x="0" y="0" width="100%" height="100%"></rect>
    <circle cx="470" cy="565" r="50"></circle>
    <rect fill="white" stroke="white" x="0" y="0" width="100%" height="100%"></rect>
    <circle cx="460" cy="560" r="50"></circle>
    <rect fill="white" stroke="white" x="0" y="0" width="100%" height="100%"></rect>
    <circle cx="460" cy="555" r="50"></circle>
    <rect fill="white" stroke="white" x="0" y="0" width="100%" height="100%"></rect>
    <circle cx="470" cy="550" r="50"></circle>
    <rect fill="white" stroke="white" x="0" y="0" width="100%" height="100%"></rect>
    <circle cx="460" cy="545" r="50"></circle>
    <rect fill="white" stroke="white" x="0" y="0" width="100%" height="100%"></rect>
    <circle cx="450" cy="540" r="50"></circle>
    <rect fill="white" stroke="white" x="0" y="0" width="100%" height="100%"></rect>
    <circle cx="450" cy="535" r="50"></circle>
    <rect fill="white" stroke="white" x="0" y="0" width="100%" height="100%"></rect>
    <circle cx="430" cy="530" r="50"></circle>
    <rect fill="white" stroke="white" x="0" y="0" width="100%" height="100%"></rect>
    <circle cx="440" cy="525" r="50"></circle>
    <rect fill="white" stroke="white" x="0" y="0" width="100%" height="100%"></rect>
    <circle cx="440" cy="520" r="50"></circle>
    <rect fill="white" stroke="white" x="0" y="0" width="100%" height="100%"></rect>
    <circle cx="450" cy="515" r="50"></circle>
    <rect fill="white" stroke="white" x="0" y="0" width="100%" height="100%"></rect>
    <circle cx="430" cy="510" r="50"></circle>
    <rect fill="white" stroke="white" x="0" y="0" width="100%" height="100%"></rect>
    <circle cx="440" cy="505" r="50"></circle>
    <rect fill="white" stroke="white" x="0" y="0" width="100%" height="100%"></rect>
    <circle cx="420" cy="500" r="50"></circle>
    <rect fill="white" stroke="white" x="0" y="0" width="100%" height="100%"></rect>
    <circle cx="410" cy="495" r="50"></circle>
    <rect fill="white" stroke="white" x="0" y="0" width="100%" height="100%"></rect>
    <circle cx="390" cy="490" r="50"></circle>
    <rect fill="white" stroke="white" x="0" y="0" width="100%" height="100%"></rect>
    <circle cx="390" cy="485" r="50"></circle>
    <rect fill="white" stroke="white" x="0" y="0" width="100%" height="100%"></rect>
    <circle cx="390" cy="480" r="50"></circle>
    <rect fill="white" stroke="white" x="0" y="0" width="100%" height="100%"></rect>
    <circle cx="370" cy="475" r="50"></circle>
    <rect fill="white" stroke="white" x="0" y="0" width="100%" height="100%"></rect>
    <circle cx="350" cy="470" r="50"></circle>
    <rect fill="white" stroke="white" x="0" y="0" width="100%" height="100%"></rect>
    <circle cx="330" cy="465" r="50"></circle>
    <rect fill="white" stroke="white" x="0" y="0" width="100%" height="100%"></rect>
    <circle cx="310" cy="460" r="50"></circle>
    <rect fill="white" stroke="white" x="0" y="0" width="100%" height="100%"></rect>
    <circle cx="310" cy="455" r="50"></circle>
    <rect fill="white" stroke="white" x="0" y="0" width="100%" height="100%"></rect>
    <circle cx="320" cy="450" r="50"></circle>
    <rect fill="white" stroke="white" x="0" y="0" width="100%" height="100%"></rect>
    <circle cx="330" cy="445" r="50"></circle>
    <rect fill="white" stroke="white" x="0" y="0" width="100%" height="100%"></rect>
    <circle cx="320" cy="440" r="50"></circle>
    <rect fill="white" stroke="white" x="0" y="0" width="100%" height="100%"></rect>
    <circle cx="320" cy="435" r="50"></circle>
    <rect fill="white" stroke="white" x="0" y="0" width="100%" height="100%"></rect>
    <circle cx="340" cy="430" r="50"></circle>
    <rect fill="white" stroke="white" x="0" y="0" width="100%" height="100%"></rect>
    <circle cx="340" cy="425" r="50"></circle>
    <rect fill="white" stroke="white" x="0" y="0" width="100%" height="100%"></rect>
    <circle cx="340" cy="420" r="50"></circle>
    <rect fill="white" stroke="white" x="0" y="0" width="100%" height="100%"></rect>
    <circle cx="340" cy="415" r="50"></circle>
    <rect fill="white" stroke="white" x="0" y="0" width="100%" height="100%"></rect>
    <circle cx="330" cy="410" r="50"></circle>
    <rect fill="white" stroke="white" x="0" y="0" width="100%" height="100%"></rect>
    <circle cx="350" cy="405" r="50"></circle>
    <rect fill="white" stroke="white" x="0" y="0" width="100%" height="100%"></rect>
    <circle cx="340" cy="400" r="50"></circle>
    <rect fill="white" stroke="white" x="0" y="0" width="100%" height="100%"></rect>
    <circle cx="340" cy="395" r="50"></circle>
    <rect fill="white" stroke="white" x="0" y="0" width="100%" height="100%"></rect>
    <circle cx="330" cy="390" r="50"></circle>
    <rect fill="white" stroke="white" x="0" y="0" width="100%" height="100%"></rect>
    <circle cx="350" cy="385" r="50"></circle>
    <rect fill="white" stroke="white" x="0" y="0" width="100%" height="100%"></rect>
    <circle cx="340" cy="380" r="50"></circle>
    <rect fill="white" stroke="white" x="0" y="0" width="100%" height="100%"></rect>
    <circle cx="320" cy="375" r="50"></circle>
    <rect fill="white" stroke="white" x="0" y="0" width="100%" height="100%"></rect>
    <circle cx="330" cy="370" r="50"></circle>
    <rect fill="white" stroke="white" x="0" y="0" width="100%" height="100%"></rect>
    <circle cx="320" cy="365" r="50"></circle>
    <rect fill="white" stroke="white" x="0" y="0" width="100%" height="100%"></rect>
    <circle cx="340" cy="360" r="50"></circle>
    <rect fill="white" stroke="white" x="0" y="0" width="100%" height="100%"></rect>
    <circle cx="330" cy="355" r="50"></circle>
    <rect fill="white" stroke="white" x="0" y="0" width="100%" height="100%"></rect>
    <circle cx="330" cy="350" r="50"></circle>
    <rect fill="white" stroke="white" x="0" y="0" width="100%" height="100%"></rect>
    <circle cx="310" cy="345" r="50"></circle>
    <rect fill="white" stroke="white" x="0" y="0" width="100%" height="100%"></rect>
    <circle cx="290" cy="340" r="50"></circle>
    <rect fill="white" stroke="white" x="0" y="0" width="100%" height="100%"></rect>
    <circle cx="270" cy="335" r="50"></circle>
    <rect fill="white" stroke="white" x="0" y="0" width="100%" height="100%"></rect>
    <circle cx="270" cy="330" r="50"></circle>
    <rect fill="white" stroke="white" x="0" y="0" width="100%" height="100%"></rect>
    <circle cx="290" cy="325" r="50"></circle>
    <rect fill="white" stroke="white" x="0" y="0" width="100%" height="100%"></rect>
    <circle cx="300" cy="320" r="50"></circle>
    <rect fill="white" stroke="white" x="0" y="0" width="100%" height="100%"></rect>
    <circle cx="310" cy="315" r="50"></circle>
    <rect fill="white" stroke="white" x="0" y="0" width="100%" height="100%"></rect>
    <circle cx="330" cy="310" r="50"></circle>
    <rect fill="white" stroke="white" x="0" y="0" width="100%" height="100%"></rect>
    <circle cx="340" cy="305" r="50"></circle>
    <rect fill="white" stroke="white" x="0" y="0" width="100%" height="100%"></rect>
    <circle cx="360" cy="300" r="50"></circle>
    <rect fill="white" stroke="white" x="0" y="0" width="100%" height="100%"></rect>
    <circle cx="360" cy="295" r="50"></circle>
    <rect fill="white" stroke="white" x="0" y="0" width="100%" height="100%"></rect>
    <circle cx="360" cy="290" r="50"></circle>
    <rect fill="white" stroke="white" x="0" y="0" width="100%" height="100%"></rect>
    <circle cx="360" cy="285" r="50"></circle>
    <rect fill="white" stroke="white" x="0" y="0" width="100%" height="100%"></rect>
    <circle cx="350" cy="280" r="50"></circle>
    <rect fill="white" stroke="white" x="0" y="0" width="100%" height="100%"></rect>
    <circle cx="370" cy="275" r="50"></circle>
    <rect fill="white" stroke="white" x="0" y="0" width="100%" height="100%"></rect>
    <circle cx="350" cy="270" r="50"></circle>
    <rect fill="white" stroke="white" x="0" y="0" width="100%" height="100%"></rect>
    <circle cx="340" cy="265" r="50"></circle>
    <rect fill="white" stroke="white" x="0" y="0" width="100%" height="100%"></rect>
    <circle cx="330" cy="260" r="50"></circle>
    <rect fill="white" stroke="white" x="0" y="0" width="100%" height="100%"></rect>
    <circle cx="320" cy="255" r="50"></circle>
    <rect fill="white" stroke="white" x="0" y="0" width="100%" height="100%"></rect>
    <circle cx="300" cy="250" r="50"></circle>
    <rect fill="white" stroke="white" x="0" y="0" width="100%" height="100%"></rect>
    <circle cx="290" cy="245" r="50"></circle>
    <rect fill="white" stroke="white" x="0" y="0" width="100%" height="100%"></rect>
    <circle cx="310" cy="240" r="50"></circle>
    <rect fill="white" stroke="white" x="0" y="0" width="100%" height="100%"></rect>
    <circle cx="330" cy="235" r="50"></circle>
    <rect fill="white" stroke="white" x="0" y="0" width="100%" height="100%"></rect>
    <circle cx="310" cy="230" r="50"></circle>
    <rect fill="white" stroke="white" x="0" y="0" width="100%" height="100%"></rect>
    <circle cx="320" cy="225" r="50"></circle>
    <rect fill="white" stroke="white" x="0" y="0" width="100%" height="100%"></rect>
    <circle cx="310" cy="220" r="50"></circle>
    <rect fill="white" stroke="white" x="0" y="0" width="100%" height="100%"></rect>
    <circle cx="290" cy="215" r="50"></circle>
    <rect fill="white" stroke="white" x="0" y="0" width="100%" height="100%"></rect>
    <circle cx="290" cy="210" r="50"></circle>
    <rect fill="white" stroke="white" x="0" y="0" width="100%" height="100%"></rect>
    <circle cx="300" cy="205" r="50"></circle>
    <rect fill="white" stroke="white" x="0" y="0" width="100%" height="100%"></rect>
    <circle cx="300" cy="200" r="50"></circle>
    <rect fill="white" stroke="white" x="0" y="0" width="100%" height="100%"></rect>
    <circle cx="290" cy="195" r="50"></circle>
    <rect fill="white" stroke="white" x="0" y="0" width="100%" height="100%"></rect>
    <circle cx="300" cy="190" r="50"></circle>
    <rect fill="white" stroke="white" x="0" y="0" width="100%" height="100%"></rect>
    <circle cx="320" cy="185" r="50"></circle>
    <rect fill="white" stroke="white" x="0" y="0" width="100%" height="100%"></rect>
    <circle cx="320" cy="180" r="50"></circle>
    <rect fill="white" stroke="white" x="0" y="0" width="100%" height="100%"></rect>
    <circle cx="330" cy="175" r="50"></circle>
    <rect fill="white" stroke="white" x="0" y="0" width="100%" height="100%"></rect>
    <circle cx="330" cy="170" r="50"></circle>
    <rect fill="white" stroke="white" x="0" y="0" width="100%" height="100%"></rect>
    <circle cx="340" cy="165" r="50"></circle>
    <rect fill="white" stroke="white" x="0" y="0" width="100%" height="100%"></rect>
    <circle cx="350" cy="160" r="50"></circle>
    <rect fill="white" stroke="white" x="0" y="0" width="100%" height="100%"></rect>
    <circle cx="360" cy="155" r="50"></circle>
    <rect fill="white" stroke="white" x="0" y="0" width="100%" height="100%"></rect>
    <circle cx="350" cy="150" r="50"></circle>
    <rect fill="white" stroke="white" x="0" y="0" width="100%" height="100%"></rect>
    <circle cx="330" cy="145" r="50"></circle>
    <rect fill="white" stroke="white" x="0" y="0" width="100%" height="100%"></rect>
    <circle cx="310" cy="140" r="50"></circle>
    <rect fill="white" stroke="white" x="0" y="0" width="100%" height="100%"></rect>
    <circle cx="290" cy="135" r="50"></circle>
    <rect fill="white" stroke="white" x="0" y="0" width="100%" height="100%"></rect>
    <circle cx="310" cy="130" r="50"></circle>
    <rect fill="white" stroke="white" x="0" y="0" width="100%" height="100%"></rect>
    <circle cx="310" cy="125" r="50"></circle>
    <rect fill="white" stroke="white" x="0" y="0" width="100%" height="100%"></rect>
    <circle cx="310" cy="120" r="50"></circle>
    <rect fill="white" stroke="white" x="0" y="0" width="100%" height="100%"></rect>
    <circle cx="290" cy="115" r="50"></circle>
    <rect fill="white" stroke="white" x="0" y="0" width="100%" height="100%"></rect>
    <circle cx="280" cy="110" r="50"></circle>
    <rect fill="white" stroke="white" x="0" y="0" width="100%" height="100%"></rect>
    <circle cx="300" cy="105" r="50"></circle>
    <rect fill="white" stroke="white" x="0" y="0" width="100%" height="100%"></rect>
    <circle cx="280" cy="100" r="50"></circle>
    <rect fill="white" stroke="white" x="0" y="0" width="100%" height="100%"></rect>
    <circle cx="290" cy="95" r="50"></circle>
    <rect fill="white" stroke="white" x="0" y="0" width="100%" height="100%"></rect>
    <circle cx="270" cy="90" r="50"></circle>
    <rect fill="white" stroke="white" x="0" y="0" width="100%" height="100%"></rect>
    <circle cx="290" cy="85" r="50"></circle>
    <rect fill="white" stroke="white" x="0" y="0" width="100%" height="100%"></rect>
    <circle cx="270" cy="80" r="50"></circle>
    <rect fill="white" stroke="white" x="0" y="0" width="100%" height="100%"></rect>
    <circle cx="280" cy="75" r="50"></circle>
    <rect fill="white" stroke="white" x="0" y="0" width="100%" height="100%"></rect>
    <circle cx="260" cy="70" r="50"></circle>
    <rect fill="white" stroke="white" x="0" y="0" width="100%" height="100%"></rect>
    <circle cx="280" cy="65" r="50"></circle>
    <rect fill="white" stroke="white" x="0" y="0" width="100%" height="100%"></rect>
    <circle cx="280" cy="60" r="50"></circle>
    <rect fill="white" stroke="white" x="0" y="0" width="100%" height="100%"></rect>
    <circle cx="260" cy="55" r="50"></circle>
    <rect fill="white" stroke="white" x="0" y="0" width="100%" height="100%"></rect>
    <circle cx="240" cy="50" r="50"></circle>
    <rect fill="white" stroke="white" x="0" y="0" width="100%" height="100%"></rect>
    <circle cx="240" cy="45" r="50"></circle>
    <rect fill="white" stroke="white" x="0" y="0" width="100%" height="100%"></rect>
    <circle cx="260" cy="40" r="50"></circle>
    <rect fill="white" stroke="white" x="0" y="0" width="100%" height="100%"></rect>
    <circle cx="240" cy="35" r="50"></circle>
    <rect fill="white" stroke="white" x="0" y="0" width="100%" height="100%"></rect>
    <circle cx="250" cy="30" r="50"></circle>
    <rect fill="white" stroke="white" x="0" y="0" width="100%" height="100%"></rect>
    <circle cx="240" cy="25" r="50"></circle>
    <rect fill="white" stroke="white" x="0" y="0" width="100%" height="100%"></rect>
    <circle cx="220" cy="20" r="50"></circle>
    <rect fill="white" stroke="white" x="0" y="0" width="100%" height="100%"></rect>
    <circle cx="210" cy="15" r="50"></circle>
    <rect fill="white" stroke="white" x="0" y="0" width="100%" height="100%"></rect>
    <circle cx="190" cy="10" r="50"></circle>
    <rect fill="white" stroke="white" x="0" y="0" width="100%" height="100%"></rect>
    <circle cx="180" cy="5" r="50"></circle>
    <rect fill="white" stroke="white" x="0" y="0" width="100%" height="100%"></rect>
    <circle cx="200" cy="0" r="50"></circle>
    <rect fill="white" stroke="white" x="0" y="0" width="100%" height="100%"></rect>
    <circle cx="200" cy="-5" r="50"></circle>
    <rect fill="white" stroke="white" x="0" y="0" width="100%" height="100%"></rect>
    <circle cx="190" cy="-10" r="50"></circle>
    <rect fill="white" stroke="white" x="0" y="0" width="100%" height="100%"></rect>
    <circle cx="190" cy="-15" r="50"></circle>
    <rect fill="white" stroke="white" x="0" y="0" width="100%" height="100%"></rect>
    <circle cx="180" cy="-20" r="50"></circle>
    <rect fill="white" stroke="white" x="0" y="0" width="100%" height="100%"></rect>
    <circle cx="160" cy="-25" r="50"></circle>
    <rect fill="white" stroke="white" x="0" y="0" width="100%" height="100%"></rect>
    <circle cx="180" cy="-30" r="50"></circle>
    <rect fill="white" stroke="white" x="0" y="0" width="100%" height="100%"></rect>
    <circle cx="180" cy="-35" r="50"></circle>
    <rect fill="white" stroke="white" x="0" y="0" width="100%" height="100%"></rect>
    <circle cx="180" cy="-40" r="50"></circle>
    <rect fill="white" stroke="white" x="0" y="0" width="100%" height="100%"></rect>
    <circle cx="180" cy="-45" r="50"></circle>
    <rect fill="white" stroke="white" x="0" y="0" width="100%" height="100%"></rect>
    <circle cx="190" cy="-50" r="50"></circle>
    <rect fill="white" stroke="white" x="0" y="0" width="100%" height="100%"></rect>
    <circle cx="180" cy="-55" r="50"></circle>
    <rect fill="white" stroke="white" x="0" y="0" width="100%" height="100%"></rect>
    <circle cx="190" cy="-60" r="50"></circle>
    <rect fill="white" stroke="white" x="0" y="0" width="100%" height="100%"></rect>
    <circle cx="200" cy="-65" r="50"></circle>
    <rect fill="white" stroke="white" x="0" y="0" width="100%" height="100%"></rect>
    <circle cx="210" cy="-70" r="50"></circle>
    <rect fill="white" stroke="white" x="0" y="0" width="100%" height="100%"></rect>
    <circle cx="200" cy="-75" r="50"></circle>
    <rect fill="white" stroke="white" x="0" y="0" width="100%" height="100%"></rect>
    <circle cx="220" cy="-80" r="50"></circle>
    <rect fill="white" stroke="white" x="0" y="0" width="100%" height="100%"></rect>
    <circle cx="220" cy="-85" r="50"></circle>
    <rect fill="white" stroke="white" x="0" y="0" width="100%" height="100%"></rect>
    <circle cx="220" cy="-90" r="50"></circle>
    <rect fill="white" stroke="white" x="0" y="0" width="100%" height="100%"></rect>
    <circle cx="220" cy="-95" r="50"></circle>
  </g>
</svg>
