<svg
  stroke="black"
  stroke-linecap="round"
  font-size="60"
  width="200px"
  height="200px"
  viewBox="0 0 1000 1000"
  xmlns="http://www.w3.org/2000/svg"
>
  <rect fill="white" stroke="white" x="0" y="0" width="100%" height="100%"></rect>
  <circle fill="white" stroke-width="0" cx="0" cy="1000" r="60"></circle>
  <circle fill="white" stroke-width="3" cx="0" cy="880" r="60"></circle>
  <circle fill="white" stroke-width="6" cx="0" cy="760" r="60"></circle>
  <circle fill="white" stroke-width="9" cx="0" cy="640" r="60"></circle>
  <circle fill="white" stroke-width="12" cx="0" cy="520" r="60"></circle>
  <circle fill="white" stroke-width="15" cx="0" cy="400" r="60"></circle>
  <circle fill="white" stroke-width="18" cx="0" cy="280" r="60"></circle>
  <circle fill="white" stroke-width="21" cx="0" cy="160" r="60"></circle>
  <circle fill="white" stroke-width="24" cx="0" cy="40" r="60"></circle>
  <circle fill="white" stroke-width="3" cx="120" cy="1000" r="60"></circle>
  <circle fill="white" stroke-width="6" cx="120" cy="880" r="60"></circle>
  <circle fill="white" stroke-width="9" cx="120" cy="760" r="60"></circle>
  <circle fill="white" stroke-width="12" cx="120" cy="640" r="60"></circle>
  <circle fill="white" stroke-width="15" cx="120" cy="520" r="60"></circle>
  <circle fill="white" stroke-width="18" cx="120" cy="400" r="60"></circle>
  <circle fill="white" stroke-width="21" cx="120" cy="280" r="60"></circle>
  <circle fill="white" stroke-width="24" cx="120" cy="160" r="60"></circle>
  <circle fill="white" stroke-width="27" cx="120" cy="40" r="60"></circle>
  <circle fill="white" stroke-width="6" cx="240" cy="1000" r="60"></circle>
  <circle fill="white" stroke-width="9" cx="240" cy="880" r="60"></circle>
  <circle fill="white" stroke-width="12" cx="240" cy="760" r="60"></circle>
  <circle fill="white" stroke-width="15" cx="240" cy="640" r="60"></circle>
  <circle fill="white" stroke-width="18" cx="240" cy="520" r="60"></circle>
  <circle fill="white" stroke-width="21" cx="240" cy="400" r="60"></circle>
  <circle fill="white" stroke-width="24" cx="240" cy="280" r="60"></circle>
  <circle fill="white" stroke-width="27" cx="240" cy="160" r="60"></circle>
  <circle fill="white" stroke-width="30" cx="240" cy="40" r="60"></circle>
  <circle fill="white" stroke-width="9" cx="360" cy="1000" r="60"></circle>
  <circle fill="white" stroke-width="12" cx="360" cy="880" r="60"></circle>
  <circle fill="white" stroke-width="15" cx="360" cy="760" r="60"></circle>
  <circle fill="white" stroke-width="18" cx="360" cy="640" r="60"></circle>
  <circle fill="white" stroke-width="21" cx="360" cy="520" r="60"></circle>
  <circle fill="white" stroke-width="24" cx="360" cy="400" r="60"></circle>
  <circle fill="white" stroke-width="27" cx="360" cy="280" r="60"></circle>
  <circle fill="white" stroke-width="30" cx="360" cy="160" r="60"></circle>
  <circle fill="white" stroke-width="33" cx="360" cy="40" r="60"></circle>
  <circle fill="white" stroke-width="12" cx="480" cy="1000" r="60"></circle>
  <circle fill="white" stroke-width="15" cx="480" cy="880" r="60"></circle>
  <circle fill="white" stroke-width="18" cx="480" cy="760" r="60"></circle>
  <circle fill="white" stroke-width="21" cx="480" cy="640" r="60"></circle>
  <circle fill="white" stroke-width="24" cx="480" cy="520" r="60"></circle>
  <circle fill="white" stroke-width="27" cx="480" cy="400" r="60"></circle>
  <circle fill="white" stroke-width="30" cx="480" cy="280" r="60"></circle>
  <circle fill="white" stroke-width="33" cx="480" cy="160" r="60"></circle>
  <circle fill="white" stroke-width="36" cx="480" cy="40" r="60"></circle>
  <circle fill="white" stroke-width="15" cx="600" cy="1000" r="60"></circle>
  <circle fill="white" stroke-width="18" cx="600" cy="880" r="60"></circle>
  <circle fill="white" stroke-width="21" cx="600" cy="760" r="60"></circle>
  <circle fill="white" stroke-width="24" cx="600" cy="640" r="60"></circle>
  <circle fill="white" stroke-width="27" cx="600" cy="520" r="60"></circle>
  <circle fill="white" stroke-width="30" cx="600" cy="400" r="60"></circle>
  <circle fill="white" stroke-width="33" cx="600" cy="280" r="60"></circle>
  <circle fill="white" stroke-width="36" cx="600" cy="160" r="60"></circle>
  <circle fill="white" stroke-width="39" cx="600" cy="40" r="60"></circle>
  <circle fill="white" stroke-width="18" cx="720" cy="1000" r="60"></circle>
  <circle fill="white" stroke-width="21" cx="720" cy="880" r="60"></circle>
  <circle fill="white" stroke-width="24" cx="720" cy="760" r="60"></circle>
  <circle fill="white" stroke-width="27" cx="720" cy="640" r="60"></circle>
  <circle fill="white" stroke-width="30" cx="720" cy="520" r="60"></circle>
  <circle fill="white" stroke-width="33" cx="720" cy="400" r="60"></circle>
  <circle fill="white" stroke-width="36" cx="720" cy="280" r="60"></circle>
  <circle fill="white" stroke-width="39" cx="720" cy="160" r="60"></circle>
  <circle fill="white" stroke-width="42" cx="720" cy="40" r="60"></circle>
  <circle fill="white" stroke-width="21" cx="840" cy="1000" r="60"></circle>
  <circle fill="white" stroke-width="24" cx="840" cy="880" r="60"></circle>
  <circle fill="white" stroke-width="27" cx="840" cy="760" r="60"></circle>
  <circle fill="white" stroke-width="30" cx="840" cy="640" r="60"></circle>
  <circle fill="white" stroke-width="33" cx="840" cy="520" r="60"></circle>
  <circle fill="white" stroke-width="36" cx="840" cy="400" r="60"></circle>
  <circle fill="white" stroke-width="39" cx="840" cy="280" r="60"></circle>
  <circle fill="white" stroke-width="42" cx="840" cy="160" r="60"></circle>
  <circle fill="white" stroke-width="45" cx="840" cy="40" r="60"></circle>
  <circle fill="white" stroke-width="24" cx="960" cy="1000" r="60"></circle>
  <circle fill="white" stroke-width="27" cx="960" cy="880" r="60"></circle>
  <circle fill="white" stroke-width="30" cx="960" cy="760" r="60"></circle>
  <circle fill="white" stroke-width="33" cx="960" cy="640" r="60"></circle>
  <circle fill="white" stroke-width="36" cx="960" cy="520" r="60"></circle>
  <circle fill="white" stroke-width="39" cx="960" cy="400" r="60"></circle>
  <circle fill="white" stroke-width="42" cx="960" cy="280" r="60"></circle>
  <circle fill="white" stroke-width="45" cx="960" cy="160" r="60"></circle>
  <circle fill="white" stroke-width="48" cx="960" cy="40" r="60"></circle>
</svg>
