<svg
  stroke="black"
  stroke-linecap="round"
  font-size="60"
  width="200px"
  height="200px"
  viewBox="0 0 1000 1000"
  xmlns="http://www.w3.org/2000/svg"
>
  <g>
    <rect fill="white" stroke="white" x="0" y="0" width="100%" height="100%"></rect>
    <circle cx="0" cy="1000" r="15"></circle>
    <circle cx="0" cy="920" r="35"></circle>
    <circle cx="0" cy="840" r="35"></circle>
    <circle cx="0" cy="760" r="35"></circle>
    <circle cx="0" cy="680" r="15"></circle>
    <circle cx="0" cy="600" r="25"></circle>
    <circle cx="0" cy="520" r="15"></circle>
    <circle cx="0" cy="440" r="5"></circle>
    <circle cx="0" cy="360" r="5"></circle>
    <circle cx="0" cy="280" r="5"></circle>
    <circle cx="0" cy="200" r="25"></circle>
    <circle cx="0" cy="120" r="35"></circle>
    <circle cx="0" cy="40" r="25"></circle>
    <circle cx="80" cy="1000" r="15"></circle>
    <circle cx="80" cy="920" r="5"></circle>
    <circle cx="80" cy="840" r="25"></circle>
    <circle cx="80" cy="760" r="35"></circle>
    <circle cx="80" cy="680" r="15"></circle>
    <circle cx="80" cy="600" r="15"></circle>
    <circle cx="80" cy="520" r="25"></circle>
    <circle cx="80" cy="440" r="35"></circle>
    <circle cx="80" cy="360" r="25"></circle>
    <circle cx="80" cy="280" r="5"></circle>
    <circle cx="80" cy="200" r="25"></circle>
    <circle cx="80" cy="120" r="35"></circle>
    <circle cx="80" cy="40" r="35"></circle>
    <circle cx="160" cy="1000" r="35"></circle>
    <circle cx="160" cy="920" r="5"></circle>
    <circle cx="160" cy="840" r="25"></circle>
    <circle cx="160" cy="760" r="35"></circle>
    <circle cx="160" cy="680" r="15"></circle>
    <circle cx="160" cy="600" r="5"></circle>
    <circle cx="160" cy="520" r="35"></circle>
    <circle cx="160" cy="440" r="35"></circle>
    <circle cx="160" cy="360" r="15"></circle>
    <circle cx="160" cy="280" r="5"></circle>
    <circle cx="160" cy="200" r="15"></circle>
    <circle cx="160" cy="120" r="35"></circle>
    <circle cx="160" cy="40" r="15"></circle>
    <circle cx="240" cy="1000" r="25"></circle>
    <circle cx="240" cy="920" r="15"></circle>
    <circle cx="240" cy="840" r="25"></circle>
    <circle cx="240" cy="760" r="25"></circle>
    <circle cx="240" cy="680" r="35"></circle>
    <circle cx="240" cy="600" r="15"></circle>
    <circle cx="240" cy="520" r="35"></circle>
    <circle cx="240" cy="440" r="25"></circle>
    <circle cx="240" cy="360" r="5"></circle>
    <circle cx="240" cy="280" r="35"></circle>
    <circle cx="240" cy="200" r="15"></circle>
    <circle cx="240" cy="120" r="15"></circle>
    <circle cx="240" cy="40" r="15"></circle>
    <circle cx="320" cy="1000" r="15"></circle>
    <circle cx="320" cy="920" r="35"></circle>
    <circle cx="320" cy="840" r="5"></circle>
    <circle cx="320" cy="760" r="15"></circle>
    <circle cx="320" cy="680" r="5"></circle>
    <circle cx="320" cy="600" r="25"></circle>
    <circle cx="320" cy="520" r="35"></circle>
    <circle cx="320" cy="440" r="35"></circle>
    <circle cx="320" cy="360" r="35"></circle>
    <circle cx="320" cy="280" r="25"></circle>
    <circle cx="320" cy="200" r="15"></circle>
    <circle cx="320" cy="120" r="5"></circle>
    <circle cx="320" cy="40" r="25"></circle>
    <circle cx="400" cy="1000" r="5"></circle>
    <circle cx="400" cy="920" r="15"></circle>
    <circle cx="400" cy="840" r="25"></circle>
    <circle cx="400" cy="760" r="35"></circle>
    <circle cx="400" cy="680" r="25"></circle>
    <circle cx="400" cy="600" r="35"></circle>
    <circle cx="400" cy="520" r="5"></circle>
    <circle cx="400" cy="440" r="25"></circle>
    <circle cx="400" cy="360" r="25"></circle>
    <circle cx="400" cy="280" r="35"></circle>
    <circle cx="400" cy="200" r="25"></circle>
    <circle cx="400" cy="120" r="15"></circle>
    <circle cx="400" cy="40" r="35"></circle>
    <circle cx="480" cy="1000" r="5"></circle>
    <circle cx="480" cy="920" r="5"></circle>
    <circle cx="480" cy="840" r="35"></circle>
    <circle cx="480" cy="760" r="15"></circle>
    <circle cx="480" cy="680" r="15"></circle>
    <circle cx="480" cy="600" r="15"></circle>
    <circle cx="480" cy="520" r="15"></circle>
    <circle cx="480" cy="440" r="35"></circle>
    <circle cx="480" cy="360" r="15"></circle>
    <circle cx="480" cy="280" r="35"></circle>
    <circle cx="480" cy="200" r="35"></circle>
    <circle cx="480" cy="120" r="25"></circle>
    <circle cx="480" cy="40" r="25"></circle>
    <circle cx="560" cy="1000" r="5"></circle>
    <circle cx="560" cy="920" r="25"></circle>
    <circle cx="560" cy="840" r="35"></circle>
    <circle cx="560" cy="760" r="5"></circle>
    <circle cx="560" cy="680" r="35"></circle>
    <circle cx="560" cy="600" r="5"></circle>
    <circle cx="560" cy="520" r="35"></circle>
    <circle cx="560" cy="440" r="15"></circle>
    <circle cx="560" cy="360" r="25"></circle>
    <circle cx="560" cy="280" r="15"></circle>
    <circle cx="560" cy="200" r="35"></circle>
    <circle cx="560" cy="120" r="35"></circle>
    <circle cx="560" cy="40" r="15"></circle>
    <circle cx="640" cy="1000" r="35"></circle>
    <circle cx="640" cy="920" r="25"></circle>
    <circle cx="640" cy="840" r="25"></circle>
    <circle cx="640" cy="760" r="15"></circle>
    <circle cx="640" cy="680" r="25"></circle>
    <circle cx="640" cy="600" r="5"></circle>
    <circle cx="640" cy="520" r="25"></circle>
    <circle cx="640" cy="440" r="15"></circle>
    <circle cx="640" cy="360" r="35"></circle>
    <circle cx="640" cy="280" r="25"></circle>
    <circle cx="640" cy="200" r="5"></circle>
    <circle cx="640" cy="120" r="15"></circle>
    <circle cx="640" cy="40" r="35"></circle>
    <circle cx="720" cy="1000" r="15"></circle>
    <circle cx="720" cy="920" r="35"></circle>
    <circle cx="720" cy="840" r="25"></circle>
    <circle cx="720" cy="760" r="25"></circle>
    <circle cx="720" cy="680" r="25"></circle>
    <circle cx="720" cy="600" r="15"></circle>
    <circle cx="720" cy="520" r="35"></circle>
    <circle cx="720" cy="440" r="25"></circle>
    <circle cx="720" cy="360" r="25"></circle>
    <circle cx="720" cy="280" r="15"></circle>
    <circle cx="720" cy="200" r="25"></circle>
    <circle cx="720" cy="120" r="35"></circle>
    <circle cx="720" cy="40" r="15"></circle>
    <circle cx="800" cy="1000" r="5"></circle>
    <circle cx="800" cy="920" r="35"></circle>
    <circle cx="800" cy="840" r="15"></circle>
    <circle cx="800" cy="760" r="25"></circle>
    <circle cx="800" cy="680" r="35"></circle>
    <circle cx="800" cy="600" r="15"></circle>
    <circle cx="800" cy="520" r="5"></circle>
    <circle cx="800" cy="440" r="25"></circle>
    <circle cx="800" cy="360" r="5"></circle>
    <circle cx="800" cy="280" r="35"></circle>
    <circle cx="800" cy="200" r="5"></circle>
    <circle cx="800" cy="120" r="35"></circle>
    <circle cx="800" cy="40" r="5"></circle>
    <circle cx="880" cy="1000" r="5"></circle>
    <circle cx="880" cy="920" r="5"></circle>
    <circle cx="880" cy="840" r="35"></circle>
    <circle cx="880" cy="760" r="5"></circle>
    <circle cx="880" cy="680" r="25"></circle>
    <circle cx="880" cy="600" r="35"></circle>
    <circle cx="880" cy="520" r="5"></circle>
    <circle cx="880" cy="440" r="5"></circle>
    <circle cx="880" cy="360" r="35"></circle>
    <circle cx="880" cy="280" r="5"></circle>
    <circle cx="880" cy="200" r="5"></circle>
    <circle cx="880" cy="120" r="15"></circle>
    <circle cx="880" cy="40" r="35"></circle>
    <circle cx="960" cy="1000" r="15"></circle>
    <circle cx="960" cy="920" r="25"></circle>
    <circle cx="960" cy="840" r="25"></circle>
    <circle cx="960" cy="760" r="25"></circle>
    <circle cx="960" cy="680" r="35"></circle>
    <circle cx="960" cy="600" r="35"></circle>
    <circle cx="960" cy="520" r="25"></circle>
    <circle cx="960" cy="440" r="25"></circle>
    <circle cx="960" cy="360" r="25"></circle>
    <circle cx="960" cy="280" r="35"></circle>
    <circle cx="960" cy="200" r="25"></circle>
    <circle cx="960" cy="120" r="5"></circle>
    <circle cx="960" cy="40" r="35"></circle>
  </g>
</svg>
