<svg
  stroke="black"
  stroke-linecap="round"
  font-size="60"
  viewBox="0 0 1000 1000"
  xmlns="http://www.w3.org/2000/svg"
>
  <g>
    <rect fill="white" stroke="white" x="0" y="0" width="100%" height="100%"></rect>
    <g stroke="grey">
      <line stroke-width="2" x1="0" y1="0" x2="0" y2="1000"></line>
      <line stroke-width="2" x1="0" y1="0" x2="1000" y2="0"></line>
      <line x1="200" y1="0" x2="200" y2="1000"></line>
      <line x1="0" y1="200" x2="1000" y2="200"></line>
      <line x1="400" y1="0" x2="400" y2="1000"></line>
      <line x1="0" y1="400" x2="1000" y2="400"></line>
      <line x1="600" y1="0" x2="600" y2="1000"></line>
      <line x1="0" y1="600" x2="1000" y2="600"></line>
      <line x1="800" y1="0" x2="800" y2="1000"></line>
      <line x1="0" y1="800" x2="1000" y2="800"></line>
      <line stroke-width="2" x1="1000" y1="0" x2="1000" y2="1000"></line>
      <line stroke-width="2" x1="0" y1="1000" x2="1000" y2="1000"></line>
    </g>
  </g>
  <circle cx="400" cy="200" r="200"></circle>
  <g fill="yellow" stroke="yellow">
    <circle cx="320" cy="300" r="20"></circle>
    <circle cx="500" cy="300" r="20"></circle>
  </g>
  <rect x="200" y="0" width="400" height="200"></rect>
  <circle fill="white" stroke="white" cx="400" cy="0" r="200"></circle>
  <g>
    <rect x="0" y="800" width="1000" height="200"></rect>
    <rect x="200" y="600" width="400" height="200"></rect>
    <circle cx="400" cy="600" r="200"></circle>
  </g>
  <g fill="white" stroke="white">
    <circle cx="0" cy="800" r="200"></circle>
    <circle cx="800" cy="800" r="200"></circle>
  </g>
</svg>
