<svg
  stroke="black"
  stroke-linecap="round"
  font-size="60"
  width="200px"
  height="200px"
  viewBox="0 0 1000 1000"
  xmlns="http://www.w3.org/2000/svg"
>
  <g>
    <rect fill="white" stroke="white" x="0" y="0" width="100%" height="100%"></rect>
    <rect fill="white" stroke="white" x="0" y="0" width="100%" height="100%"></rect>
    <g stroke="hsl(0deg 100% 0% / 50%)">
      <line stroke-width="2" x1="0" y1="0" x2="0" y2="1000"></line>
      <line stroke-width="2" x1="0" y1="0" x2="1000" y2="0"></line>
      <line x1="100" y1="0" x2="100" y2="1000"></line>
      <line x1="0" y1="100" x2="1000" y2="100"></line>
      <line x1="200" y1="0" x2="200" y2="1000"></line>
      <line x1="0" y1="200" x2="1000" y2="200"></line>
      <line x1="300" y1="0" x2="300" y2="1000"></line>
      <line x1="0" y1="300" x2="1000" y2="300"></line>
      <line x1="400" y1="0" x2="400" y2="1000"></line>
      <line x1="0" y1="400" x2="1000" y2="400"></line>
      <line stroke-width="2" x1="500" y1="0" x2="500" y2="1000"></line>
      <line stroke-width="2" x1="0" y1="500" x2="1000" y2="500"></line>
      <line x1="600" y1="0" x2="600" y2="1000"></line>
      <line x1="0" y1="600" x2="1000" y2="600"></line>
      <line x1="700" y1="0" x2="700" y2="1000"></line>
      <line x1="0" y1="700" x2="1000" y2="700"></line>
      <line x1="800" y1="0" x2="800" y2="1000"></line>
      <line x1="0" y1="800" x2="1000" y2="800"></line>
      <line x1="900" y1="0" x2="900" y2="1000"></line>
      <line x1="0" y1="900" x2="1000" y2="900"></line>
      <line stroke-width="2" x1="1000" y1="0" x2="1000" y2="1000"></line>
      <line stroke-width="2" x1="0" y1="1000" x2="1000" y2="1000"></line>
    </g>
  </g>
  <g stroke-width="4">
    <line x1="0" y1="1000" x2="0" y2="0"></line>
    <line x1="0" y1="1000" x2="1000" y2="1000"></line>
    <polyline points="1000,1000 980,985 980,1000 1000,1000"></polyline>
    <polyline points="0,0 15,20 0,20 0,0"></polyline>
    <line x1="300" y1="1000" x2="300" y2="400"></line>
    <line x1="300" y1="400" x2="0" y2="400"></line>
    <polyline points="300,410 290,430 310,430 300,410"></polyline>
    <polyline points="290,400 270,410 270,390 290,400"></polyline>
  </g>
  <g font-size="40" font-family="Fira Code, monospace">
    <text x="950" y="990">x</text>
    <text x="10" y="50">y</text>
    <text x="10" y="990">0</text>
    <text x="250" y="380">30 60</text>
    <text x="310" y="710">y:60</text>
    <text x="100" y="440">x:30</text>
  </g>
  <circle fill="red" stroke="red" cx="300" cy="400" r="10"></circle>
</svg>
