<svg width="482" height="508" viewBox="0 0 241 254" fill="none" xmlns="http://www.w3.org/2000/svg">
  <!-- Line 1 -->
  <path
    fill="#FFCF00"
    stroke="none"
    d="M75.3896 6.16505C75.3896 2.76019 78.1563 0 81.5691 0H88.9845C92.3974 0 95.164 2.76019 95.164 6.16505C95.164 9.56991 92.3974 12.3301 88.9845 12.3301H81.5691C78.1563 12.3301 75.3896 9.56991 75.3896 6.16505Z"
  />
  <path
    fill="#EB5D96"
    stroke="none"
    d="M100.108 6.16505C100.108 2.76019 102.874 0 106.287 0H164.374C167.787 0 170.554 2.76019 170.554 6.16505C170.554 9.56991 167.787 12.3301 164.374 12.3301H106.287C102.874 12.3301 100.108 9.56991 100.108 6.16505Z"
  />
  <!-- Line 2-->
  <path
    fill="#D95644"
    stroke="none"
    d="M40.7847 33.2913C40.7847 29.8864 43.5513 27.1262 46.9642 27.1262H80.3334C83.7462 27.1262 86.5129 29.8864 86.5129 33.2913C86.5129 36.6961 83.7462 39.4563 80.3334 39.4563H46.9642C43.5513 39.4563 40.7847 36.6961 40.7847 33.2913Z"
  />
  <path
    fill="#41BEFF"
    stroke="none"
    d="M95.1641 33.2913C95.1641 29.8864 97.9307 27.1262 101.344 27.1262H202.687C206.1 27.1262 208.867 29.8864 208.867 33.2913C208.867 36.6961 206.1 39.4563 202.687 39.4563H101.344C97.9307 39.4563 95.1641 36.6961 95.1641 33.2913Z"
  />
  <!-- Line 3 -->
  <path
    fill="#3CB679"
    stroke="none"
    d="M17.3025 59.1845C17.3025 55.7796 20.0691 53.0194 23.482 53.0194H82.8051C86.2179 53.0194 88.9845 55.7796 88.9845 59.1845C88.9845 62.5893 86.2179 65.3495 82.8051 65.3495H23.482C20.0691 65.3495 17.3025 62.5893 17.3025 59.1845Z"
  />
  <path
    fill="#4551BE"
    stroke="none"
    d="M159.431 59.1845C159.431 55.7796 162.197 53.0194 165.61 53.0194H197.743C201.156 53.0194 203.923 55.7796 203.923 59.1845C203.923 62.5893 201.156 65.3495 197.743 65.3495H165.61C162.197 65.3495 159.431 62.5893 159.431 59.1845Z"
  />
  <path
    fill="#D95644"
    stroke="none"
    d="M208.867 59.1845C208.867 55.7796 211.633 53.0194 215.046 53.0194H221.226C224.639 53.0194 227.405 55.7796 227.405 59.1845C227.405 62.5893 224.639 65.3495 221.226 65.3495H215.046C211.633 65.3495 208.867 62.5893 208.867 59.1845Z"
  />
  <!-- Line 4 -->
  <path
    fill="#FFCF00"
    stroke="none"
    d="M2.47168 85.0777C2.47168 81.6728 5.23833 78.9126 8.65117 78.9126H43.2563C46.6691 78.9126 49.4358 81.6728 49.4358 85.0777C49.4358 88.4825 46.6691 91.2427 43.2563 91.2427H8.65117C5.23833 91.2427 2.47168 88.4825 2.47168 85.0777Z"
  />
  <path
    fill="#4551BE"
    stroke="none"
    d="M53.1436 85.0777C53.1436 81.6728 55.9102 78.9126 59.323 78.9126H65.5025C68.9154 78.9126 71.682 81.6728 71.682 85.0777C71.682 88.4825 68.9154 91.2427 65.5025 91.2427H59.323C55.9102 91.2427 53.1436 88.4825 53.1436 85.0777Z"
  />
  <path
    fill="#EB5D96"
    stroke="none"
    d="M170.554 85.0777C170.554 81.6728 173.321 78.9126 176.733 78.9126H232.349C235.762 78.9126 238.528 81.6728 238.528 85.0777C238.528 88.4825 235.762 91.2427 232.349 91.2427H176.733C173.321 91.2427 170.554 88.4825 170.554 85.0777Z"
  />
  <!-- Line 5 -->
  <path
    fill="#D95644"
    stroke="none"
    d="M0 112.204C0 108.799 2.76665 106.039 6.17949 106.039H72.9179C76.3308 106.039 79.0974 108.799 79.0974 112.204C79.0974 115.609 76.3308 118.369 72.9179 118.369H6.17949C2.76665 118.369 0 115.609 0 112.204Z"
  />
  <path
    fill="#41BEFF"
    stroke="none"
    d="M84.041 112.204C84.041 108.799 86.8077 106.039 90.2205 106.039H111.231C114.644 106.039 117.41 108.799 117.41 112.204C117.41 115.609 114.644 118.369 111.231 118.369H90.2205C86.8077 118.369 84.041 115.609 84.041 112.204Z"
  />
  <path
    fill="#4551BE"
    stroke="none"
    d="M124.826 112.204C124.826 108.799 127.592 106.039 131.005 106.039H160.667C164.08 106.039 166.846 108.799 166.846 112.204C166.846 115.609 164.08 118.369 160.667 118.369H131.005C127.592 118.369 124.826 115.609 124.826 112.204Z"
  />
  <path
    fill="#3CB679"
    stroke="none"
    d="M173.026 112.204C173.026 108.799 175.792 106.039 179.205 106.039H234.821C238.233 106.039 241 108.799 241 112.204C241 115.609 238.233 118.369 234.821 118.369H179.205C175.792 118.369 173.026 115.609 173.026 112.204Z"
  />
  <!-- Line 6 -->
  <path
    fill="#EB5D96"
    stroke="none"
    d="M0 138.097C0 134.692 2.76665 131.932 6.17949 131.932H149.544C152.956 131.932 155.723 134.692 155.723 138.097C155.723 141.502 152.956 144.262 149.544 144.262H6.17949C2.76666 144.262 0 141.502 0 138.097Z"
  />
  <path
    fill="#FFCF00"
    stroke="none"
    d="M161.903 138.097C161.903 134.692 164.669 131.932 168.082 131.932H187.856C191.269 131.932 194.036 134.692 194.036 138.097C194.036 141.502 191.269 144.262 187.856 144.262H168.082C164.669 144.262 161.903 141.502 161.903 138.097Z"
  />
  <path
    fill="#D95644"
    stroke="none"
    d="M200.215 138.097C200.215 134.692 202.982 131.932 206.395 131.932H227.405C230.818 131.932 233.585 134.692 233.585 138.097C233.585 141.502 230.818 144.262 227.405 144.262H206.395C202.982 144.262 200.215 141.502 200.215 138.097Z"
  />
  <!-- Line 7 -->
  <path
    fill="#4551BE"
    stroke="none"
    d="M28.4255 163.99C28.4255 160.585 31.1922 157.825 34.605 157.825H77.8614C81.2743 157.825 84.0409 160.585 84.0409 163.99C84.0409 167.395 81.2743 170.155 77.8614 170.155H34.605C31.1922 170.155 28.4255 167.395 28.4255 163.99Z"
  />
  <path
    fill="#41BEFF"
    stroke="none"
    d="M4.9436 163.99C4.9436 160.585 7.71025 157.825 11.1231 157.825H17.3026C20.7154 157.825 23.4821 160.585 23.4821 163.99C23.4821 167.395 20.7154 170.155 17.3026 170.155H11.1231C7.71025 170.155 4.9436 167.395 4.9436 163.99Z"
  />
  <!-- Line 8 -->
  <path
    fill="#3CB679"
    stroke="none"
    d="M16.0667 189.883C16.0667 186.479 18.8333 183.718 22.2461 183.718H88.9846C92.3974 183.718 95.1641 186.479 95.1641 189.883C95.1641 193.288 92.3974 196.049 88.9846 196.049H22.2461C18.8333 196.049 16.0667 193.288 16.0667 189.883Z"
  />
  <path
    fill="#4551BE"
    stroke="none"
    d="M170.554 189.883C170.554 186.479 173.321 183.718 176.733 183.718H216.282C219.695 183.718 222.462 186.479 222.462 189.883C222.462 193.288 219.695 196.049 216.282 196.049H176.733C173.321 196.049 170.554 193.288 170.554 189.883Z"
  />
  <!-- Line 9 -->
  <path
    fill="#4551BE"
    stroke="none"
    d="M35.8411 215.777C35.8411 212.372 38.6077 209.612 42.0206 209.612H135.949C139.362 209.612 142.128 212.372 142.128 215.777C142.128 219.182 139.362 221.942 135.949 221.942H42.0206C38.6077 221.942 35.8411 219.182 35.8411 215.777Z"
  />
  <path
    fill="#FFCF00"
    stroke="none"
    d="M147.072 215.777C147.072 212.372 149.838 209.612 153.251 209.612H159.431C162.844 209.612 165.61 212.372 165.61 215.777C165.61 219.182 162.844 221.942 159.431 221.942H153.251C149.838 221.942 147.072 219.182 147.072 215.777Z"
  />
  <path
    fill="#EB5D96"
    stroke="none"
    d="M170.554 215.777C170.554 212.372 173.321 209.612 176.733 209.612H207.631C211.044 209.612 213.81 212.372 213.81 215.777C213.81 219.182 211.044 221.942 207.631 221.942H176.733C173.321 221.942 170.554 219.182 170.554 215.777Z"
  />
  <!-- Line 10 -->
  <path
    fill="#D95644"
    stroke="none"
    d="M88.9846 241.67C88.9846 238.265 91.7513 235.505 95.1641 235.505H164.374C167.787 235.505 170.554 238.265 170.554 241.67C170.554 245.075 167.787 247.835 164.374 247.835H95.1641C91.7513 247.835 88.9846 245.075 88.9846 241.67Z"
  />
</svg>
