<svg width="459" height="125" viewBox="0 0 459 125" xmlns="http://www.w3.org/2000/svg">
	<g stroke-linecap="round" stroke-width="25">
		<!-- width:142.5 height:100 -->
		<path d="M12.5,12.5 h0" stroke="hsl(49deg 100% 50%) "/>
		<path d="M50,12.5 h80" stroke="hsl(336deg 78% 64%)"/>
		<path d="M12.5,50 h0" stroke="hsl(7deg 66% 56%)"/>
		<path d="M50,50 h42.5" stroke="hsl(201deg 100% 63%)"/>
		<path d="M12.5,87.5 h0" stroke="hsl(150deg 50% 47%) "/>
		<path d="M50,87.5 h72.5" stroke="hsl(234deg 48% 51%)"/>
	</g>
	<g fill="hsl(0deg 0% 100%)" transform="translate(155.5)">
		<!-- width:304 height:125; aligns with height:100 (evy-lines.svg); paths represent letters `e`, `v`, `y` -->
		<path d="M15.2944 43.5962C17.1709 25.3256 29.9311 11.7583 46.8197 11.7583C66.1477 11.7583 76.2808 26.5919 77.782 43.5962H15.2944ZM85.6634 83.5745C87.1646 82.3083 87.9152 80.6802 87.9152 79.0521C87.9152 75.796 85.1004 73.0825 81.535 73.0825C79.8462 73.0825 78.5326 73.8061 77.4067 74.7106C70.276 81.042 61.4564 85.5644 49.4468 85.5644C32.1829 85.5644 17.3586 74.1679 15.2944 53.9074H85.4757C89.0411 53.9074 92.2311 51.1939 92.2311 47.3951C92.2311 22.6122 75.9055 0 47.195 0C20.361 0 0.657654 21.7077 0.657654 48.6614V49.0232C0.657654 77.9667 22.4251 97.6845 49.0715 97.6845C65.5847 97.6845 76.4685 92.0767 85.6634 83.5745Z"/>
		<path d="M158.431 90.9913L195.023 11.3965C195.398 10.492 195.774 9.22575 195.774 7.95947C195.774 4.16064 192.583 1.08538 188.643 1.08538C184.89 1.08538 182.826 3.43705 181.887 6.1505L149.987 79.5948L118.649 6.5123C117.523 3.43705 115.459 1.08538 111.331 1.08538C107.202 1.08538 104.012 4.34153 104.012 7.95947C104.012 9.22575 104.575 10.492 104.951 11.7583L141.355 90.9913C143.044 94.6093 145.671 96.9609 149.612 96.9609H150.362C154.303 96.9609 156.742 94.6093 158.431 90.9913Z"/>
		<path d="M232.241 125C246.878 125 256.26 117.945 264.704 98.589L302.61 11.3965C302.985 10.3111 303.36 9.04486 303.36 7.95947C303.36 4.16064 300.17 1.08538 296.23 1.08538C292.477 1.08538 290.412 3.43705 289.287 6.3314L259.262 79.9566L225.485 6.5123C224.172 3.43705 222.108 1.08538 218.167 1.08538C214.039 1.08538 210.849 4.16064 210.849 7.95947C210.849 9.22575 211.224 10.492 211.787 11.7583L252.319 94.6093L251.569 96.0564C246.315 107.453 241.06 112.699 232.053 112.699C227.174 112.699 224.359 111.975 221.545 111.071C220.419 110.709 219.293 110.347 217.979 110.347C214.789 110.347 211.787 112.88 211.787 116.317C211.787 119.573 214.039 121.382 216.291 122.287C221.169 123.915 225.861 125 232.241 125Z"/>
	</g>
</svg>
