<svg
  stroke="black"
  stroke-linecap="round"
  font-size="60"
  viewBox="0 0 1000 1000"
  xmlns="http://www.w3.org/2000/svg"
>
  <rect fill="white" stroke="white" x="0" y="0" width="100%" height="100%"></rect>
  <g fill="tan" stroke-width="5">
    <rect x="250" y="200" width="500" height="800"></rect>
    <rect x="245" y="140" width="520" height="60"></rect>
  </g>
  <g fill="skyblue" stroke-width="5">
    <rect x="290" y="840" width="100" height="80"></rect>
    <rect x="610" y="840" width="100" height="80"></rect>
    <rect x="290" y="720" width="100" height="80"></rect>
    <rect x="450" y="720" width="100" height="80"></rect>
    <rect x="610" y="720" width="100" height="80"></rect>
    <rect x="290" y="600" width="100" height="80"></rect>
    <rect x="450" y="600" width="100" height="80"></rect>
    <rect x="610" y="600" width="100" height="80"></rect>
    <rect x="290" y="480" width="100" height="80"></rect>
    <rect x="450" y="480" width="100" height="80"></rect>
    <rect x="610" y="480" width="100" height="80"></rect>
    <rect x="290" y="360" width="100" height="80"></rect>
    <rect x="450" y="360" width="100" height="80"></rect>
    <rect x="610" y="360" width="100" height="80"></rect>
    <rect x="290" y="240" width="100" height="80"></rect>
    <rect x="450" y="240" width="100" height="80"></rect>
    <rect x="610" y="240" width="100" height="80"></rect>
  </g>
  <g fill="slategrey" stroke-width="5">
    <rect x="430" y="870" width="70" height="130"></rect>
    <rect x="500" y="870" width="70" height="130"></rect>
  </g>
</svg>
