<svg
  stroke="black"
  stroke-linecap="round"
  font-size="60"
  viewBox="0 0 1000 1000"
  xmlns="http://www.w3.org/2000/svg"
>
  <rect fill="white" stroke="white" x="0" y="0" width="100%" height="100%"></rect>
  <rect fill="white" stroke-width="0" x="0" y="950" width="50" height="50"></rect>
  <rect fill="white" x="0" y="900" width="50" height="50"></rect>
  <rect fill="white" stroke-width="2" x="0" y="850" width="50" height="50"></rect>
  <rect fill="white" stroke-width="3" x="0" y="800" width="50" height="50"></rect>
  <rect fill="white" stroke-width="4" x="0" y="750" width="50" height="50"></rect>
  <rect fill="white" stroke-width="5" x="0" y="700" width="50" height="50"></rect>
  <rect fill="white" stroke-width="6" x="0" y="650" width="50" height="50"></rect>
  <rect fill="white" stroke-width="7" x="0" y="600" width="50" height="50"></rect>
  <rect fill="white" stroke-width="8" x="0" y="550" width="50" height="50"></rect>
  <rect fill="white" stroke-width="9" x="0" y="500" width="50" height="50"></rect>
  <rect fill="white" stroke-width="10" x="0" y="450" width="50" height="50"></rect>
  <rect fill="white" stroke-width="11" x="0" y="400" width="50" height="50"></rect>
  <rect fill="white" stroke-width="12" x="0" y="350" width="50" height="50"></rect>
  <rect fill="white" stroke-width="13" x="0" y="300" width="50" height="50"></rect>
  <rect fill="white" stroke-width="14" x="0" y="250" width="50" height="50"></rect>
  <rect fill="white" stroke-width="15" x="0" y="200" width="50" height="50"></rect>
  <rect fill="white" stroke-width="16" x="0" y="150" width="50" height="50"></rect>
  <rect fill="white" stroke-width="17" x="0" y="100" width="50" height="50"></rect>
  <rect fill="white" stroke-width="18" x="0" y="50" width="50" height="50"></rect>
  <rect fill="white" stroke-width="19" x="0" y="0" width="50" height="50"></rect>
  <rect fill="white" x="50" y="950" width="50" height="50"></rect>
  <rect fill="white" stroke-width="2" x="50" y="900" width="50" height="50"></rect>
  <rect fill="white" stroke-width="3" x="50" y="850" width="50" height="50"></rect>
  <rect fill="white" stroke-width="4" x="50" y="800" width="50" height="50"></rect>
  <rect fill="white" stroke-width="5" x="50" y="750" width="50" height="50"></rect>
  <rect fill="white" stroke-width="6" x="50" y="700" width="50" height="50"></rect>
  <rect fill="white" stroke-width="7" x="50" y="650" width="50" height="50"></rect>
  <rect fill="white" stroke-width="8" x="50" y="600" width="50" height="50"></rect>
  <rect fill="white" stroke-width="9" x="50" y="550" width="50" height="50"></rect>
  <rect fill="white" stroke-width="10" x="50" y="500" width="50" height="50"></rect>
  <rect fill="white" stroke-width="11" x="50" y="450" width="50" height="50"></rect>
  <rect fill="white" stroke-width="12" x="50" y="400" width="50" height="50"></rect>
  <rect fill="white" stroke-width="13" x="50" y="350" width="50" height="50"></rect>
  <rect fill="white" stroke-width="14" x="50" y="300" width="50" height="50"></rect>
  <rect fill="white" stroke-width="15" x="50" y="250" width="50" height="50"></rect>
  <rect fill="white" stroke-width="16" x="50" y="200" width="50" height="50"></rect>
  <rect fill="white" stroke-width="17" x="50" y="150" width="50" height="50"></rect>
  <rect fill="white" stroke-width="18" x="50" y="100" width="50" height="50"></rect>
  <rect fill="white" stroke-width="19" x="50" y="50" width="50" height="50"></rect>
  <rect fill="white" stroke-width="20" x="50" y="0" width="50" height="50"></rect>
  <rect fill="white" stroke-width="2" x="100" y="950" width="50" height="50"></rect>
  <rect fill="white" stroke-width="3" x="100" y="900" width="50" height="50"></rect>
  <rect fill="white" stroke-width="4" x="100" y="850" width="50" height="50"></rect>
  <rect fill="white" stroke-width="5" x="100" y="800" width="50" height="50"></rect>
  <rect fill="white" stroke-width="6" x="100" y="750" width="50" height="50"></rect>
  <rect fill="white" stroke-width="7" x="100" y="700" width="50" height="50"></rect>
  <rect fill="white" stroke-width="8" x="100" y="650" width="50" height="50"></rect>
  <rect fill="white" stroke-width="9" x="100" y="600" width="50" height="50"></rect>
  <rect fill="white" stroke-width="10" x="100" y="550" width="50" height="50"></rect>
  <rect fill="white" stroke-width="11" x="100" y="500" width="50" height="50"></rect>
  <rect fill="white" stroke-width="12" x="100" y="450" width="50" height="50"></rect>
  <rect fill="white" stroke-width="13" x="100" y="400" width="50" height="50"></rect>
  <rect fill="white" stroke-width="14" x="100" y="350" width="50" height="50"></rect>
  <rect fill="white" stroke-width="15" x="100" y="300" width="50" height="50"></rect>
  <rect fill="white" stroke-width="16" x="100" y="250" width="50" height="50"></rect>
  <rect fill="white" stroke-width="17" x="100" y="200" width="50" height="50"></rect>
  <rect fill="white" stroke-width="18" x="100" y="150" width="50" height="50"></rect>
  <rect fill="white" stroke-width="19" x="100" y="100" width="50" height="50"></rect>
  <rect fill="white" stroke-width="20" x="100" y="50" width="50" height="50"></rect>
  <rect fill="white" stroke-width="21" x="100" y="0" width="50" height="50"></rect>
  <rect fill="white" stroke-width="3" x="150" y="950" width="50" height="50"></rect>
  <rect fill="white" stroke-width="4" x="150" y="900" width="50" height="50"></rect>
  <rect fill="white" stroke-width="5" x="150" y="850" width="50" height="50"></rect>
  <rect fill="white" stroke-width="6" x="150" y="800" width="50" height="50"></rect>
  <rect fill="white" stroke-width="7" x="150" y="750" width="50" height="50"></rect>
  <rect fill="white" stroke-width="8" x="150" y="700" width="50" height="50"></rect>
  <rect fill="white" stroke-width="9" x="150" y="650" width="50" height="50"></rect>
  <rect fill="white" stroke-width="10" x="150" y="600" width="50" height="50"></rect>
  <rect fill="white" stroke-width="11" x="150" y="550" width="50" height="50"></rect>
  <rect fill="white" stroke-width="12" x="150" y="500" width="50" height="50"></rect>
  <rect fill="white" stroke-width="13" x="150" y="450" width="50" height="50"></rect>
  <rect fill="white" stroke-width="14" x="150" y="400" width="50" height="50"></rect>
  <rect fill="white" stroke-width="15" x="150" y="350" width="50" height="50"></rect>
  <rect fill="white" stroke-width="16" x="150" y="300" width="50" height="50"></rect>
  <rect fill="white" stroke-width="17" x="150" y="250" width="50" height="50"></rect>
  <rect fill="white" stroke-width="18" x="150" y="200" width="50" height="50"></rect>
  <rect fill="white" stroke-width="19" x="150" y="150" width="50" height="50"></rect>
  <rect fill="white" stroke-width="20" x="150" y="100" width="50" height="50"></rect>
  <rect fill="white" stroke-width="21" x="150" y="50" width="50" height="50"></rect>
  <rect fill="white" stroke-width="22" x="150" y="0" width="50" height="50"></rect>
  <rect fill="white" stroke-width="4" x="200" y="950" width="50" height="50"></rect>
  <rect fill="white" stroke-width="5" x="200" y="900" width="50" height="50"></rect>
  <rect fill="white" stroke-width="6" x="200" y="850" width="50" height="50"></rect>
  <rect fill="white" stroke-width="7" x="200" y="800" width="50" height="50"></rect>
  <rect fill="white" stroke-width="8" x="200" y="750" width="50" height="50"></rect>
  <rect fill="white" stroke-width="9" x="200" y="700" width="50" height="50"></rect>
  <rect fill="white" stroke-width="10" x="200" y="650" width="50" height="50"></rect>
  <rect fill="white" stroke-width="11" x="200" y="600" width="50" height="50"></rect>
  <rect fill="white" stroke-width="12" x="200" y="550" width="50" height="50"></rect>
  <rect fill="white" stroke-width="13" x="200" y="500" width="50" height="50"></rect>
  <rect fill="white" stroke-width="14" x="200" y="450" width="50" height="50"></rect>
  <rect fill="white" stroke-width="15" x="200" y="400" width="50" height="50"></rect>
  <rect fill="white" stroke-width="16" x="200" y="350" width="50" height="50"></rect>
  <rect fill="white" stroke-width="17" x="200" y="300" width="50" height="50"></rect>
  <rect fill="white" stroke-width="18" x="200" y="250" width="50" height="50"></rect>
  <rect fill="white" stroke-width="19" x="200" y="200" width="50" height="50"></rect>
  <rect fill="white" stroke-width="20" x="200" y="150" width="50" height="50"></rect>
  <rect fill="white" stroke-width="21" x="200" y="100" width="50" height="50"></rect>
  <rect fill="white" stroke-width="22" x="200" y="50" width="50" height="50"></rect>
  <rect fill="white" stroke-width="23" x="200" y="0" width="50" height="50"></rect>
  <rect fill="white" stroke-width="5" x="250" y="950" width="50" height="50"></rect>
  <rect fill="white" stroke-width="6" x="250" y="900" width="50" height="50"></rect>
  <rect fill="white" stroke-width="7" x="250" y="850" width="50" height="50"></rect>
  <rect fill="white" stroke-width="8" x="250" y="800" width="50" height="50"></rect>
  <rect fill="white" stroke-width="9" x="250" y="750" width="50" height="50"></rect>
  <rect fill="white" stroke-width="10" x="250" y="700" width="50" height="50"></rect>
  <rect fill="white" stroke-width="11" x="250" y="650" width="50" height="50"></rect>
  <rect fill="white" stroke-width="12" x="250" y="600" width="50" height="50"></rect>
  <rect fill="white" stroke-width="13" x="250" y="550" width="50" height="50"></rect>
  <rect fill="white" stroke-width="14" x="250" y="500" width="50" height="50"></rect>
  <rect fill="white" stroke-width="15" x="250" y="450" width="50" height="50"></rect>
  <rect fill="white" stroke-width="16" x="250" y="400" width="50" height="50"></rect>
  <rect fill="white" stroke-width="17" x="250" y="350" width="50" height="50"></rect>
  <rect fill="white" stroke-width="18" x="250" y="300" width="50" height="50"></rect>
  <rect fill="white" stroke-width="19" x="250" y="250" width="50" height="50"></rect>
  <rect fill="white" stroke-width="20" x="250" y="200" width="50" height="50"></rect>
  <rect fill="white" stroke-width="21" x="250" y="150" width="50" height="50"></rect>
  <rect fill="white" stroke-width="22" x="250" y="100" width="50" height="50"></rect>
  <rect fill="white" stroke-width="23" x="250" y="50" width="50" height="50"></rect>
  <rect fill="white" stroke-width="24" x="250" y="0" width="50" height="50"></rect>
  <rect fill="white" stroke-width="6" x="300" y="950" width="50" height="50"></rect>
  <rect fill="white" stroke-width="7" x="300" y="900" width="50" height="50"></rect>
  <rect fill="white" stroke-width="8" x="300" y="850" width="50" height="50"></rect>
  <rect fill="white" stroke-width="9" x="300" y="800" width="50" height="50"></rect>
  <rect fill="white" stroke-width="10" x="300" y="750" width="50" height="50"></rect>
  <rect fill="white" stroke-width="11" x="300" y="700" width="50" height="50"></rect>
  <rect fill="white" stroke-width="12" x="300" y="650" width="50" height="50"></rect>
  <rect fill="white" stroke-width="13" x="300" y="600" width="50" height="50"></rect>
  <rect fill="white" stroke-width="14" x="300" y="550" width="50" height="50"></rect>
  <rect fill="white" stroke-width="15" x="300" y="500" width="50" height="50"></rect>
  <rect fill="white" stroke-width="16" x="300" y="450" width="50" height="50"></rect>
  <rect fill="white" stroke-width="17" x="300" y="400" width="50" height="50"></rect>
  <rect fill="white" stroke-width="18" x="300" y="350" width="50" height="50"></rect>
  <rect fill="white" stroke-width="19" x="300" y="300" width="50" height="50"></rect>
  <rect fill="white" stroke-width="20" x="300" y="250" width="50" height="50"></rect>
  <rect fill="white" stroke-width="21" x="300" y="200" width="50" height="50"></rect>
  <rect fill="white" stroke-width="22" x="300" y="150" width="50" height="50"></rect>
  <rect fill="white" stroke-width="23" x="300" y="100" width="50" height="50"></rect>
  <rect fill="white" stroke-width="24" x="300" y="50" width="50" height="50"></rect>
  <rect fill="white" stroke-width="25" x="300" y="0" width="50" height="50"></rect>
  <rect fill="white" stroke-width="7" x="350" y="950" width="50" height="50"></rect>
  <rect fill="white" stroke-width="8" x="350" y="900" width="50" height="50"></rect>
  <rect fill="white" stroke-width="9" x="350" y="850" width="50" height="50"></rect>
  <rect fill="white" stroke-width="10" x="350" y="800" width="50" height="50"></rect>
  <rect fill="white" stroke-width="11" x="350" y="750" width="50" height="50"></rect>
  <rect fill="white" stroke-width="12" x="350" y="700" width="50" height="50"></rect>
  <rect fill="white" stroke-width="13" x="350" y="650" width="50" height="50"></rect>
  <rect fill="white" stroke-width="14" x="350" y="600" width="50" height="50"></rect>
  <rect fill="white" stroke-width="15" x="350" y="550" width="50" height="50"></rect>
  <rect fill="white" stroke-width="16" x="350" y="500" width="50" height="50"></rect>
  <rect fill="white" stroke-width="17" x="350" y="450" width="50" height="50"></rect>
  <rect fill="white" stroke-width="18" x="350" y="400" width="50" height="50"></rect>
  <rect fill="white" stroke-width="19" x="350" y="350" width="50" height="50"></rect>
  <rect fill="white" stroke-width="20" x="350" y="300" width="50" height="50"></rect>
  <rect fill="white" stroke-width="21" x="350" y="250" width="50" height="50"></rect>
  <rect fill="white" stroke-width="22" x="350" y="200" width="50" height="50"></rect>
  <rect fill="white" stroke-width="23" x="350" y="150" width="50" height="50"></rect>
  <rect fill="white" stroke-width="24" x="350" y="100" width="50" height="50"></rect>
  <rect fill="white" stroke-width="25" x="350" y="50" width="50" height="50"></rect>
  <rect fill="white" stroke-width="26" x="350" y="0" width="50" height="50"></rect>
  <rect fill="white" stroke-width="8" x="400" y="950" width="50" height="50"></rect>
  <rect fill="white" stroke-width="9" x="400" y="900" width="50" height="50"></rect>
  <rect fill="white" stroke-width="10" x="400" y="850" width="50" height="50"></rect>
  <rect fill="white" stroke-width="11" x="400" y="800" width="50" height="50"></rect>
  <rect fill="white" stroke-width="12" x="400" y="750" width="50" height="50"></rect>
  <rect fill="white" stroke-width="13" x="400" y="700" width="50" height="50"></rect>
  <rect fill="white" stroke-width="14" x="400" y="650" width="50" height="50"></rect>
  <rect fill="white" stroke-width="15" x="400" y="600" width="50" height="50"></rect>
  <rect fill="white" stroke-width="16" x="400" y="550" width="50" height="50"></rect>
  <rect fill="white" stroke-width="17" x="400" y="500" width="50" height="50"></rect>
  <rect fill="white" stroke-width="18" x="400" y="450" width="50" height="50"></rect>
  <rect fill="white" stroke-width="19" x="400" y="400" width="50" height="50"></rect>
  <rect fill="white" stroke-width="20" x="400" y="350" width="50" height="50"></rect>
  <rect fill="white" stroke-width="21" x="400" y="300" width="50" height="50"></rect>
  <rect fill="white" stroke-width="22" x="400" y="250" width="50" height="50"></rect>
  <rect fill="white" stroke-width="23" x="400" y="200" width="50" height="50"></rect>
  <rect fill="white" stroke-width="24" x="400" y="150" width="50" height="50"></rect>
  <rect fill="white" stroke-width="25" x="400" y="100" width="50" height="50"></rect>
  <rect fill="white" stroke-width="26" x="400" y="50" width="50" height="50"></rect>
  <rect fill="white" stroke-width="27" x="400" y="0" width="50" height="50"></rect>
  <rect fill="white" stroke-width="9" x="450" y="950" width="50" height="50"></rect>
  <rect fill="white" stroke-width="10" x="450" y="900" width="50" height="50"></rect>
  <rect fill="white" stroke-width="11" x="450" y="850" width="50" height="50"></rect>
  <rect fill="white" stroke-width="12" x="450" y="800" width="50" height="50"></rect>
  <rect fill="white" stroke-width="13" x="450" y="750" width="50" height="50"></rect>
  <rect fill="white" stroke-width="14" x="450" y="700" width="50" height="50"></rect>
  <rect fill="white" stroke-width="15" x="450" y="650" width="50" height="50"></rect>
  <rect fill="white" stroke-width="16" x="450" y="600" width="50" height="50"></rect>
  <rect fill="white" stroke-width="17" x="450" y="550" width="50" height="50"></rect>
  <rect fill="white" stroke-width="18" x="450" y="500" width="50" height="50"></rect>
  <rect fill="white" stroke-width="19" x="450" y="450" width="50" height="50"></rect>
  <rect fill="white" stroke-width="20" x="450" y="400" width="50" height="50"></rect>
  <rect fill="white" stroke-width="21" x="450" y="350" width="50" height="50"></rect>
  <rect fill="white" stroke-width="22" x="450" y="300" width="50" height="50"></rect>
  <rect fill="white" stroke-width="23" x="450" y="250" width="50" height="50"></rect>
  <rect fill="white" stroke-width="24" x="450" y="200" width="50" height="50"></rect>
  <rect fill="white" stroke-width="25" x="450" y="150" width="50" height="50"></rect>
  <rect fill="white" stroke-width="26" x="450" y="100" width="50" height="50"></rect>
  <rect fill="white" stroke-width="27" x="450" y="50" width="50" height="50"></rect>
  <rect fill="white" stroke-width="28" x="450" y="0" width="50" height="50"></rect>
  <rect fill="white" stroke-width="10" x="500" y="950" width="50" height="50"></rect>
  <rect fill="white" stroke-width="11" x="500" y="900" width="50" height="50"></rect>
  <rect fill="white" stroke-width="12" x="500" y="850" width="50" height="50"></rect>
  <rect fill="white" stroke-width="13" x="500" y="800" width="50" height="50"></rect>
  <rect fill="white" stroke-width="14" x="500" y="750" width="50" height="50"></rect>
  <rect fill="white" stroke-width="15" x="500" y="700" width="50" height="50"></rect>
  <rect fill="white" stroke-width="16" x="500" y="650" width="50" height="50"></rect>
  <rect fill="white" stroke-width="17" x="500" y="600" width="50" height="50"></rect>
  <rect fill="white" stroke-width="18" x="500" y="550" width="50" height="50"></rect>
  <rect fill="white" stroke-width="19" x="500" y="500" width="50" height="50"></rect>
  <rect fill="white" stroke-width="20" x="500" y="450" width="50" height="50"></rect>
  <rect fill="white" stroke-width="21" x="500" y="400" width="50" height="50"></rect>
  <rect fill="white" stroke-width="22" x="500" y="350" width="50" height="50"></rect>
  <rect fill="white" stroke-width="23" x="500" y="300" width="50" height="50"></rect>
  <rect fill="white" stroke-width="24" x="500" y="250" width="50" height="50"></rect>
  <rect fill="white" stroke-width="25" x="500" y="200" width="50" height="50"></rect>
  <rect fill="white" stroke-width="26" x="500" y="150" width="50" height="50"></rect>
  <rect fill="white" stroke-width="27" x="500" y="100" width="50" height="50"></rect>
  <rect fill="white" stroke-width="28" x="500" y="50" width="50" height="50"></rect>
  <rect fill="white" stroke-width="29" x="500" y="0" width="50" height="50"></rect>
  <rect fill="white" stroke-width="11" x="550" y="950" width="50" height="50"></rect>
  <rect fill="white" stroke-width="12" x="550" y="900" width="50" height="50"></rect>
  <rect fill="white" stroke-width="13" x="550" y="850" width="50" height="50"></rect>
  <rect fill="white" stroke-width="14" x="550" y="800" width="50" height="50"></rect>
  <rect fill="white" stroke-width="15" x="550" y="750" width="50" height="50"></rect>
  <rect fill="white" stroke-width="16" x="550" y="700" width="50" height="50"></rect>
  <rect fill="white" stroke-width="17" x="550" y="650" width="50" height="50"></rect>
  <rect fill="white" stroke-width="18" x="550" y="600" width="50" height="50"></rect>
  <rect fill="white" stroke-width="19" x="550" y="550" width="50" height="50"></rect>
  <rect fill="white" stroke-width="20" x="550" y="500" width="50" height="50"></rect>
  <rect fill="white" stroke-width="21" x="550" y="450" width="50" height="50"></rect>
  <rect fill="white" stroke-width="22" x="550" y="400" width="50" height="50"></rect>
  <rect fill="white" stroke-width="23" x="550" y="350" width="50" height="50"></rect>
  <rect fill="white" stroke-width="24" x="550" y="300" width="50" height="50"></rect>
  <rect fill="white" stroke-width="25" x="550" y="250" width="50" height="50"></rect>
  <rect fill="white" stroke-width="26" x="550" y="200" width="50" height="50"></rect>
  <rect fill="white" stroke-width="27" x="550" y="150" width="50" height="50"></rect>
  <rect fill="white" stroke-width="28" x="550" y="100" width="50" height="50"></rect>
  <rect fill="white" stroke-width="29" x="550" y="50" width="50" height="50"></rect>
  <rect fill="white" stroke-width="30" x="550" y="0" width="50" height="50"></rect>
  <rect fill="white" stroke-width="12" x="600" y="950" width="50" height="50"></rect>
  <rect fill="white" stroke-width="13" x="600" y="900" width="50" height="50"></rect>
  <rect fill="white" stroke-width="14" x="600" y="850" width="50" height="50"></rect>
  <rect fill="white" stroke-width="15" x="600" y="800" width="50" height="50"></rect>
  <rect fill="white" stroke-width="16" x="600" y="750" width="50" height="50"></rect>
  <rect fill="white" stroke-width="17" x="600" y="700" width="50" height="50"></rect>
  <rect fill="white" stroke-width="18" x="600" y="650" width="50" height="50"></rect>
  <rect fill="white" stroke-width="19" x="600" y="600" width="50" height="50"></rect>
  <rect fill="white" stroke-width="20" x="600" y="550" width="50" height="50"></rect>
  <rect fill="white" stroke-width="21" x="600" y="500" width="50" height="50"></rect>
  <rect fill="white" stroke-width="22" x="600" y="450" width="50" height="50"></rect>
  <rect fill="white" stroke-width="23" x="600" y="400" width="50" height="50"></rect>
  <rect fill="white" stroke-width="24" x="600" y="350" width="50" height="50"></rect>
  <rect fill="white" stroke-width="25" x="600" y="300" width="50" height="50"></rect>
  <rect fill="white" stroke-width="26" x="600" y="250" width="50" height="50"></rect>
  <rect fill="white" stroke-width="27" x="600" y="200" width="50" height="50"></rect>
  <rect fill="white" stroke-width="28" x="600" y="150" width="50" height="50"></rect>
  <rect fill="white" stroke-width="29" x="600" y="100" width="50" height="50"></rect>
  <rect fill="white" stroke-width="30" x="600" y="50" width="50" height="50"></rect>
  <rect fill="white" stroke-width="31" x="600" y="0" width="50" height="50"></rect>
  <rect fill="white" stroke-width="13" x="650" y="950" width="50" height="50"></rect>
  <rect fill="white" stroke-width="14" x="650" y="900" width="50" height="50"></rect>
  <rect fill="white" stroke-width="15" x="650" y="850" width="50" height="50"></rect>
  <rect fill="white" stroke-width="16" x="650" y="800" width="50" height="50"></rect>
  <rect fill="white" stroke-width="17" x="650" y="750" width="50" height="50"></rect>
  <rect fill="white" stroke-width="18" x="650" y="700" width="50" height="50"></rect>
  <rect fill="white" stroke-width="19" x="650" y="650" width="50" height="50"></rect>
  <rect fill="white" stroke-width="20" x="650" y="600" width="50" height="50"></rect>
  <rect fill="white" stroke-width="21" x="650" y="550" width="50" height="50"></rect>
  <rect fill="white" stroke-width="22" x="650" y="500" width="50" height="50"></rect>
  <rect fill="white" stroke-width="23" x="650" y="450" width="50" height="50"></rect>
  <rect fill="white" stroke-width="24" x="650" y="400" width="50" height="50"></rect>
  <rect fill="white" stroke-width="25" x="650" y="350" width="50" height="50"></rect>
  <rect fill="white" stroke-width="26" x="650" y="300" width="50" height="50"></rect>
  <rect fill="white" stroke-width="27" x="650" y="250" width="50" height="50"></rect>
  <rect fill="white" stroke-width="28" x="650" y="200" width="50" height="50"></rect>
  <rect fill="white" stroke-width="29" x="650" y="150" width="50" height="50"></rect>
  <rect fill="white" stroke-width="30" x="650" y="100" width="50" height="50"></rect>
  <rect fill="white" stroke-width="31" x="650" y="50" width="50" height="50"></rect>
  <rect fill="white" stroke-width="32" x="650" y="0" width="50" height="50"></rect>
  <rect fill="white" stroke-width="14" x="700" y="950" width="50" height="50"></rect>
  <rect fill="white" stroke-width="15" x="700" y="900" width="50" height="50"></rect>
  <rect fill="white" stroke-width="16" x="700" y="850" width="50" height="50"></rect>
  <rect fill="white" stroke-width="17" x="700" y="800" width="50" height="50"></rect>
  <rect fill="white" stroke-width="18" x="700" y="750" width="50" height="50"></rect>
  <rect fill="white" stroke-width="19" x="700" y="700" width="50" height="50"></rect>
  <rect fill="white" stroke-width="20" x="700" y="650" width="50" height="50"></rect>
  <rect fill="white" stroke-width="21" x="700" y="600" width="50" height="50"></rect>
  <rect fill="white" stroke-width="22" x="700" y="550" width="50" height="50"></rect>
  <rect fill="white" stroke-width="23" x="700" y="500" width="50" height="50"></rect>
  <rect fill="white" stroke-width="24" x="700" y="450" width="50" height="50"></rect>
  <rect fill="white" stroke-width="25" x="700" y="400" width="50" height="50"></rect>
  <rect fill="white" stroke-width="26" x="700" y="350" width="50" height="50"></rect>
  <rect fill="white" stroke-width="27" x="700" y="300" width="50" height="50"></rect>
  <rect fill="white" stroke-width="28" x="700" y="250" width="50" height="50"></rect>
  <rect fill="white" stroke-width="29" x="700" y="200" width="50" height="50"></rect>
  <rect fill="white" stroke-width="30" x="700" y="150" width="50" height="50"></rect>
  <rect fill="white" stroke-width="31" x="700" y="100" width="50" height="50"></rect>
  <rect fill="white" stroke-width="32" x="700" y="50" width="50" height="50"></rect>
  <rect fill="white" stroke-width="33" x="700" y="0" width="50" height="50"></rect>
  <rect fill="white" stroke-width="15" x="750" y="950" width="50" height="50"></rect>
  <rect fill="white" stroke-width="16" x="750" y="900" width="50" height="50"></rect>
  <rect fill="white" stroke-width="17" x="750" y="850" width="50" height="50"></rect>
  <rect fill="white" stroke-width="18" x="750" y="800" width="50" height="50"></rect>
  <rect fill="white" stroke-width="19" x="750" y="750" width="50" height="50"></rect>
  <rect fill="white" stroke-width="20" x="750" y="700" width="50" height="50"></rect>
  <rect fill="white" stroke-width="21" x="750" y="650" width="50" height="50"></rect>
  <rect fill="white" stroke-width="22" x="750" y="600" width="50" height="50"></rect>
  <rect fill="white" stroke-width="23" x="750" y="550" width="50" height="50"></rect>
  <rect fill="white" stroke-width="24" x="750" y="500" width="50" height="50"></rect>
  <rect fill="white" stroke-width="25" x="750" y="450" width="50" height="50"></rect>
  <rect fill="white" stroke-width="26" x="750" y="400" width="50" height="50"></rect>
  <rect fill="white" stroke-width="27" x="750" y="350" width="50" height="50"></rect>
  <rect fill="white" stroke-width="28" x="750" y="300" width="50" height="50"></rect>
  <rect fill="white" stroke-width="29" x="750" y="250" width="50" height="50"></rect>
  <rect fill="white" stroke-width="30" x="750" y="200" width="50" height="50"></rect>
  <rect fill="white" stroke-width="31" x="750" y="150" width="50" height="50"></rect>
  <rect fill="white" stroke-width="32" x="750" y="100" width="50" height="50"></rect>
  <rect fill="white" stroke-width="33" x="750" y="50" width="50" height="50"></rect>
  <rect fill="white" stroke-width="34" x="750" y="0" width="50" height="50"></rect>
  <rect fill="white" stroke-width="16" x="800" y="950" width="50" height="50"></rect>
  <rect fill="white" stroke-width="17" x="800" y="900" width="50" height="50"></rect>
  <rect fill="white" stroke-width="18" x="800" y="850" width="50" height="50"></rect>
  <rect fill="white" stroke-width="19" x="800" y="800" width="50" height="50"></rect>
  <rect fill="white" stroke-width="20" x="800" y="750" width="50" height="50"></rect>
  <rect fill="white" stroke-width="21" x="800" y="700" width="50" height="50"></rect>
  <rect fill="white" stroke-width="22" x="800" y="650" width="50" height="50"></rect>
  <rect fill="white" stroke-width="23" x="800" y="600" width="50" height="50"></rect>
  <rect fill="white" stroke-width="24" x="800" y="550" width="50" height="50"></rect>
  <rect fill="white" stroke-width="25" x="800" y="500" width="50" height="50"></rect>
  <rect fill="white" stroke-width="26" x="800" y="450" width="50" height="50"></rect>
  <rect fill="white" stroke-width="27" x="800" y="400" width="50" height="50"></rect>
  <rect fill="white" stroke-width="28" x="800" y="350" width="50" height="50"></rect>
  <rect fill="white" stroke-width="29" x="800" y="300" width="50" height="50"></rect>
  <rect fill="white" stroke-width="30" x="800" y="250" width="50" height="50"></rect>
  <rect fill="white" stroke-width="31" x="800" y="200" width="50" height="50"></rect>
  <rect fill="white" stroke-width="32" x="800" y="150" width="50" height="50"></rect>
  <rect fill="white" stroke-width="33" x="800" y="100" width="50" height="50"></rect>
  <rect fill="white" stroke-width="34" x="800" y="50" width="50" height="50"></rect>
  <rect fill="white" stroke-width="35" x="800" y="0" width="50" height="50"></rect>
  <rect fill="white" stroke-width="17" x="850" y="950" width="50" height="50"></rect>
  <rect fill="white" stroke-width="18" x="850" y="900" width="50" height="50"></rect>
  <rect fill="white" stroke-width="19" x="850" y="850" width="50" height="50"></rect>
  <rect fill="white" stroke-width="20" x="850" y="800" width="50" height="50"></rect>
  <rect fill="white" stroke-width="21" x="850" y="750" width="50" height="50"></rect>
  <rect fill="white" stroke-width="22" x="850" y="700" width="50" height="50"></rect>
  <rect fill="white" stroke-width="23" x="850" y="650" width="50" height="50"></rect>
  <rect fill="white" stroke-width="24" x="850" y="600" width="50" height="50"></rect>
  <rect fill="white" stroke-width="25" x="850" y="550" width="50" height="50"></rect>
  <rect fill="white" stroke-width="26" x="850" y="500" width="50" height="50"></rect>
  <rect fill="white" stroke-width="27" x="850" y="450" width="50" height="50"></rect>
  <rect fill="white" stroke-width="28" x="850" y="400" width="50" height="50"></rect>
  <rect fill="white" stroke-width="29" x="850" y="350" width="50" height="50"></rect>
  <rect fill="white" stroke-width="30" x="850" y="300" width="50" height="50"></rect>
  <rect fill="white" stroke-width="31" x="850" y="250" width="50" height="50"></rect>
  <rect fill="white" stroke-width="32" x="850" y="200" width="50" height="50"></rect>
  <rect fill="white" stroke-width="33" x="850" y="150" width="50" height="50"></rect>
  <rect fill="white" stroke-width="34" x="850" y="100" width="50" height="50"></rect>
  <rect fill="white" stroke-width="35" x="850" y="50" width="50" height="50"></rect>
  <rect fill="white" stroke-width="36" x="850" y="0" width="50" height="50"></rect>
  <rect fill="white" stroke-width="18" x="900" y="950" width="50" height="50"></rect>
  <rect fill="white" stroke-width="19" x="900" y="900" width="50" height="50"></rect>
  <rect fill="white" stroke-width="20" x="900" y="850" width="50" height="50"></rect>
  <rect fill="white" stroke-width="21" x="900" y="800" width="50" height="50"></rect>
  <rect fill="white" stroke-width="22" x="900" y="750" width="50" height="50"></rect>
  <rect fill="white" stroke-width="23" x="900" y="700" width="50" height="50"></rect>
  <rect fill="white" stroke-width="24" x="900" y="650" width="50" height="50"></rect>
  <rect fill="white" stroke-width="25" x="900" y="600" width="50" height="50"></rect>
  <rect fill="white" stroke-width="26" x="900" y="550" width="50" height="50"></rect>
  <rect fill="white" stroke-width="27" x="900" y="500" width="50" height="50"></rect>
  <rect fill="white" stroke-width="28" x="900" y="450" width="50" height="50"></rect>
  <rect fill="white" stroke-width="29" x="900" y="400" width="50" height="50"></rect>
  <rect fill="white" stroke-width="30" x="900" y="350" width="50" height="50"></rect>
  <rect fill="white" stroke-width="31" x="900" y="300" width="50" height="50"></rect>
  <rect fill="white" stroke-width="32" x="900" y="250" width="50" height="50"></rect>
  <rect fill="white" stroke-width="33" x="900" y="200" width="50" height="50"></rect>
  <rect fill="white" stroke-width="34" x="900" y="150" width="50" height="50"></rect>
  <rect fill="white" stroke-width="35" x="900" y="100" width="50" height="50"></rect>
  <rect fill="white" stroke-width="36" x="900" y="50" width="50" height="50"></rect>
  <rect fill="white" stroke-width="37" x="900" y="0" width="50" height="50"></rect>
  <rect fill="white" stroke-width="19" x="950" y="950" width="50" height="50"></rect>
  <rect fill="white" stroke-width="20" x="950" y="900" width="50" height="50"></rect>
  <rect fill="white" stroke-width="21" x="950" y="850" width="50" height="50"></rect>
  <rect fill="white" stroke-width="22" x="950" y="800" width="50" height="50"></rect>
  <rect fill="white" stroke-width="23" x="950" y="750" width="50" height="50"></rect>
  <rect fill="white" stroke-width="24" x="950" y="700" width="50" height="50"></rect>
  <rect fill="white" stroke-width="25" x="950" y="650" width="50" height="50"></rect>
  <rect fill="white" stroke-width="26" x="950" y="600" width="50" height="50"></rect>
  <rect fill="white" stroke-width="27" x="950" y="550" width="50" height="50"></rect>
  <rect fill="white" stroke-width="28" x="950" y="500" width="50" height="50"></rect>
  <rect fill="white" stroke-width="29" x="950" y="450" width="50" height="50"></rect>
  <rect fill="white" stroke-width="30" x="950" y="400" width="50" height="50"></rect>
  <rect fill="white" stroke-width="31" x="950" y="350" width="50" height="50"></rect>
  <rect fill="white" stroke-width="32" x="950" y="300" width="50" height="50"></rect>
  <rect fill="white" stroke-width="33" x="950" y="250" width="50" height="50"></rect>
  <rect fill="white" stroke-width="34" x="950" y="200" width="50" height="50"></rect>
  <rect fill="white" stroke-width="35" x="950" y="150" width="50" height="50"></rect>
  <rect fill="white" stroke-width="36" x="950" y="100" width="50" height="50"></rect>
  <rect fill="white" stroke-width="37" x="950" y="50" width="50" height="50"></rect>
  <rect fill="white" stroke-width="38" x="950" y="0" width="50" height="50"></rect>
</svg>
