<svg
  stroke="black"
  stroke-linecap="round"
  font-size="60"
  viewBox="0 0 1000 1000"
  xmlns="http://www.w3.org/2000/svg"
>
  <rect fill="white" stroke="white" x="0" y="0" width="100%" height="100%"></rect>
  <g fill="hsl(90deg 100% 20% / 30%)" stroke="hsl(90deg 100% 20% / 30%)">
    <rect x="0" y="590" width="10" height="410"></rect>
    <rect x="1" y="530" width="10" height="470"></rect>
    <rect x="2" y="430" width="10" height="570"></rect>
    <rect x="3.0000000000000004" y="810" width="10" height="190"></rect>
    <rect x="4" y="590" width="10" height="410"></rect>
    <rect x="5" y="720" width="10" height="280"></rect>
    <rect x="6" y="650" width="10" height="350"></rect>
    <rect x="7" y="500" width="10" height="500"></rect>
    <rect x="7.999999999999999" y="840" width="10" height="160"></rect>
    <rect x="9" y="900" width="10" height="100"></rect>
    <rect x="9.999999999999998" y="460" width="10" height="540"></rect>
    <rect x="10.999999999999998" y="790" width="10" height="210"></rect>
    <rect x="12" y="780" width="10" height="220"></rect>
    <rect x="13" y="510" width="10" height="490"></rect>
    <rect x="14.000000000000002" y="620" width="10" height="380"></rect>
    <rect x="15.000000000000002" y="660" width="10" height="340"></rect>
    <rect x="16.000000000000004" y="790" width="10" height="210"></rect>
    <rect x="17.000000000000004" y="450" width="10" height="550"></rect>
    <rect x="18.000000000000004" y="530" width="10" height="470"></rect>
    <rect x="19.000000000000007" y="840" width="10" height="160"></rect>
    <rect x="20.000000000000004" y="450" width="10" height="550"></rect>
    <rect x="21.000000000000007" y="740" width="10" height="260"></rect>
    <rect x="22.000000000000007" y="620" width="10" height="380"></rect>
    <rect x="23.000000000000007" y="820" width="10" height="180"></rect>
    <rect x="24.000000000000007" y="430" width="10" height="570"></rect>
    <rect x="25.000000000000007" y="430" width="10" height="570"></rect>
    <rect x="26.00000000000001" y="530" width="10" height="470"></rect>
    <rect x="27.00000000000001" y="520" width="10" height="480"></rect>
    <rect x="28.00000000000001" y="500" width="10" height="500"></rect>
    <rect x="29.000000000000014" y="750" width="10" height="250"></rect>
    <rect x="30.000000000000014" y="490" width="10" height="510"></rect>
    <rect x="31.000000000000014" y="820" width="10" height="180"></rect>
    <rect x="32.000000000000014" y="530" width="10" height="470"></rect>
    <rect x="33.000000000000014" y="590" width="10" height="410"></rect>
    <rect x="34.000000000000014" y="610" width="10" height="390"></rect>
    <rect x="35.000000000000014" y="840" width="10" height="160"></rect>
    <rect x="36.00000000000002" y="530" width="10" height="470"></rect>
    <rect x="37.00000000000002" y="590" width="10" height="410"></rect>
    <rect x="38.00000000000002" y="550" width="10" height="450"></rect>
    <rect x="39.00000000000002" y="640" width="10" height="360"></rect>
    <rect x="40.000000000000014" y="770" width="10" height="230"></rect>
    <rect x="41.000000000000014" y="500" width="10" height="500"></rect>
    <rect x="42.000000000000014" y="460" width="10" height="540"></rect>
    <rect x="43.00000000000001" y="770" width="10" height="230"></rect>
    <rect x="44" y="570" width="10" height="430"></rect>
    <rect x="45" y="430" width="10" height="570"></rect>
    <rect x="46" y="620" width="10" height="380"></rect>
    <rect x="46.99999999999999" y="660" width="10" height="340"></rect>
    <rect x="47.999999999999986" y="810" width="10" height="190"></rect>
    <rect x="48.999999999999986" y="870" width="10" height="130"></rect>
    <rect x="49.999999999999986" y="830" width="10" height="170"></rect>
    <rect x="50.99999999999998" y="690" width="10" height="310"></rect>
    <rect x="51.99999999999997" y="510" width="10" height="490"></rect>
    <rect x="52.99999999999997" y="410" width="10" height="590"></rect>
    <rect x="53.99999999999997" y="900" width="10" height="100"></rect>
    <rect x="54.999999999999964" y="850" width="10" height="150"></rect>
    <rect x="55.99999999999996" y="520" width="10" height="480"></rect>
    <rect x="56.99999999999996" y="520" width="10" height="480"></rect>
    <rect x="57.99999999999996" y="870" width="10" height="130"></rect>
    <rect x="58.99999999999995" y="850" width="10" height="150"></rect>
    <rect x="59.99999999999994" y="890" width="10" height="110"></rect>
    <rect x="60.99999999999994" y="800" width="10" height="200"></rect>
    <rect x="61.99999999999994" y="850" width="10" height="150"></rect>
    <rect x="62.999999999999936" y="840" width="10" height="160"></rect>
    <rect x="63.99999999999993" y="740" width="10" height="260"></rect>
    <rect x="64.99999999999993" y="620" width="10" height="380"></rect>
    <rect x="65.99999999999993" y="790" width="10" height="210"></rect>
    <rect x="66.99999999999991" y="880" width="10" height="120"></rect>
    <rect x="67.99999999999991" y="570" width="10" height="430"></rect>
    <rect x="68.99999999999991" y="440" width="10" height="560"></rect>
    <rect x="69.99999999999991" y="770" width="10" height="230"></rect>
    <rect x="70.99999999999991" y="640" width="10" height="360"></rect>
    <rect x="71.9999999999999" y="880" width="10" height="120"></rect>
    <rect x="72.9999999999999" y="720" width="10" height="280"></rect>
    <rect x="73.9999999999999" y="430" width="10" height="570"></rect>
    <rect x="74.99999999999989" y="460" width="10" height="540"></rect>
    <rect x="75.99999999999989" y="630" width="10" height="370"></rect>
    <rect x="76.99999999999989" y="770" width="10" height="230"></rect>
    <rect x="77.99999999999989" y="440" width="10" height="560"></rect>
    <rect x="78.99999999999989" y="700" width="10" height="300"></rect>
    <rect x="79.99999999999987" y="670" width="10" height="330"></rect>
    <rect x="80.99999999999987" y="870" width="10" height="130"></rect>
    <rect x="81.99999999999987" y="530" width="10" height="470"></rect>
    <rect x="82.99999999999986" y="570" width="10" height="430"></rect>
    <rect x="83.99999999999986" y="490" width="10" height="510"></rect>
    <rect x="84.99999999999986" y="810" width="10" height="190"></rect>
    <rect x="85.99999999999986" y="570" width="10" height="430"></rect>
    <rect x="86.99999999999986" y="470" width="10" height="530"></rect>
    <rect x="87.99999999999984" y="490" width="10" height="510"></rect>
    <rect x="88.99999999999984" y="880" width="10" height="120"></rect>
    <rect x="89.99999999999984" y="620" width="10" height="380"></rect>
    <rect x="90.99999999999983" y="540" width="10" height="460"></rect>
    <rect x="91.99999999999983" y="440" width="10" height="560"></rect>
    <rect x="92.99999999999983" y="830" width="10" height="170"></rect>
    <rect x="93.99999999999983" y="500" width="10" height="500"></rect>
    <rect x="94.99999999999983" y="870" width="10" height="130"></rect>
    <rect x="95.99999999999982" y="880" width="10" height="120"></rect>
    <rect x="96.99999999999982" y="470" width="10" height="530"></rect>
    <rect x="97.99999999999982" y="850" width="10" height="150"></rect>
    <rect x="98.9999999999998" y="420" width="10" height="580"></rect>
    <rect x="99.9999999999998" y="650" width="10" height="350"></rect>
    <rect x="100.9999999999998" y="890" width="10" height="110"></rect>
    <rect x="101.9999999999998" y="750" width="10" height="250"></rect>
    <rect x="102.9999999999998" y="830" width="10" height="170"></rect>
    <rect x="103.99999999999979" y="530" width="10" height="470"></rect>
    <rect x="104.99999999999979" y="800" width="10" height="200"></rect>
    <rect x="105.99999999999979" y="800" width="10" height="200"></rect>
    <rect x="106.99999999999977" y="550" width="10" height="450"></rect>
    <rect x="107.99999999999977" y="500" width="10" height="500"></rect>
    <rect x="108.99999999999977" y="580" width="10" height="420"></rect>
    <rect x="109.99999999999977" y="420" width="10" height="580"></rect>
    <rect x="110.99999999999977" y="870" width="10" height="130"></rect>
    <rect x="111.99999999999976" y="490" width="10" height="510"></rect>
    <rect x="112.99999999999976" y="580" width="10" height="420"></rect>
    <rect x="113.99999999999976" y="560" width="10" height="440"></rect>
    <rect x="114.99999999999974" y="430" width="10" height="570"></rect>
    <rect x="115.99999999999974" y="730" width="10" height="270"></rect>
    <rect x="116.99999999999974" y="530" width="10" height="470"></rect>
    <rect x="117.99999999999974" y="690" width="10" height="310"></rect>
    <rect x="118.99999999999974" y="460" width="10" height="540"></rect>
    <rect x="119.99999999999973" y="640" width="10" height="360"></rect>
    <rect x="120.99999999999973" y="880" width="10" height="120"></rect>
    <rect x="121.99999999999973" y="590" width="10" height="410"></rect>
    <rect x="122.99999999999972" y="610" width="10" height="390"></rect>
    <rect x="123.99999999999972" y="740" width="10" height="260"></rect>
    <rect x="124.99999999999972" y="700" width="10" height="300"></rect>
    <rect x="125.99999999999972" y="470" width="10" height="530"></rect>
    <rect x="126.99999999999972" y="540" width="10" height="460"></rect>
    <rect x="127.9999999999997" y="710" width="10" height="290"></rect>
    <rect x="128.99999999999972" y="590" width="10" height="410"></rect>
    <rect x="129.9999999999997" y="880" width="10" height="120"></rect>
    <rect x="130.9999999999997" y="650" width="10" height="350"></rect>
    <rect x="131.9999999999997" y="550" width="10" height="450"></rect>
    <rect x="132.9999999999997" y="800" width="10" height="200"></rect>
    <rect x="133.9999999999997" y="530" width="10" height="470"></rect>
    <rect x="134.9999999999997" y="410" width="10" height="590"></rect>
    <rect x="135.9999999999997" y="620" width="10" height="380"></rect>
    <rect x="136.99999999999966" y="720" width="10" height="280"></rect>
    <rect x="137.99999999999966" y="560" width="10" height="440"></rect>
    <rect x="138.99999999999966" y="870" width="10" height="130"></rect>
    <rect x="139.99999999999966" y="660" width="10" height="340"></rect>
    <rect x="140.99999999999966" y="430" width="10" height="570"></rect>
    <rect x="141.99999999999966" y="780" width="10" height="220"></rect>
    <rect x="142.99999999999966" y="580" width="10" height="420"></rect>
    <rect x="143.99999999999966" y="740" width="10" height="260"></rect>
    <rect x="144.99999999999966" y="510" width="10" height="490"></rect>
    <rect x="145.99999999999963" y="500" width="10" height="500"></rect>
    <rect x="146.99999999999963" y="540" width="10" height="460"></rect>
    <rect x="147.99999999999963" y="890" width="10" height="110"></rect>
    <rect x="148.99999999999963" y="640" width="10" height="360"></rect>
    <rect x="149.99999999999963" y="500" width="10" height="500"></rect>
    <rect x="150.99999999999963" y="890" width="10" height="110"></rect>
    <rect x="151.99999999999963" y="460" width="10" height="540"></rect>
    <rect x="152.9999999999996" y="760" width="10" height="240"></rect>
    <rect x="153.9999999999996" y="850" width="10" height="150"></rect>
    <rect x="154.9999999999996" y="570" width="10" height="430"></rect>
    <rect x="155.9999999999996" y="890" width="10" height="110"></rect>
    <rect x="156.9999999999996" y="500" width="10" height="500"></rect>
    <rect x="157.9999999999996" y="880" width="10" height="120"></rect>
    <rect x="158.9999999999996" y="820" width="10" height="180"></rect>
    <rect x="159.9999999999996" y="730" width="10" height="270"></rect>
    <rect x="160.9999999999996" y="590" width="10" height="410"></rect>
    <rect x="161.9999999999996" y="620" width="10" height="380"></rect>
    <rect x="162.9999999999996" y="860" width="10" height="140"></rect>
    <rect x="163.99999999999963" y="680" width="10" height="320"></rect>
    <rect x="164.99999999999966" y="670" width="10" height="330"></rect>
    <rect x="165.99999999999966" y="480" width="10" height="520"></rect>
    <rect x="166.99999999999966" y="820" width="10" height="180"></rect>
    <rect x="167.9999999999997" y="470" width="10" height="530"></rect>
    <rect x="168.99999999999972" y="720" width="10" height="280"></rect>
    <rect x="169.99999999999972" y="740" width="10" height="260"></rect>
    <rect x="170.99999999999972" y="800" width="10" height="200"></rect>
    <rect x="171.99999999999974" y="550" width="10" height="450"></rect>
    <rect x="172.99999999999977" y="500" width="10" height="500"></rect>
    <rect x="173.99999999999977" y="860" width="10" height="140"></rect>
    <rect x="174.99999999999977" y="780" width="10" height="220"></rect>
    <rect x="175.9999999999998" y="830" width="10" height="170"></rect>
    <rect x="176.99999999999983" y="750" width="10" height="250"></rect>
    <rect x="177.99999999999983" y="690" width="10" height="310"></rect>
    <rect x="178.99999999999983" y="510" width="10" height="490"></rect>
    <rect x="179.99999999999986" y="600" width="10" height="400"></rect>
    <rect x="180.9999999999999" y="770" width="10" height="230"></rect>
    <rect x="181.9999999999999" y="900" width="10" height="100"></rect>
    <rect x="182.9999999999999" y="810" width="10" height="190"></rect>
    <rect x="183.99999999999991" y="700" width="10" height="300"></rect>
    <rect x="184.99999999999994" y="570" width="10" height="430"></rect>
    <rect x="185.99999999999994" y="700" width="10" height="300"></rect>
    <rect x="186.99999999999994" y="560" width="10" height="440"></rect>
    <rect x="187.99999999999997" y="430" width="10" height="570"></rect>
    <rect x="189" y="800" width="10" height="200"></rect>
    <rect x="190" y="750" width="10" height="250"></rect>
    <rect x="191" y="780" width="10" height="220"></rect>
    <rect x="192.00000000000003" y="610" width="10" height="390"></rect>
    <rect x="193.00000000000006" y="700" width="10" height="300"></rect>
    <rect x="194.00000000000006" y="420" width="10" height="580"></rect>
    <rect x="195.00000000000006" y="840" width="10" height="160"></rect>
    <rect x="196.00000000000009" y="450" width="10" height="550"></rect>
    <rect x="197.0000000000001" y="740" width="10" height="260"></rect>
    <rect x="198.0000000000001" y="900" width="10" height="100"></rect>
    <rect x="199.0000000000001" y="840" width="10" height="160"></rect>
    <rect x="200.00000000000014" y="610" width="10" height="390"></rect>
    <rect x="201.00000000000017" y="480" width="10" height="520"></rect>
    <rect x="202.00000000000017" y="590" width="10" height="410"></rect>
    <rect x="203.00000000000017" y="630" width="10" height="370"></rect>
    <rect x="204.0000000000002" y="540" width="10" height="460"></rect>
    <rect x="205.00000000000023" y="700" width="10" height="300"></rect>
    <rect x="206.00000000000023" y="410" width="10" height="590"></rect>
    <rect x="207.00000000000023" y="780" width="10" height="220"></rect>
    <rect x="208.00000000000026" y="430" width="10" height="570"></rect>
    <rect x="209.00000000000028" y="480" width="10" height="520"></rect>
    <rect x="210.00000000000028" y="520" width="10" height="480"></rect>
    <rect x="211.00000000000028" y="790" width="10" height="210"></rect>
    <rect x="212.0000000000003" y="870" width="10" height="130"></rect>
    <rect x="213.00000000000034" y="520" width="10" height="480"></rect>
    <rect x="214.00000000000034" y="720" width="10" height="280"></rect>
    <rect x="215.00000000000034" y="840" width="10" height="160"></rect>
    <rect x="216.00000000000037" y="710" width="10" height="290"></rect>
    <rect x="217.0000000000004" y="830" width="10" height="170"></rect>
    <rect x="218.0000000000004" y="830" width="10" height="170"></rect>
    <rect x="219.0000000000004" y="880" width="10" height="120"></rect>
    <rect x="220.00000000000043" y="650" width="10" height="350"></rect>
    <rect x="221.00000000000045" y="590" width="10" height="410"></rect>
    <rect x="222.00000000000045" y="870" width="10" height="130"></rect>
    <rect x="223.00000000000045" y="450" width="10" height="550"></rect>
    <rect x="224.00000000000048" y="730" width="10" height="270"></rect>
    <rect x="225.0000000000005" y="470" width="10" height="530"></rect>
    <rect x="226.0000000000005" y="700" width="10" height="300"></rect>
    <rect x="227.0000000000005" y="440" width="10" height="560"></rect>
    <rect x="228.00000000000054" y="540" width="10" height="460"></rect>
    <rect x="229.00000000000057" y="580" width="10" height="420"></rect>
    <rect x="230.00000000000057" y="700" width="10" height="300"></rect>
    <rect x="231.00000000000057" y="800" width="10" height="200"></rect>
    <rect x="232.0000000000006" y="680" width="10" height="320"></rect>
    <rect x="233.00000000000063" y="610" width="10" height="390"></rect>
    <rect x="234.00000000000063" y="790" width="10" height="210"></rect>
    <rect x="235.00000000000063" y="800" width="10" height="200"></rect>
    <rect x="236.00000000000065" y="700" width="10" height="300"></rect>
    <rect x="237.00000000000068" y="610" width="10" height="390"></rect>
    <rect x="238.00000000000068" y="860" width="10" height="140"></rect>
    <rect x="239.00000000000068" y="760" width="10" height="240"></rect>
    <rect x="240.0000000000007" y="800" width="10" height="200"></rect>
    <rect x="241.00000000000074" y="890" width="10" height="110"></rect>
    <rect x="242.00000000000074" y="590" width="10" height="410"></rect>
    <rect x="243.00000000000074" y="830" width="10" height="170"></rect>
    <rect x="244.00000000000077" y="740" width="10" height="260"></rect>
    <rect x="245.0000000000008" y="900" width="10" height="100"></rect>
    <rect x="246.0000000000008" y="510" width="10" height="490"></rect>
    <rect x="247.0000000000008" y="530" width="10" height="470"></rect>
    <rect x="248.00000000000082" y="570" width="10" height="430"></rect>
    <rect x="249.00000000000085" y="790" width="10" height="210"></rect>
    <rect x="250.00000000000085" y="860" width="10" height="140"></rect>
    <rect x="251.00000000000085" y="550" width="10" height="450"></rect>
    <rect x="252.00000000000088" y="810" width="10" height="190"></rect>
    <rect x="253.0000000000009" y="750" width="10" height="250"></rect>
    <rect x="254.0000000000009" y="710" width="10" height="290"></rect>
    <rect x="255.0000000000009" y="760" width="10" height="240"></rect>
    <rect x="256.0000000000009" y="500" width="10" height="500"></rect>
    <rect x="257.00000000000097" y="780" width="10" height="220"></rect>
    <rect x="258.00000000000097" y="500" width="10" height="500"></rect>
    <rect x="259.00000000000097" y="900" width="10" height="100"></rect>
    <rect x="260.000000000001" y="560" width="10" height="440"></rect>
    <rect x="261.000000000001" y="670" width="10" height="330"></rect>
    <rect x="262.000000000001" y="550" width="10" height="450"></rect>
    <rect x="263.000000000001" y="470" width="10" height="530"></rect>
    <rect x="264.000000000001" y="690" width="10" height="310"></rect>
    <rect x="265.0000000000011" y="500" width="10" height="500"></rect>
    <rect x="266.0000000000011" y="660" width="10" height="340"></rect>
    <rect x="267.0000000000011" y="710" width="10" height="290"></rect>
    <rect x="268.00000000000114" y="700" width="10" height="300"></rect>
    <rect x="269.00000000000114" y="540" width="10" height="460"></rect>
    <rect x="270.00000000000114" y="520" width="10" height="480"></rect>
    <rect x="271.00000000000114" y="680" width="10" height="320"></rect>
    <rect x="272.00000000000114" y="460" width="10" height="540"></rect>
    <rect x="273.0000000000012" y="450" width="10" height="550"></rect>
    <rect x="274.0000000000012" y="660" width="10" height="340"></rect>
    <rect x="275.0000000000012" y="530" width="10" height="470"></rect>
    <rect x="276.00000000000125" y="660" width="10" height="340"></rect>
    <rect x="277.00000000000125" y="470" width="10" height="530"></rect>
    <rect x="278.00000000000125" y="840" width="10" height="160"></rect>
    <rect x="279.00000000000125" y="420" width="10" height="580"></rect>
    <rect x="280.00000000000125" y="880" width="10" height="120"></rect>
    <rect x="281.0000000000013" y="700" width="10" height="300"></rect>
    <rect x="282.0000000000013" y="680" width="10" height="320"></rect>
    <rect x="283.0000000000013" y="690" width="10" height="310"></rect>
    <rect x="284.00000000000136" y="730" width="10" height="270"></rect>
    <rect x="285.00000000000136" y="890" width="10" height="110"></rect>
    <rect x="286.00000000000136" y="750" width="10" height="250"></rect>
    <rect x="287.00000000000136" y="580" width="10" height="420"></rect>
    <rect x="288.00000000000136" y="610" width="10" height="390"></rect>
    <rect x="289.0000000000014" y="480" width="10" height="520"></rect>
    <rect x="290.0000000000014" y="610" width="10" height="390"></rect>
    <rect x="291.0000000000014" y="590" width="10" height="410"></rect>
    <rect x="292.0000000000015" y="690" width="10" height="310"></rect>
    <rect x="293.0000000000015" y="850" width="10" height="150"></rect>
    <rect x="294.0000000000015" y="790" width="10" height="210"></rect>
    <rect x="295.0000000000015" y="470" width="10" height="530"></rect>
    <rect x="296.0000000000015" y="870" width="10" height="130"></rect>
    <rect x="297.00000000000153" y="740" width="10" height="260"></rect>
    <rect x="298.00000000000153" y="810" width="10" height="190"></rect>
    <rect x="299.00000000000153" y="730" width="10" height="270"></rect>
    <rect x="300.0000000000016" y="820" width="10" height="180"></rect>
    <rect x="301.0000000000016" y="820" width="10" height="180"></rect>
    <rect x="302.0000000000016" y="620" width="10" height="380"></rect>
    <rect x="303.0000000000016" y="870" width="10" height="130"></rect>
    <rect x="304.0000000000016" y="660" width="10" height="340"></rect>
    <rect x="305.00000000000165" y="560" width="10" height="440"></rect>
    <rect x="306.00000000000165" y="650" width="10" height="350"></rect>
    <rect x="307.00000000000165" y="660" width="10" height="340"></rect>
    <rect x="308.0000000000017" y="840" width="10" height="160"></rect>
    <rect x="309.0000000000017" y="530" width="10" height="470"></rect>
    <rect x="310.0000000000017" y="540" width="10" height="460"></rect>
    <rect x="311.0000000000017" y="730" width="10" height="270"></rect>
    <rect x="312.0000000000017" y="760" width="10" height="240"></rect>
    <rect x="313.00000000000176" y="820" width="10" height="180"></rect>
    <rect x="314.00000000000176" y="810" width="10" height="190"></rect>
    <rect x="315.00000000000176" y="440" width="10" height="560"></rect>
    <rect x="316.0000000000018" y="670" width="10" height="330"></rect>
    <rect x="317.0000000000018" y="660" width="10" height="340"></rect>
    <rect x="318.0000000000018" y="530" width="10" height="470"></rect>
    <rect x="319.0000000000018" y="830" width="10" height="170"></rect>
    <rect x="320.0000000000018" y="660" width="10" height="340"></rect>
    <rect x="321.0000000000019" y="510" width="10" height="490"></rect>
    <rect x="322.0000000000019" y="590" width="10" height="410"></rect>
    <rect x="323.0000000000019" y="440" width="10" height="560"></rect>
    <rect x="324.00000000000193" y="570" width="10" height="430"></rect>
    <rect x="325.00000000000193" y="620" width="10" height="380"></rect>
    <rect x="326.00000000000193" y="740" width="10" height="260"></rect>
    <rect x="327.00000000000193" y="640" width="10" height="360"></rect>
    <rect x="328.00000000000193" y="630" width="10" height="370"></rect>
    <rect x="329.000000000002" y="780" width="10" height="220"></rect>
    <rect x="330.000000000002" y="540" width="10" height="460"></rect>
    <rect x="331.000000000002" y="890" width="10" height="110"></rect>
    <rect x="332.00000000000205" y="850" width="10" height="150"></rect>
    <rect x="333.00000000000205" y="780" width="10" height="220"></rect>
    <rect x="334.00000000000205" y="510" width="10" height="490"></rect>
    <rect x="335.00000000000205" y="420" width="10" height="580"></rect>
    <rect x="336.00000000000205" y="530" width="10" height="470"></rect>
    <rect x="337.0000000000021" y="600" width="10" height="400"></rect>
    <rect x="338.0000000000021" y="810" width="10" height="190"></rect>
    <rect x="339.0000000000021" y="620" width="10" height="380"></rect>
    <rect x="340.00000000000216" y="810" width="10" height="190"></rect>
    <rect x="341.00000000000216" y="790" width="10" height="210"></rect>
    <rect x="342.00000000000216" y="880" width="10" height="120"></rect>
    <rect x="343.00000000000216" y="720" width="10" height="280"></rect>
    <rect x="344.00000000000216" y="450" width="10" height="550"></rect>
    <rect x="345.0000000000022" y="690" width="10" height="310"></rect>
    <rect x="346.0000000000022" y="870" width="10" height="130"></rect>
    <rect x="347.0000000000022" y="500" width="10" height="500"></rect>
    <rect x="348.0000000000023" y="700" width="10" height="300"></rect>
    <rect x="349.0000000000023" y="590" width="10" height="410"></rect>
    <rect x="350.0000000000023" y="850" width="10" height="150"></rect>
    <rect x="351.0000000000023" y="640" width="10" height="360"></rect>
    <rect x="352.0000000000023" y="810" width="10" height="190"></rect>
    <rect x="353.00000000000233" y="740" width="10" height="260"></rect>
    <rect x="354.00000000000233" y="840" width="10" height="160"></rect>
    <rect x="355.00000000000233" y="450" width="10" height="550"></rect>
    <rect x="356.0000000000024" y="600" width="10" height="400"></rect>
    <rect x="357.0000000000024" y="560" width="10" height="440"></rect>
    <rect x="358.0000000000024" y="630" width="10" height="370"></rect>
    <rect x="359.0000000000024" y="730" width="10" height="270"></rect>
    <rect x="360.0000000000024" y="620" width="10" height="380"></rect>
    <rect x="361.00000000000244" y="650" width="10" height="350"></rect>
    <rect x="362.00000000000244" y="470" width="10" height="530"></rect>
    <rect x="363.00000000000244" y="600" width="10" height="400"></rect>
    <rect x="364.0000000000025" y="820" width="10" height="180"></rect>
    <rect x="365.0000000000025" y="590" width="10" height="410"></rect>
    <rect x="366.0000000000025" y="750" width="10" height="250"></rect>
    <rect x="367.0000000000025" y="820" width="10" height="180"></rect>
    <rect x="368.0000000000025" y="560" width="10" height="440"></rect>
    <rect x="369.00000000000256" y="480" width="10" height="520"></rect>
    <rect x="370.00000000000256" y="670" width="10" height="330"></rect>
    <rect x="371.00000000000256" y="780" width="10" height="220"></rect>
    <rect x="372.0000000000026" y="670" width="10" height="330"></rect>
    <rect x="373.0000000000026" y="680" width="10" height="320"></rect>
    <rect x="374.0000000000026" y="870" width="10" height="130"></rect>
    <rect x="375.0000000000026" y="820" width="10" height="180"></rect>
    <rect x="376.0000000000026" y="630" width="10" height="370"></rect>
    <rect x="377.0000000000027" y="440" width="10" height="560"></rect>
    <rect x="378.0000000000027" y="420" width="10" height="580"></rect>
    <rect x="379.0000000000027" y="770" width="10" height="230"></rect>
    <rect x="380.00000000000273" y="590" width="10" height="410"></rect>
    <rect x="381.00000000000273" y="660" width="10" height="340"></rect>
    <rect x="382.00000000000273" y="840" width="10" height="160"></rect>
    <rect x="383.00000000000273" y="500" width="10" height="500"></rect>
    <rect x="384.00000000000273" y="590" width="10" height="410"></rect>
    <rect x="385.0000000000028" y="580" width="10" height="420"></rect>
    <rect x="386.0000000000028" y="630" width="10" height="370"></rect>
    <rect x="387.0000000000028" y="880" width="10" height="120"></rect>
    <rect x="388.00000000000284" y="860" width="10" height="140"></rect>
    <rect x="389.00000000000284" y="570" width="10" height="430"></rect>
    <rect x="390.00000000000284" y="600" width="10" height="400"></rect>
    <rect x="391.00000000000284" y="540" width="10" height="460"></rect>
    <rect x="392.00000000000284" y="530" width="10" height="470"></rect>
    <rect x="393.0000000000029" y="780" width="10" height="220"></rect>
    <rect x="394.0000000000029" y="860" width="10" height="140"></rect>
    <rect x="395.0000000000029" y="690" width="10" height="310"></rect>
    <rect x="396.00000000000296" y="470" width="10" height="530"></rect>
    <rect x="397.00000000000296" y="420" width="10" height="580"></rect>
    <rect x="398.00000000000296" y="840" width="10" height="160"></rect>
    <rect x="399.00000000000296" y="750" width="10" height="250"></rect>
    <rect x="400.00000000000296" y="680" width="10" height="320"></rect>
    <rect x="401.000000000003" y="450" width="10" height="550"></rect>
    <rect x="402.000000000003" y="460" width="10" height="540"></rect>
    <rect x="403.000000000003" y="840" width="10" height="160"></rect>
    <rect x="404.00000000000307" y="410" width="10" height="590"></rect>
    <rect x="405.00000000000307" y="660" width="10" height="340"></rect>
    <rect x="406.00000000000307" y="700" width="10" height="300"></rect>
    <rect x="407.00000000000307" y="460" width="10" height="540"></rect>
    <rect x="408.00000000000307" y="810" width="10" height="190"></rect>
    <rect x="409.0000000000031" y="830" width="10" height="170"></rect>
    <rect x="410.0000000000031" y="660" width="10" height="340"></rect>
    <rect x="411.0000000000031" y="830" width="10" height="170"></rect>
    <rect x="412.0000000000032" y="870" width="10" height="130"></rect>
    <rect x="413.0000000000032" y="660" width="10" height="340"></rect>
    <rect x="414.0000000000032" y="650" width="10" height="350"></rect>
    <rect x="415.0000000000032" y="500" width="10" height="500"></rect>
    <rect x="416.0000000000032" y="510" width="10" height="490"></rect>
    <rect x="417.00000000000324" y="760" width="10" height="240"></rect>
    <rect x="418.00000000000324" y="450" width="10" height="550"></rect>
    <rect x="419.00000000000324" y="510" width="10" height="490"></rect>
    <rect x="420.0000000000033" y="590" width="10" height="410"></rect>
    <rect x="421.0000000000033" y="590" width="10" height="410"></rect>
    <rect x="422.0000000000033" y="890" width="10" height="110"></rect>
    <rect x="423.0000000000033" y="550" width="10" height="450"></rect>
    <rect x="424.0000000000033" y="610" width="10" height="390"></rect>
    <rect x="425.00000000000335" y="870" width="10" height="130"></rect>
    <rect x="426.00000000000335" y="450" width="10" height="550"></rect>
    <rect x="427.00000000000335" y="480" width="10" height="520"></rect>
    <rect x="428.0000000000034" y="680" width="10" height="320"></rect>
    <rect x="429.0000000000034" y="650" width="10" height="350"></rect>
    <rect x="430.0000000000034" y="630" width="10" height="370"></rect>
    <rect x="431.0000000000034" y="780" width="10" height="220"></rect>
    <rect x="432.0000000000034" y="670" width="10" height="330"></rect>
    <rect x="433.00000000000347" y="730" width="10" height="270"></rect>
    <rect x="434.00000000000347" y="810" width="10" height="190"></rect>
    <rect x="435.00000000000347" y="830" width="10" height="170"></rect>
    <rect x="436.0000000000035" y="600" width="10" height="400"></rect>
    <rect x="437.0000000000035" y="850" width="10" height="150"></rect>
    <rect x="438.0000000000035" y="840" width="10" height="160"></rect>
    <rect x="439.0000000000035" y="660" width="10" height="340"></rect>
    <rect x="440.0000000000035" y="460" width="10" height="540"></rect>
    <rect x="441.0000000000036" y="670" width="10" height="330"></rect>
    <rect x="442.0000000000036" y="460" width="10" height="540"></rect>
    <rect x="443.0000000000036" y="680" width="10" height="320"></rect>
    <rect x="444.00000000000364" y="570" width="10" height="430"></rect>
    <rect x="445.00000000000364" y="660" width="10" height="340"></rect>
    <rect x="446.00000000000364" y="800" width="10" height="200"></rect>
    <rect x="447.00000000000364" y="600" width="10" height="400"></rect>
    <rect x="448.00000000000364" y="450" width="10" height="550"></rect>
    <rect x="449.0000000000037" y="760" width="10" height="240"></rect>
    <rect x="450.0000000000037" y="670" width="10" height="330"></rect>
    <rect x="451.0000000000037" y="900" width="10" height="100"></rect>
    <rect x="452.00000000000375" y="810" width="10" height="190"></rect>
    <rect x="453.00000000000375" y="630" width="10" height="370"></rect>
    <rect x="454.00000000000375" y="450" width="10" height="550"></rect>
    <rect x="455.00000000000375" y="690" width="10" height="310"></rect>
    <rect x="456.00000000000375" y="820" width="10" height="180"></rect>
    <rect x="457.0000000000038" y="420" width="10" height="580"></rect>
    <rect x="458.0000000000038" y="560" width="10" height="440"></rect>
    <rect x="459.0000000000038" y="610" width="10" height="390"></rect>
    <rect x="460.00000000000387" y="860" width="10" height="140"></rect>
    <rect x="461.00000000000387" y="690" width="10" height="310"></rect>
    <rect x="462.00000000000387" y="530" width="10" height="470"></rect>
    <rect x="463.00000000000387" y="640" width="10" height="360"></rect>
    <rect x="464.00000000000387" y="800" width="10" height="200"></rect>
    <rect x="465.0000000000039" y="690" width="10" height="310"></rect>
    <rect x="466.0000000000039" y="730" width="10" height="270"></rect>
    <rect x="467.0000000000039" y="890" width="10" height="110"></rect>
    <rect x="468.000000000004" y="410" width="10" height="590"></rect>
    <rect x="469.000000000004" y="520" width="10" height="480"></rect>
    <rect x="470.000000000004" y="700" width="10" height="300"></rect>
    <rect x="471.000000000004" y="660" width="10" height="340"></rect>
    <rect x="472.000000000004" y="890" width="10" height="110"></rect>
    <rect x="473.00000000000404" y="500" width="10" height="500"></rect>
    <rect x="474.00000000000404" y="670" width="10" height="330"></rect>
    <rect x="475.00000000000404" y="440" width="10" height="560"></rect>
    <rect x="476.0000000000041" y="740" width="10" height="260"></rect>
    <rect x="477.0000000000041" y="650" width="10" height="350"></rect>
    <rect x="478.0000000000041" y="800" width="10" height="200"></rect>
    <rect x="479.0000000000041" y="680" width="10" height="320"></rect>
    <rect x="480.0000000000041" y="770" width="10" height="230"></rect>
    <rect x="481.00000000000415" y="760" width="10" height="240"></rect>
    <rect x="482.00000000000415" y="810" width="10" height="190"></rect>
    <rect x="483.00000000000415" y="650" width="10" height="350"></rect>
    <rect x="484.0000000000042" y="440" width="10" height="560"></rect>
    <rect x="485.0000000000042" y="690" width="10" height="310"></rect>
    <rect x="486.0000000000042" y="460" width="10" height="540"></rect>
    <rect x="487.0000000000042" y="770" width="10" height="230"></rect>
    <rect x="488.0000000000042" y="540" width="10" height="460"></rect>
    <rect x="489.00000000000426" y="530" width="10" height="470"></rect>
    <rect x="490.00000000000426" y="520" width="10" height="480"></rect>
    <rect x="491.00000000000426" y="670" width="10" height="330"></rect>
    <rect x="492.0000000000043" y="650" width="10" height="350"></rect>
    <rect x="493.0000000000043" y="640" width="10" height="360"></rect>
    <rect x="494.0000000000043" y="710" width="10" height="290"></rect>
    <rect x="495.0000000000043" y="900" width="10" height="100"></rect>
    <rect x="496.0000000000043" y="760" width="10" height="240"></rect>
    <rect x="497.0000000000044" y="600" width="10" height="400"></rect>
    <rect x="498.0000000000044" y="640" width="10" height="360"></rect>
    <rect x="499.0000000000044" y="900" width="10" height="100"></rect>
    <rect x="500.00000000000443" y="890" width="10" height="110"></rect>
    <rect x="501.00000000000443" y="560" width="10" height="440"></rect>
    <rect x="502.00000000000443" y="710" width="10" height="290"></rect>
    <rect x="503.00000000000443" y="740" width="10" height="260"></rect>
    <rect x="504.00000000000443" y="770" width="10" height="230"></rect>
    <rect x="505.0000000000045" y="450" width="10" height="550"></rect>
    <rect x="506.0000000000045" y="490" width="10" height="510"></rect>
    <rect x="507.0000000000045" y="480" width="10" height="520"></rect>
    <rect x="508.00000000000455" y="510" width="10" height="490"></rect>
    <rect x="509.00000000000455" y="460" width="10" height="540"></rect>
    <rect x="510.00000000000455" y="690" width="10" height="310"></rect>
    <rect x="511.00000000000455" y="660" width="10" height="340"></rect>
    <rect x="512.0000000000045" y="890" width="10" height="110"></rect>
    <rect x="513.0000000000045" y="900" width="10" height="100"></rect>
    <rect x="514.0000000000045" y="550" width="10" height="450"></rect>
    <rect x="515.0000000000047" y="520" width="10" height="480"></rect>
    <rect x="516.0000000000047" y="760" width="10" height="240"></rect>
    <rect x="517.0000000000047" y="800" width="10" height="200"></rect>
    <rect x="518.0000000000047" y="740" width="10" height="260"></rect>
    <rect x="519.0000000000047" y="710" width="10" height="290"></rect>
    <rect x="520.0000000000047" y="580" width="10" height="420"></rect>
    <rect x="521.0000000000047" y="740" width="10" height="260"></rect>
    <rect x="522.0000000000048" y="770" width="10" height="230"></rect>
    <rect x="523.0000000000048" y="740" width="10" height="260"></rect>
    <rect x="524.0000000000048" y="680" width="10" height="320"></rect>
    <rect x="525.0000000000048" y="890" width="10" height="110"></rect>
    <rect x="526.0000000000048" y="850" width="10" height="150"></rect>
    <rect x="527.0000000000048" y="630" width="10" height="370"></rect>
    <rect x="528.0000000000048" y="770" width="10" height="230"></rect>
    <rect x="529.0000000000048" y="730" width="10" height="270"></rect>
    <rect x="530.0000000000048" y="820" width="10" height="180"></rect>
    <rect x="531.0000000000049" y="580" width="10" height="420"></rect>
    <rect x="532.0000000000049" y="610" width="10" height="390"></rect>
    <rect x="533.0000000000049" y="650" width="10" height="350"></rect>
    <rect x="534.0000000000049" y="570" width="10" height="430"></rect>
    <rect x="535.0000000000049" y="500" width="10" height="500"></rect>
    <rect x="536.0000000000049" y="630" width="10" height="370"></rect>
    <rect x="537.0000000000049" y="560" width="10" height="440"></rect>
    <rect x="538.000000000005" y="880" width="10" height="120"></rect>
    <rect x="539.000000000005" y="620" width="10" height="380"></rect>
    <rect x="540.000000000005" y="530" width="10" height="470"></rect>
    <rect x="541.000000000005" y="430" width="10" height="570"></rect>
    <rect x="542.000000000005" y="710" width="10" height="290"></rect>
    <rect x="543.000000000005" y="780" width="10" height="220"></rect>
    <rect x="544.000000000005" y="440" width="10" height="560"></rect>
    <rect x="545.000000000005" y="810" width="10" height="190"></rect>
    <rect x="546.000000000005" y="860" width="10" height="140"></rect>
    <rect x="547.0000000000051" y="840" width="10" height="160"></rect>
    <rect x="548.0000000000051" y="760" width="10" height="240"></rect>
    <rect x="549.0000000000051" y="510" width="10" height="490"></rect>
    <rect x="550.0000000000051" y="670" width="10" height="330"></rect>
    <rect x="551.0000000000051" y="480" width="10" height="520"></rect>
    <rect x="552.0000000000051" y="760" width="10" height="240"></rect>
    <rect x="553.0000000000051" y="510" width="10" height="490"></rect>
    <rect x="554.0000000000052" y="600" width="10" height="400"></rect>
    <rect x="555.0000000000052" y="710" width="10" height="290"></rect>
    <rect x="556.0000000000052" y="870" width="10" height="130"></rect>
    <rect x="557.0000000000052" y="800" width="10" height="200"></rect>
    <rect x="558.0000000000052" y="460" width="10" height="540"></rect>
    <rect x="559.0000000000052" y="550" width="10" height="450"></rect>
    <rect x="560.0000000000052" y="690" width="10" height="310"></rect>
    <rect x="561.0000000000052" y="770" width="10" height="230"></rect>
    <rect x="562.0000000000052" y="890" width="10" height="110"></rect>
    <rect x="563.0000000000053" y="620" width="10" height="380"></rect>
    <rect x="564.0000000000053" y="830" width="10" height="170"></rect>
    <rect x="565.0000000000053" y="560" width="10" height="440"></rect>
    <rect x="566.0000000000053" y="780" width="10" height="220"></rect>
    <rect x="567.0000000000053" y="570" width="10" height="430"></rect>
    <rect x="568.0000000000053" y="690" width="10" height="310"></rect>
    <rect x="569.0000000000053" y="900" width="10" height="100"></rect>
    <rect x="570.0000000000055" y="750" width="10" height="250"></rect>
    <rect x="571.0000000000055" y="500" width="10" height="500"></rect>
    <rect x="572.0000000000055" y="480" width="10" height="520"></rect>
    <rect x="573.0000000000055" y="480" width="10" height="520"></rect>
    <rect x="574.0000000000055" y="490" width="10" height="510"></rect>
    <rect x="575.0000000000055" y="420" width="10" height="580"></rect>
    <rect x="576.0000000000055" y="890" width="10" height="110"></rect>
    <rect x="577.0000000000055" y="830" width="10" height="170"></rect>
    <rect x="578.0000000000055" y="780" width="10" height="220"></rect>
    <rect x="579.0000000000056" y="450" width="10" height="550"></rect>
    <rect x="580.0000000000056" y="740" width="10" height="260"></rect>
    <rect x="581.0000000000056" y="880" width="10" height="120"></rect>
    <rect x="582.0000000000056" y="570" width="10" height="430"></rect>
    <rect x="583.0000000000056" y="850" width="10" height="150"></rect>
    <rect x="584.0000000000056" y="710" width="10" height="290"></rect>
    <rect x="585.0000000000056" y="500" width="10" height="500"></rect>
    <rect x="586.0000000000057" y="460" width="10" height="540"></rect>
    <rect x="587.0000000000057" y="420" width="10" height="580"></rect>
    <rect x="588.0000000000057" y="500" width="10" height="500"></rect>
    <rect x="589.0000000000057" y="730" width="10" height="270"></rect>
    <rect x="590.0000000000057" y="580" width="10" height="420"></rect>
    <rect x="591.0000000000057" y="760" width="10" height="240"></rect>
    <rect x="592.0000000000057" y="700" width="10" height="300"></rect>
    <rect x="593.0000000000057" y="580" width="10" height="420"></rect>
    <rect x="594.0000000000057" y="720" width="10" height="280"></rect>
    <rect x="595.0000000000058" y="640" width="10" height="360"></rect>
    <rect x="596.0000000000058" y="640" width="10" height="360"></rect>
    <rect x="597.0000000000058" y="440" width="10" height="560"></rect>
    <rect x="598.0000000000058" y="650" width="10" height="350"></rect>
    <rect x="599.0000000000058" y="720" width="10" height="280"></rect>
    <rect x="600.0000000000058" y="780" width="10" height="220"></rect>
    <rect x="601.0000000000058" y="470" width="10" height="530"></rect>
    <rect x="602.0000000000059" y="890" width="10" height="110"></rect>
    <rect x="603.0000000000059" y="690" width="10" height="310"></rect>
    <rect x="604.0000000000059" y="770" width="10" height="230"></rect>
    <rect x="605.0000000000059" y="810" width="10" height="190"></rect>
    <rect x="606.0000000000059" y="470" width="10" height="530"></rect>
    <rect x="607.0000000000059" y="700" width="10" height="300"></rect>
    <rect x="608.0000000000059" y="530" width="10" height="470"></rect>
    <rect x="609.0000000000059" y="540" width="10" height="460"></rect>
    <rect x="610.0000000000059" y="490" width="10" height="510"></rect>
    <rect x="611.000000000006" y="500" width="10" height="500"></rect>
    <rect x="612.000000000006" y="420" width="10" height="580"></rect>
    <rect x="613.000000000006" y="550" width="10" height="450"></rect>
    <rect x="614.000000000006" y="890" width="10" height="110"></rect>
    <rect x="615.000000000006" y="820" width="10" height="180"></rect>
    <rect x="616.000000000006" y="720" width="10" height="280"></rect>
    <rect x="617.000000000006" y="480" width="10" height="520"></rect>
    <rect x="618.0000000000061" y="550" width="10" height="450"></rect>
    <rect x="619.0000000000061" y="750" width="10" height="250"></rect>
    <rect x="620.0000000000061" y="590" width="10" height="410"></rect>
    <rect x="621.0000000000061" y="420" width="10" height="580"></rect>
    <rect x="622.0000000000061" y="840" width="10" height="160"></rect>
    <rect x="623.0000000000061" y="730" width="10" height="270"></rect>
    <rect x="624.0000000000061" y="660" width="10" height="340"></rect>
    <rect x="625.0000000000061" y="410" width="10" height="590"></rect>
    <rect x="626.0000000000061" y="670" width="10" height="330"></rect>
    <rect x="627.0000000000063" y="890" width="10" height="110"></rect>
    <rect x="628.0000000000063" y="790" width="10" height="210"></rect>
    <rect x="629.0000000000063" y="800" width="10" height="200"></rect>
    <rect x="630.0000000000063" y="480" width="10" height="520"></rect>
    <rect x="631.0000000000063" y="660" width="10" height="340"></rect>
    <rect x="632.0000000000063" y="760" width="10" height="240"></rect>
    <rect x="633.0000000000063" y="720" width="10" height="280"></rect>
    <rect x="634.0000000000064" y="770" width="10" height="230"></rect>
    <rect x="635.0000000000064" y="550" width="10" height="450"></rect>
    <rect x="636.0000000000064" y="420" width="10" height="580"></rect>
    <rect x="637.0000000000064" y="900" width="10" height="100"></rect>
    <rect x="638.0000000000064" y="500" width="10" height="500"></rect>
    <rect x="639.0000000000064" y="880" width="10" height="120"></rect>
    <rect x="640.0000000000064" y="500" width="10" height="500"></rect>
    <rect x="641.0000000000064" y="740" width="10" height="260"></rect>
    <rect x="642.0000000000063" y="410" width="10" height="590"></rect>
    <rect x="643.0000000000063" y="800" width="10" height="200"></rect>
    <rect x="644.0000000000061" y="460" width="10" height="540"></rect>
    <rect x="645.0000000000061" y="800" width="10" height="200"></rect>
    <rect x="646.000000000006" y="890" width="10" height="110"></rect>
    <rect x="647.000000000006" y="740" width="10" height="260"></rect>
    <rect x="648.0000000000059" y="890" width="10" height="110"></rect>
    <rect x="649.0000000000059" y="680" width="10" height="320"></rect>
    <rect x="650.0000000000058" y="800" width="10" height="200"></rect>
    <rect x="651.0000000000058" y="560" width="10" height="440"></rect>
    <rect x="652.0000000000057" y="770" width="10" height="230"></rect>
    <rect x="653.0000000000057" y="780" width="10" height="220"></rect>
    <rect x="654.0000000000056" y="420" width="10" height="580"></rect>
    <rect x="655.0000000000056" y="730" width="10" height="270"></rect>
    <rect x="656.0000000000055" y="470" width="10" height="530"></rect>
    <rect x="657.0000000000055" y="500" width="10" height="500"></rect>
    <rect x="658.0000000000053" y="870" width="10" height="130"></rect>
    <rect x="659.0000000000053" y="720" width="10" height="280"></rect>
    <rect x="660.0000000000052" y="890" width="10" height="110"></rect>
    <rect x="661.0000000000052" y="840" width="10" height="160"></rect>
    <rect x="662.0000000000051" y="520" width="10" height="480"></rect>
    <rect x="663.0000000000051" y="690" width="10" height="310"></rect>
    <rect x="664.000000000005" y="630" width="10" height="370"></rect>
    <rect x="665.000000000005" y="480" width="10" height="520"></rect>
    <rect x="666.0000000000049" y="730" width="10" height="270"></rect>
    <rect x="667.0000000000049" y="830" width="10" height="170"></rect>
    <rect x="668.0000000000048" y="560" width="10" height="440"></rect>
    <rect x="669.0000000000048" y="900" width="10" height="100"></rect>
    <rect x="670.0000000000047" y="830" width="10" height="170"></rect>
    <rect x="671.0000000000047" y="680" width="10" height="320"></rect>
    <rect x="672.0000000000045" y="450" width="10" height="550"></rect>
    <rect x="673.0000000000045" y="550" width="10" height="450"></rect>
    <rect x="674.0000000000044" y="420" width="10" height="580"></rect>
    <rect x="675.0000000000044" y="600" width="10" height="400"></rect>
    <rect x="676.0000000000043" y="860" width="10" height="140"></rect>
    <rect x="677.0000000000043" y="780" width="10" height="220"></rect>
    <rect x="678.0000000000042" y="880" width="10" height="120"></rect>
    <rect x="679.0000000000042" y="650" width="10" height="350"></rect>
    <rect x="680.0000000000041" y="760" width="10" height="240"></rect>
    <rect x="681.0000000000041" y="830" width="10" height="170"></rect>
    <rect x="682.000000000004" y="870" width="10" height="130"></rect>
    <rect x="683.000000000004" y="890" width="10" height="110"></rect>
    <rect x="684.0000000000039" y="670" width="10" height="330"></rect>
    <rect x="685.0000000000039" y="890" width="10" height="110"></rect>
    <rect x="686.0000000000038" y="450" width="10" height="550"></rect>
    <rect x="687.0000000000038" y="900" width="10" height="100"></rect>
    <rect x="688.0000000000036" y="450" width="10" height="550"></rect>
    <rect x="689.0000000000036" y="630" width="10" height="370"></rect>
    <rect x="690.0000000000035" y="410" width="10" height="590"></rect>
    <rect x="691.0000000000035" y="520" width="10" height="480"></rect>
    <rect x="692.0000000000034" y="410" width="10" height="590"></rect>
    <rect x="693.0000000000034" y="750" width="10" height="250"></rect>
    <rect x="694.0000000000033" y="650" width="10" height="350"></rect>
    <rect x="695.0000000000033" y="470" width="10" height="530"></rect>
    <rect x="696.0000000000032" y="500" width="10" height="500"></rect>
    <rect x="697.0000000000032" y="800" width="10" height="200"></rect>
    <rect x="698.0000000000031" y="510" width="10" height="490"></rect>
    <rect x="699.0000000000031" y="470" width="10" height="530"></rect>
    <rect x="700.000000000003" y="890" width="10" height="110"></rect>
    <rect x="701.000000000003" y="780" width="10" height="220"></rect>
    <rect x="702.0000000000028" y="620" width="10" height="380"></rect>
    <rect x="703.0000000000028" y="590" width="10" height="410"></rect>
    <rect x="704.0000000000027" y="840" width="10" height="160"></rect>
    <rect x="705.0000000000027" y="610" width="10" height="390"></rect>
    <rect x="706.0000000000026" y="750" width="10" height="250"></rect>
    <rect x="707.0000000000026" y="550" width="10" height="450"></rect>
    <rect x="708.0000000000025" y="790" width="10" height="210"></rect>
    <rect x="709.0000000000025" y="420" width="10" height="580"></rect>
    <rect x="710.0000000000024" y="760" width="10" height="240"></rect>
    <rect x="711.0000000000024" y="470" width="10" height="530"></rect>
    <rect x="712.0000000000023" y="540" width="10" height="460"></rect>
    <rect x="713.0000000000023" y="850" width="10" height="150"></rect>
    <rect x="714.0000000000022" y="800" width="10" height="200"></rect>
    <rect x="715.0000000000022" y="540" width="10" height="460"></rect>
    <rect x="716.000000000002" y="840" width="10" height="160"></rect>
    <rect x="717.000000000002" y="570" width="10" height="430"></rect>
    <rect x="718.0000000000019" y="620" width="10" height="380"></rect>
    <rect x="719.0000000000019" y="890" width="10" height="110"></rect>
    <rect x="720.0000000000018" y="780" width="10" height="220"></rect>
    <rect x="721.0000000000018" y="610" width="10" height="390"></rect>
    <rect x="722.0000000000017" y="770" width="10" height="230"></rect>
    <rect x="723.0000000000017" y="470" width="10" height="530"></rect>
    <rect x="724.0000000000016" y="530" width="10" height="470"></rect>
    <rect x="725.0000000000016" y="580" width="10" height="420"></rect>
    <rect x="726.0000000000015" y="670" width="10" height="330"></rect>
    <rect x="727.0000000000015" y="670" width="10" height="330"></rect>
    <rect x="728.0000000000014" y="650" width="10" height="350"></rect>
    <rect x="729.0000000000014" y="500" width="10" height="500"></rect>
    <rect x="730.0000000000013" y="630" width="10" height="370"></rect>
    <rect x="731.0000000000013" y="890" width="10" height="110"></rect>
    <rect x="732.0000000000011" y="890" width="10" height="110"></rect>
    <rect x="733.0000000000011" y="430" width="10" height="570"></rect>
    <rect x="734.000000000001" y="820" width="10" height="180"></rect>
    <rect x="735.000000000001" y="830" width="10" height="170"></rect>
    <rect x="736.0000000000009" y="810" width="10" height="190"></rect>
    <rect x="737.0000000000009" y="760" width="10" height="240"></rect>
    <rect x="738.0000000000008" y="440" width="10" height="560"></rect>
    <rect x="739.0000000000008" y="880" width="10" height="120"></rect>
    <rect x="740.0000000000007" y="760" width="10" height="240"></rect>
    <rect x="741.0000000000007" y="520" width="10" height="480"></rect>
    <rect x="742.0000000000006" y="530" width="10" height="470"></rect>
    <rect x="743.0000000000006" y="900" width="10" height="100"></rect>
    <rect x="744.0000000000005" y="480" width="10" height="520"></rect>
    <rect x="745.0000000000005" y="520" width="10" height="480"></rect>
    <rect x="746.0000000000003" y="450" width="10" height="550"></rect>
    <rect x="747.0000000000003" y="430" width="10" height="570"></rect>
    <rect x="748.0000000000002" y="460" width="10" height="540"></rect>
    <rect x="749.0000000000002" y="620" width="10" height="380"></rect>
    <rect x="750.0000000000001" y="820" width="10" height="180"></rect>
    <rect x="751.0000000000001" y="630" width="10" height="370"></rect>
    <rect x="752" y="770" width="10" height="230"></rect>
    <rect x="753" y="860" width="10" height="140"></rect>
    <rect x="753.9999999999999" y="880" width="10" height="120"></rect>
    <rect x="754.9999999999999" y="790" width="10" height="210"></rect>
    <rect x="755.9999999999998" y="890" width="10" height="110"></rect>
    <rect x="756.9999999999998" y="520" width="10" height="480"></rect>
    <rect x="757.9999999999997" y="680" width="10" height="320"></rect>
    <rect x="758.9999999999997" y="520" width="10" height="480"></rect>
    <rect x="759.9999999999995" y="600" width="10" height="400"></rect>
    <rect x="760.9999999999995" y="490" width="10" height="510"></rect>
    <rect x="761.9999999999994" y="690" width="10" height="310"></rect>
    <rect x="762.9999999999994" y="490" width="10" height="510"></rect>
    <rect x="763.9999999999993" y="760" width="10" height="240"></rect>
    <rect x="764.9999999999993" y="630" width="10" height="370"></rect>
    <rect x="765.9999999999992" y="540" width="10" height="460"></rect>
    <rect x="766.9999999999992" y="520" width="10" height="480"></rect>
    <rect x="767.9999999999991" y="560" width="10" height="440"></rect>
    <rect x="768.9999999999991" y="460" width="10" height="540"></rect>
    <rect x="769.999999999999" y="530" width="10" height="470"></rect>
    <rect x="770.999999999999" y="420" width="10" height="580"></rect>
    <rect x="771.9999999999989" y="670" width="10" height="330"></rect>
    <rect x="772.9999999999989" y="460" width="10" height="540"></rect>
    <rect x="773.9999999999987" y="450" width="10" height="550"></rect>
    <rect x="774.9999999999987" y="780" width="10" height="220"></rect>
    <rect x="775.9999999999986" y="550" width="10" height="450"></rect>
    <rect x="776.9999999999986" y="610" width="10" height="390"></rect>
    <rect x="777.9999999999985" y="830" width="10" height="170"></rect>
    <rect x="778.9999999999985" y="620" width="10" height="380"></rect>
    <rect x="779.9999999999984" y="580" width="10" height="420"></rect>
    <rect x="780.9999999999984" y="450" width="10" height="550"></rect>
    <rect x="781.9999999999983" y="840" width="10" height="160"></rect>
    <rect x="782.9999999999983" y="620" width="10" height="380"></rect>
    <rect x="783.9999999999982" y="510" width="10" height="490"></rect>
    <rect x="784.9999999999982" y="680" width="10" height="320"></rect>
    <rect x="785.9999999999981" y="490" width="10" height="510"></rect>
    <rect x="786.9999999999981" y="750" width="10" height="250"></rect>
    <rect x="787.999999999998" y="880" width="10" height="120"></rect>
    <rect x="788.999999999998" y="760" width="10" height="240"></rect>
    <rect x="789.9999999999978" y="700" width="10" height="300"></rect>
    <rect x="790.9999999999978" y="510" width="10" height="490"></rect>
    <rect x="791.9999999999977" y="870" width="10" height="130"></rect>
    <rect x="792.9999999999977" y="860" width="10" height="140"></rect>
    <rect x="793.9999999999976" y="900" width="10" height="100"></rect>
    <rect x="794.9999999999976" y="800" width="10" height="200"></rect>
    <rect x="795.9999999999975" y="610" width="10" height="390"></rect>
    <rect x="796.9999999999975" y="530" width="10" height="470"></rect>
    <rect x="797.9999999999974" y="750" width="10" height="250"></rect>
    <rect x="798.9999999999974" y="550" width="10" height="450"></rect>
    <rect x="799.9999999999973" y="420" width="10" height="580"></rect>
    <rect x="800.9999999999973" y="770" width="10" height="230"></rect>
    <rect x="801.9999999999972" y="650" width="10" height="350"></rect>
    <rect x="802.9999999999972" y="870" width="10" height="130"></rect>
    <rect x="803.999999999997" y="890" width="10" height="110"></rect>
    <rect x="804.999999999997" y="600" width="10" height="400"></rect>
    <rect x="805.9999999999969" y="580" width="10" height="420"></rect>
    <rect x="806.9999999999969" y="780" width="10" height="220"></rect>
    <rect x="807.9999999999968" y="580" width="10" height="420"></rect>
    <rect x="808.9999999999968" y="820" width="10" height="180"></rect>
    <rect x="809.9999999999967" y="760" width="10" height="240"></rect>
    <rect x="810.9999999999967" y="520" width="10" height="480"></rect>
    <rect x="811.9999999999966" y="410" width="10" height="590"></rect>
    <rect x="812.9999999999966" y="520" width="10" height="480"></rect>
    <rect x="813.9999999999965" y="810" width="10" height="190"></rect>
    <rect x="814.9999999999965" y="740" width="10" height="260"></rect>
    <rect x="815.9999999999964" y="840" width="10" height="160"></rect>
    <rect x="816.9999999999964" y="530" width="10" height="470"></rect>
    <rect x="817.9999999999962" y="680" width="10" height="320"></rect>
    <rect x="818.9999999999962" y="820" width="10" height="180"></rect>
    <rect x="819.9999999999961" y="460" width="10" height="540"></rect>
    <rect x="820.9999999999961" y="570" width="10" height="430"></rect>
    <rect x="821.999999999996" y="440" width="10" height="560"></rect>
    <rect x="822.999999999996" y="470" width="10" height="530"></rect>
    <rect x="823.9999999999959" y="890" width="10" height="110"></rect>
    <rect x="824.9999999999959" y="670" width="10" height="330"></rect>
    <rect x="825.9999999999958" y="460" width="10" height="540"></rect>
    <rect x="826.9999999999958" y="850" width="10" height="150"></rect>
    <rect x="827.9999999999957" y="900" width="10" height="100"></rect>
    <rect x="828.9999999999957" y="840" width="10" height="160"></rect>
    <rect x="829.9999999999956" y="850" width="10" height="150"></rect>
    <rect x="830.9999999999956" y="770" width="10" height="230"></rect>
    <rect x="831.9999999999955" y="620" width="10" height="380"></rect>
    <rect x="832.9999999999955" y="490" width="10" height="510"></rect>
    <rect x="833.9999999999953" y="790" width="10" height="210"></rect>
    <rect x="834.9999999999953" y="500" width="10" height="500"></rect>
    <rect x="835.9999999999952" y="780" width="10" height="220"></rect>
    <rect x="836.9999999999952" y="620" width="10" height="380"></rect>
    <rect x="837.9999999999951" y="460" width="10" height="540"></rect>
    <rect x="838.9999999999951" y="540" width="10" height="460"></rect>
    <rect x="839.999999999995" y="780" width="10" height="220"></rect>
    <rect x="840.999999999995" y="570" width="10" height="430"></rect>
    <rect x="841.9999999999949" y="790" width="10" height="210"></rect>
    <rect x="842.9999999999949" y="550" width="10" height="450"></rect>
    <rect x="843.9999999999948" y="690" width="10" height="310"></rect>
    <rect x="844.9999999999948" y="410" width="10" height="590"></rect>
    <rect x="845.9999999999947" y="820" width="10" height="180"></rect>
    <rect x="846.9999999999947" y="860" width="10" height="140"></rect>
    <rect x="847.9999999999945" y="890" width="10" height="110"></rect>
    <rect x="848.9999999999945" y="570" width="10" height="430"></rect>
    <rect x="849.9999999999944" y="740" width="10" height="260"></rect>
    <rect x="850.9999999999944" y="590" width="10" height="410"></rect>
    <rect x="851.9999999999943" y="440" width="10" height="560"></rect>
    <rect x="852.9999999999943" y="840" width="10" height="160"></rect>
    <rect x="853.9999999999942" y="510" width="10" height="490"></rect>
    <rect x="854.9999999999942" y="740" width="10" height="260"></rect>
    <rect x="855.9999999999941" y="730" width="10" height="270"></rect>
    <rect x="856.9999999999941" y="660" width="10" height="340"></rect>
    <rect x="857.999999999994" y="630" width="10" height="370"></rect>
    <rect x="858.999999999994" y="870" width="10" height="130"></rect>
    <rect x="859.9999999999939" y="740" width="10" height="260"></rect>
    <rect x="860.9999999999939" y="790" width="10" height="210"></rect>
    <rect x="861.9999999999937" y="560" width="10" height="440"></rect>
    <rect x="862.9999999999937" y="670" width="10" height="330"></rect>
    <rect x="863.9999999999936" y="610" width="10" height="390"></rect>
    <rect x="864.9999999999936" y="790" width="10" height="210"></rect>
    <rect x="865.9999999999935" y="570" width="10" height="430"></rect>
    <rect x="866.9999999999935" y="860" width="10" height="140"></rect>
    <rect x="867.9999999999934" y="900" width="10" height="100"></rect>
    <rect x="868.9999999999934" y="780" width="10" height="220"></rect>
    <rect x="869.9999999999933" y="490" width="10" height="510"></rect>
    <rect x="870.9999999999933" y="430" width="10" height="570"></rect>
    <rect x="871.9999999999932" y="800" width="10" height="200"></rect>
    <rect x="872.9999999999932" y="530" width="10" height="470"></rect>
    <rect x="873.9999999999931" y="760" width="10" height="240"></rect>
    <rect x="874.9999999999931" y="670" width="10" height="330"></rect>
    <rect x="875.999999999993" y="830" width="10" height="170"></rect>
    <rect x="876.999999999993" y="870" width="10" height="130"></rect>
    <rect x="877.9999999999928" y="590" width="10" height="410"></rect>
    <rect x="878.9999999999928" y="520" width="10" height="480"></rect>
    <rect x="879.9999999999927" y="730" width="10" height="270"></rect>
    <rect x="880.9999999999927" y="760" width="10" height="240"></rect>
    <rect x="881.9999999999926" y="640" width="10" height="360"></rect>
    <rect x="882.9999999999926" y="740" width="10" height="260"></rect>
    <rect x="883.9999999999925" y="550" width="10" height="450"></rect>
    <rect x="884.9999999999925" y="850" width="10" height="150"></rect>
    <rect x="885.9999999999924" y="550" width="10" height="450"></rect>
    <rect x="886.9999999999924" y="850" width="10" height="150"></rect>
    <rect x="887.9999999999923" y="610" width="10" height="390"></rect>
    <rect x="888.9999999999923" y="490" width="10" height="510"></rect>
    <rect x="889.9999999999922" y="770" width="10" height="230"></rect>
    <rect x="890.9999999999922" y="860" width="10" height="140"></rect>
    <rect x="891.999999999992" y="710" width="10" height="290"></rect>
    <rect x="892.999999999992" y="430" width="10" height="570"></rect>
    <rect x="893.9999999999919" y="570" width="10" height="430"></rect>
    <rect x="894.9999999999919" y="540" width="10" height="460"></rect>
    <rect x="895.9999999999918" y="800" width="10" height="200"></rect>
    <rect x="896.9999999999918" y="870" width="10" height="130"></rect>
    <rect x="897.9999999999917" y="600" width="10" height="400"></rect>
    <rect x="898.9999999999917" y="430" width="10" height="570"></rect>
    <rect x="899.9999999999916" y="830" width="10" height="170"></rect>
    <rect x="900.9999999999916" y="680" width="10" height="320"></rect>
    <rect x="901.9999999999915" y="860" width="10" height="140"></rect>
    <rect x="902.9999999999915" y="420" width="10" height="580"></rect>
    <rect x="903.9999999999914" y="490" width="10" height="510"></rect>
    <rect x="904.9999999999914" y="650" width="10" height="350"></rect>
    <rect x="905.9999999999912" y="530" width="10" height="470"></rect>
    <rect x="906.9999999999912" y="680" width="10" height="320"></rect>
    <rect x="907.9999999999911" y="470" width="10" height="530"></rect>
    <rect x="908.9999999999911" y="610" width="10" height="390"></rect>
    <rect x="909.999999999991" y="860" width="10" height="140"></rect>
    <rect x="910.999999999991" y="760" width="10" height="240"></rect>
    <rect x="911.9999999999909" y="510" width="10" height="490"></rect>
    <rect x="912.9999999999909" y="720" width="10" height="280"></rect>
    <rect x="913.9999999999908" y="480" width="10" height="520"></rect>
    <rect x="914.9999999999908" y="820" width="10" height="180"></rect>
    <rect x="915.9999999999907" y="900" width="10" height="100"></rect>
    <rect x="916.9999999999907" y="600" width="10" height="400"></rect>
    <rect x="917.9999999999906" y="620" width="10" height="380"></rect>
    <rect x="918.9999999999906" y="730" width="10" height="270"></rect>
    <rect x="919.9999999999905" y="650" width="10" height="350"></rect>
    <rect x="920.9999999999905" y="770" width="10" height="230"></rect>
    <rect x="921.9999999999903" y="710" width="10" height="290"></rect>
    <rect x="922.9999999999903" y="550" width="10" height="450"></rect>
    <rect x="923.9999999999902" y="800" width="10" height="200"></rect>
    <rect x="924.9999999999902" y="880" width="10" height="120"></rect>
    <rect x="925.9999999999901" y="690" width="10" height="310"></rect>
    <rect x="926.9999999999901" y="680" width="10" height="320"></rect>
    <rect x="927.99999999999" y="810" width="10" height="190"></rect>
    <rect x="928.99999999999" y="640" width="10" height="360"></rect>
    <rect x="929.9999999999899" y="530" width="10" height="470"></rect>
    <rect x="930.9999999999899" y="520" width="10" height="480"></rect>
    <rect x="931.9999999999898" y="440" width="10" height="560"></rect>
    <rect x="932.9999999999898" y="720" width="10" height="280"></rect>
    <rect x="933.9999999999897" y="570" width="10" height="430"></rect>
    <rect x="934.9999999999897" y="720" width="10" height="280"></rect>
    <rect x="935.9999999999895" y="570" width="10" height="430"></rect>
    <rect x="936.9999999999895" y="740" width="10" height="260"></rect>
    <rect x="937.9999999999894" y="470" width="10" height="530"></rect>
    <rect x="938.9999999999894" y="660" width="10" height="340"></rect>
    <rect x="939.9999999999893" y="690" width="10" height="310"></rect>
    <rect x="940.9999999999893" y="670" width="10" height="330"></rect>
    <rect x="941.9999999999892" y="420" width="10" height="580"></rect>
    <rect x="942.9999999999892" y="440" width="10" height="560"></rect>
    <rect x="943.9999999999891" y="860" width="10" height="140"></rect>
    <rect x="944.9999999999891" y="860" width="10" height="140"></rect>
    <rect x="945.999999999989" y="770" width="10" height="230"></rect>
    <rect x="946.999999999989" y="800" width="10" height="200"></rect>
    <rect x="947.9999999999889" y="490" width="10" height="510"></rect>
    <rect x="948.9999999999889" y="810" width="10" height="190"></rect>
    <rect x="949.9999999999887" y="580" width="10" height="420"></rect>
    <rect x="950.9999999999887" y="430" width="10" height="570"></rect>
    <rect x="951.9999999999886" y="410" width="10" height="590"></rect>
    <rect x="952.9999999999886" y="710" width="10" height="290"></rect>
    <rect x="953.9999999999885" y="410" width="10" height="590"></rect>
    <rect x="954.9999999999885" y="650" width="10" height="350"></rect>
    <rect x="955.9999999999884" y="570" width="10" height="430"></rect>
    <rect x="956.9999999999884" y="620" width="10" height="380"></rect>
    <rect x="957.9999999999883" y="600" width="10" height="400"></rect>
    <rect x="958.9999999999883" y="830" width="10" height="170"></rect>
    <rect x="959.9999999999882" y="730" width="10" height="270"></rect>
    <rect x="960.9999999999882" y="880" width="10" height="120"></rect>
    <rect x="961.9999999999881" y="680" width="10" height="320"></rect>
    <rect x="962.9999999999881" y="590" width="10" height="410"></rect>
    <rect x="963.999999999988" y="680" width="10" height="320"></rect>
    <rect x="964.999999999988" y="620" width="10" height="380"></rect>
    <rect x="965.9999999999878" y="580" width="10" height="420"></rect>
    <rect x="966.9999999999878" y="850" width="10" height="150"></rect>
    <rect x="967.9999999999877" y="720" width="10" height="280"></rect>
    <rect x="968.9999999999877" y="550" width="10" height="450"></rect>
    <rect x="969.9999999999876" y="470" width="10" height="530"></rect>
    <rect x="970.9999999999876" y="420" width="10" height="580"></rect>
    <rect x="971.9999999999875" y="650" width="10" height="350"></rect>
    <rect x="972.9999999999875" y="740" width="10" height="260"></rect>
    <rect x="973.9999999999874" y="690" width="10" height="310"></rect>
    <rect x="974.9999999999874" y="750" width="10" height="250"></rect>
    <rect x="975.9999999999873" y="640" width="10" height="360"></rect>
    <rect x="976.9999999999873" y="590" width="10" height="410"></rect>
    <rect x="977.9999999999872" y="460" width="10" height="540"></rect>
    <rect x="978.9999999999872" y="490" width="10" height="510"></rect>
    <rect x="979.999999999987" y="810" width="10" height="190"></rect>
    <rect x="980.999999999987" y="760" width="10" height="240"></rect>
    <rect x="981.9999999999869" y="820" width="10" height="180"></rect>
    <rect x="982.9999999999869" y="480" width="10" height="520"></rect>
    <rect x="983.9999999999868" y="500" width="10" height="500"></rect>
    <rect x="984.9999999999868" y="530" width="10" height="470"></rect>
    <rect x="985.9999999999867" y="690" width="10" height="310"></rect>
    <rect x="986.9999999999867" y="460" width="10" height="540"></rect>
    <rect x="987.9999999999866" y="790" width="10" height="210"></rect>
    <rect x="988.9999999999866" y="770" width="10" height="230"></rect>
    <rect x="989.9999999999865" y="660" width="10" height="340"></rect>
    <rect x="990.9999999999865" y="790" width="10" height="210"></rect>
    <rect x="991.9999999999864" y="570" width="10" height="430"></rect>
    <rect x="992.9999999999864" y="480" width="10" height="520"></rect>
    <rect x="993.9999999999862" y="580" width="10" height="420"></rect>
    <rect x="994.9999999999862" y="720" width="10" height="280"></rect>
    <rect x="995.9999999999861" y="640" width="10" height="360"></rect>
    <rect x="996.9999999999861" y="700" width="10" height="300"></rect>
    <rect x="997.999999999986" y="700" width="10" height="300"></rect>
    <rect x="998.999999999986" y="780" width="10" height="220"></rect>
    <rect x="999.9999999999859" y="550" width="10" height="450"></rect>
  </g>
</svg>
