<svg
  stroke="black"
  stroke-linecap="round"
  font-size="60"
  viewBox="0 0 1000 1000"
  xmlns="http://www.w3.org/2000/svg"
>
  <rect fill="white" stroke="white" x="0" y="0" width="100%" height="100%"></rect>
  <g fill="none" stroke-width="5">
    <rect x="200" y="200" width="600" height="800"></rect>
    <rect x="190" y="170" width="620" height="30"></rect>
    <rect x="200" y="245" width="600" height="15"></rect>
    <rect x="240" y="490" width="240" height="20"></rect>
    <rect x="240" y="430" width="240" height="60"></rect>
    <rect x="240" y="447.5" width="240" height="25"></rect>
    <rect x="250" y="320" width="110" height="170"></rect>
    <rect x="360" y="320" width="110" height="170"></rect>
    <rect x="250" y="320" width="220" height="30"></rect>
    <rect x="240" y="720" width="240" height="20"></rect>
    <rect x="240" y="660" width="240" height="60"></rect>
    <rect x="240" y="677.5" width="240" height="25"></rect>
    <rect x="250" y="550" width="110" height="170"></rect>
    <rect x="360" y="550" width="110" height="170"></rect>
    <rect x="250" y="550" width="220" height="30"></rect>
    <rect x="520" y="490" width="240" height="20"></rect>
    <rect x="520" y="430" width="240" height="60"></rect>
    <rect x="520" y="447.5" width="240" height="25"></rect>
    <rect x="530" y="320" width="110" height="170"></rect>
    <rect x="640" y="320" width="110" height="170"></rect>
    <rect x="530" y="320" width="220" height="30"></rect>
    <rect x="520" y="720" width="240" height="20"></rect>
    <rect x="520" y="660" width="240" height="60"></rect>
    <rect x="520" y="677.5" width="240" height="25"></rect>
    <rect x="530" y="550" width="110" height="170"></rect>
    <rect x="640" y="550" width="110" height="170"></rect>
    <rect x="530" y="550" width="220" height="30"></rect>
    <rect x="0" y="998" width="1000" height="2"></rect>
    <rect x="200" y="800" width="600" height="180"></rect>
    <rect x="240" y="830" width="520" height="115"></rect>
    <rect x="360" y="800" width="280" height="180"></rect>
  </g>
  <g fill="white" stroke-width="5">
    <rect x="425" y="800" width="150" height="180"></rect>
    <rect x="445" y="800" width="110" height="180"></rect>
    <rect x="460" y="815" width="80" height="150"></rect>
    <rect x="460" y="860" width="80" height="25"></rect>
    <rect x="200" y="970" width="40" height="10"></rect>
    <rect x="760" y="970" width="40" height="10"></rect>
    <rect x="200" y="960" width="40" height="10"></rect>
    <rect x="760" y="960" width="40" height="10"></rect>
    <rect x="200" y="950" width="40" height="10"></rect>
    <rect x="760" y="950" width="40" height="10"></rect>
    <rect x="200" y="940" width="40" height="10"></rect>
    <rect x="760" y="940" width="40" height="10"></rect>
    <rect x="200" y="930" width="40" height="10"></rect>
    <rect x="760" y="930" width="40" height="10"></rect>
    <rect x="200" y="920" width="40" height="10"></rect>
    <rect x="760" y="920" width="40" height="10"></rect>
    <rect x="200" y="910" width="40" height="10"></rect>
    <rect x="760" y="910" width="40" height="10"></rect>
    <rect x="200" y="900" width="40" height="10"></rect>
    <rect x="760" y="900" width="40" height="10"></rect>
    <rect x="200" y="890" width="40" height="10"></rect>
    <rect x="760" y="890" width="40" height="10"></rect>
    <rect x="200" y="880" width="40" height="10"></rect>
    <rect x="760" y="880" width="40" height="10"></rect>
    <rect x="200" y="870" width="40" height="10"></rect>
    <rect x="760" y="870" width="40" height="10"></rect>
    <rect x="200" y="860" width="40" height="10"></rect>
    <rect x="760" y="860" width="40" height="10"></rect>
    <rect x="200" y="850" width="40" height="10"></rect>
    <rect x="760" y="850" width="40" height="10"></rect>
    <rect x="200" y="840" width="40" height="10"></rect>
    <rect x="760" y="840" width="40" height="10"></rect>
    <rect x="200" y="830" width="40" height="10"></rect>
    <rect x="760" y="830" width="40" height="10"></rect>
    <rect x="200" y="820" width="40" height="10"></rect>
    <rect x="760" y="820" width="40" height="10"></rect>
    <rect x="200" y="810" width="40" height="10"></rect>
    <rect x="760" y="810" width="40" height="10"></rect>
    <rect x="200" y="800" width="40" height="10"></rect>
    <rect x="760" y="800" width="40" height="10"></rect>
  </g>
</svg>
