<svg
  stroke="black"
  stroke-linecap="round"
  font-size="60"
  width="200px"
  height="200px"
  viewBox="0 0 1000 1000"
  xmlns="http://www.w3.org/2000/svg"
>
  <g>
    <rect fill="white" stroke="white" x="0" y="0" width="100%" height="100%"></rect>
    <rect fill="black" stroke="black" x="0" y="0" width="100%" height="100%"></rect>
  </g>
  <g fill="purple">
    <rect x="100" y="900" width="100" height="100"></rect>
    <rect x="100" y="800" width="100" height="100"></rect>
    <rect x="300" y="800" width="100" height="100"></rect>
    <rect x="400" y="900" width="100" height="100"></rect>
    <rect x="600" y="900" width="100" height="100"></rect>
    <rect x="700" y="800" width="100" height="100"></rect>
    <rect x="900" y="900" width="100" height="100"></rect>
    <rect x="900" y="800" width="100" height="100"></rect>
    <rect x="100" y="700" width="100" height="100"></rect>
    <rect x="100" y="600" width="100" height="100"></rect>
    <rect x="200" y="700" width="100" height="100"></rect>
    <rect x="200" y="600" width="100" height="100"></rect>
    <rect x="300" y="700" width="100" height="100"></rect>
    <rect x="300" y="600" width="100" height="100"></rect>
    <rect x="400" y="700" width="100" height="100"></rect>
    <rect x="400" y="600" width="100" height="100"></rect>
    <rect x="500" y="700" width="100" height="100"></rect>
    <rect x="500" y="600" width="100" height="100"></rect>
    <rect x="600" y="700" width="100" height="100"></rect>
    <rect x="600" y="600" width="100" height="100"></rect>
    <rect x="700" y="700" width="100" height="100"></rect>
    <rect x="700" y="600" width="100" height="100"></rect>
    <rect x="800" y="700" width="100" height="100"></rect>
    <rect x="800" y="600" width="100" height="100"></rect>
    <rect x="900" y="700" width="100" height="100"></rect>
    <rect x="900" y="600" width="100" height="100"></rect>
    <rect x="200" y="500" width="100" height="100"></rect>
    <rect x="200" y="400" width="100" height="100"></rect>
    <rect x="200" y="300" width="100" height="100"></rect>
    <rect x="300" y="500" width="100" height="100"></rect>
    <rect x="300" y="400" width="100" height="100"></rect>
    <rect x="300" y="300" width="100" height="100"></rect>
    <rect x="400" y="500" width="100" height="100"></rect>
    <rect x="400" y="400" width="100" height="100"></rect>
    <rect x="400" y="300" width="100" height="100"></rect>
    <rect x="500" y="500" width="100" height="100"></rect>
    <rect x="500" y="400" width="100" height="100"></rect>
    <rect x="500" y="300" width="100" height="100"></rect>
    <rect x="600" y="500" width="100" height="100"></rect>
    <rect x="600" y="400" width="100" height="100"></rect>
    <rect x="600" y="300" width="100" height="100"></rect>
    <rect x="700" y="500" width="100" height="100"></rect>
    <rect x="700" y="400" width="100" height="100"></rect>
    <rect x="700" y="300" width="100" height="100"></rect>
    <rect x="800" y="500" width="100" height="100"></rect>
    <rect x="800" y="400" width="100" height="100"></rect>
    <rect x="800" y="300" width="100" height="100"></rect>
    <rect x="300" y="200" width="100" height="100"></rect>
    <rect x="400" y="200" width="100" height="100"></rect>
    <rect x="500" y="200" width="100" height="100"></rect>
    <rect x="600" y="200" width="100" height="100"></rect>
    <rect x="700" y="200" width="100" height="100"></rect>
    <rect x="400" y="100" width="100" height="100"></rect>
    <rect x="600" y="100" width="100" height="100"></rect>
  </g>
  <g>
    <rect x="300" y="500" width="100" height="100"></rect>
    <rect x="600" y="500" width="100" height="100"></rect>
  </g>
  <g fill="beige">
    <rect x="400" y="500" width="100" height="100"></rect>
    <rect x="300" y="400" width="100" height="100"></rect>
    <rect x="400" y="400" width="100" height="100"></rect>
    <rect x="700" y="500" width="100" height="100"></rect>
    <rect x="600" y="400" width="100" height="100"></rect>
    <rect x="700" y="400" width="100" height="100"></rect>
  </g>
</svg>
