<svg
  stroke="black"
  stroke-linecap="round"
  font-size="60"
  viewBox="0 0 1000 1000"
  xmlns="http://www.w3.org/2000/svg"
>
  <rect fill="white" stroke="white" x="0" y="0" width="100%" height="100%"></rect>
  <g fill="hsl(270deg 100% 50% / 10%)" stroke-width="2">
    <rect
      x="511.5902813273083"
      y="-5.223361443385045"
      width="186.1400133046226"
      height="129.42854679674502"
    ></rect>
    <rect
      x="406.43286966908113"
      y="283.6120202912917"
      width="36.409254804369056"
      height="59.12981368319781"
    ></rect>
    <rect
      x="22.567940351726392"
      y="587.3831442909508"
      width="148.80315712551635"
      height="223.4099902475242"
    ></rect>
    <rect
      x="164.5066007910837"
      y="550.731580087511"
      width="99.51454358258246"
      height="137.2224612256058"
    ></rect>
    <rect
      x="188.14856669041814"
      y="669.5790110890887"
      width="189.77116898005406"
      height="74.63826314819107"
    ></rect>
    <rect
      x="121.85271713844502"
      y="521.3171534621082"
      width="162.66831901775564"
      height="235.6228593619716"
    ></rect>
    <rect
      x="189.0426151099066"
      y="667.0946037044961"
      width="208.14325888790296"
      height="71.64566547842465"
    ></rect>
    <rect
      x="789.8574747453109"
      y="289.742948837629"
      width="150.9550765125002"
      height="27.075770831472497"
    ></rect>
    <rect
      x="26.42307538755535"
      y="372.81485753275064"
      width="263.8104047151446"
      height="39.863405843467994"
    ></rect>
    <rect
      x="498.3055242639236"
      y="893.1890135603047"
      width="193.006146838278"
      height="95.38067025164"
    ></rect>
    <rect
      x="95.24679155759469"
      y="414.0866922642511"
      width="156.03889325022126"
      height="89.62690545402721"
    ></rect>
    <rect
      x="381.4596390074455"
      y="424.1541602786792"
      width="83.38512512876513"
      height="90.52024874123117"
    ></rect>
    <rect
      x="668.5370246766428"
      y="591.0554869397118"
      width="240.13578068540426"
      height="94.2780651599427"
    ></rect>
    <rect
      x="762.2471207571709"
      y="883.259006732153"
      width="264.2292171465656"
      height="38.572749737460754"
    ></rect>
    <rect
      x="182.10003093839367"
      y="269.98138206861347"
      width="80.37877213678814"
      height="97.8806110776312"
    ></rect>
    <rect
      x="822.7145481868513"
      y="156.8721053463259"
      width="220.2637606631653"
      height="202.55786932370205"
    ></rect>
    <rect
      x="60.80092175867435"
      y="476.3112321915367"
      width="244.24798939046815"
      height="190.66337200331094"
    ></rect>
    <rect
      x="957.5746961574519"
      y="6.144991365163037"
      width="42.709318838471766"
      height="143.2854994262201"
    ></rect>
    <rect
      x="873.4925581208863"
      y="-51.30029435499168"
      width="106.98849090705572"
      height="192.70970787641974"
    ></rect>
    <rect
      x="619.7210127258777"
      y="357.24977305813877"
      width="182.3723651482351"
      height="157.9412622531937"
    ></rect>
    <rect
      x="729.4921178629762"
      y="462.9511230367689"
      width="52.662779257243045"
      height="266.4911823350617"
    ></rect>
    <rect
      x="796.1982747471319"
      y="587.3485566654521"
      width="200.28694129816853"
      height="181.13494562733237"
    ></rect>
    <rect
      x="-2.3205321285518288"
      y="274.2130968452478"
      width="175.68207934092612"
      height="112.42321090995547"
    ></rect>
    <rect
      x="203.41678413035356"
      y="424.8630215149291"
      width="66.81152535026327"
      height="79.71017570132966"
    ></rect>
    <rect
      x="582.9318844926935"
      y="811.9567150828634"
      width="90.33257345133981"
      height="122.58071108907062"
    ></rect>
    <rect
      x="356.1441088279922"
      y="286.9538683928532"
      width="157.53673012693082"
      height="175.90220661323255"
    ></rect>
    <rect
      x="719.116499794783"
      y="67.45750581826505"
      width="20.128453879030342"
      height="204.01715037385785"
    ></rect>
    <rect
      x="314.4865000716295"
      y="440.929601921674"
      width="170.99452557073187"
      height="122.40456947124815"
    ></rect>
    <rect
      x="19.31590112802865"
      y="873.6184411591438"
      width="20.71076029371564"
      height="248.95532865323926"
    ></rect>
    <rect
      x="477.9085386382493"
      y="320.85608109743595"
      width="223.85129273334016"
      height="239.5029396631"
    ></rect>
    <rect
      x="445.1593347494395"
      y="284.10530627066396"
      width="26.56628765242236"
      height="231.45819681201044"
    ></rect>
    <rect
      x="208.7598751839152"
      y="326.5087286100254"
      width="81.86665195915714"
      height="63.41396118078319"
    ></rect>
    <rect
      x="495.8939861477944"
      y="171.81513055385312"
      width="193.45953412930237"
      height="27.580636958251716"
    ></rect>
    <rect
      x="435.36472383099624"
      y="-22.425604086693312"
      width="207.69076411989965"
      height="93.50157819875372"
    ></rect>
    <rect
      x="698.690369560604"
      y="735.044598399166"
      width="108.94181635230916"
      height="227.98271324245405"
    ></rect>
    <rect
      x="159.53075427817996"
      y="350.9358838424314"
      width="144.5985753189939"
      height="42.45902231509171"
    ></rect>
    <rect
      x="-58.47892600520487"
      y="481.5823624148464"
      width="167.3457716001998"
      height="252.40290886225756"
    ></rect>
    <rect
      x="510.616465399957"
      y="332.35110612973733"
      width="122.94067208625405"
      height="158.14509745356096"
    ></rect>
    <rect
      x="381.9563285177701"
      y="18.623447359892467"
      width="219.30213522770072"
      height="46.84527820518802"
    ></rect>
    <rect
      x="756.7332426242781"
      y="572.9949049787123"
      width="52.60346154344795"
      height="67.508191584802"
    ></rect>
    <rect
      x="717.527807392617"
      y="270.9110550546918"
      width="44.595947246433155"
      height="150.09507142805694"
    ></rect>
    <rect
      x="80.20588093196577"
      y="798.7555872530827"
      width="39.04756557593876"
      height="98.80202133003112"
    ></rect>
    <rect
      x="109.32458610642033"
      y="784.811623750539"
      width="100.65267071694939"
      height="154.76862925986984"
    ></rect>
    <rect
      x="475.3297360833137"
      y="395.5882162469984"
      width="191.04378252436376"
      height="183.2600512838402"
    ></rect>
    <rect
      x="424.95371268715616"
      y="256.14933882108147"
      width="199.09209372541778"
      height="179.16105350954496"
    ></rect>
    <rect
      x="-9.42795024442705"
      y="913.1788405673184"
      width="44.50771870157625"
      height="112.27792729108621"
    ></rect>
    <rect
      x="773.4147484189469"
      y="610.69331345245"
      width="106.07875443159016"
      height="83.24995591196102"
    ></rect>
    <rect
      x="156.2122909959915"
      y="371.68573140565354"
      width="120.51771131795766"
      height="146.62426591910457"
    ></rect>
    <rect
      x="55.1886563155162"
      y="571.0957555497893"
      width="226.98202403763972"
      height="195.07196828645377"
    ></rect>
    <rect
      x="-3.5162857382237345"
      y="-23.11881981593381"
      width="122.885090805119"
      height="47.918659191201236"
    ></rect>
    <rect
      x="764.0672564966916"
      y="808.5453985728041"
      width="33.37365612360191"
      height="198.67395397290738"
    ></rect>
    <rect
      x="119.02704117034614"
      y="114.79696046555313"
      width="263.4704685176682"
      height="73.14023726257989"
    ></rect>
    <rect
      x="-0.08748611188555522"
      y="-35.923932204322966"
      width="43.242538874981236"
      height="181.4583436309942"
    ></rect>
    <rect
      x="240.98063675450786"
      y="531.2256764956247"
      width="141.8098121450924"
      height="40.6199191278375"
    ></rect>
    <rect
      x="549.2947128266006"
      y="471.0763098136999"
      width="245.06878681607787"
      height="257.47080152531333"
    ></rect>
    <rect
      x="259.2772279643907"
      y="488.1384224569053"
      width="120.10807928545321"
      height="24.952167581362986"
    ></rect>
    <rect
      x="592.5892720960344"
      y="450.3806323237545"
      width="104.89918784682749"
      height="241.8618752126251"
    ></rect>
    <rect
      x="221.85814337484996"
      y="134.04462806152986"
      width="28.938661859021096"
      height="201.8943140103807"
    ></rect>
    <rect
      x="606.7805823590813"
      y="386.38386160474727"
      width="38.11208919808783"
      height="201.0572646147921"
    ></rect>
    <rect
      x="763.907313522624"
      y="-91.78821962646018"
      width="231.87506556617035"
      height="228.04948453748327"
    ></rect>
  </g>
</svg>
