<svg
  stroke="black"
  stroke-linecap="round"
  font-size="60"
  width="200px"
  height="200px"
  viewBox="0 0 1000 1000"
  xmlns="http://www.w3.org/2000/svg"
>
  <rect fill="white" stroke="white" x="0" y="0" width="100%" height="100%"></rect>
  <g fill="hsl(270deg 100% 50% / 10%)" stroke-width="2">
    <rect x="511.3623046875" y="-5.1171875" width="186.259765625" height="129.375"></rect>
    <rect x="406.6259765625" y="283.9453125" width="36.357421875" height="59.0625"></rect>
    <rect x="22.2265625" y="587.5341796875" width="148.90625" height="223.369140625"></rect>
    <rect x="164.072265625" y="550.546875" width="99.58984375" height="137.1875"></rect>
    <rect x="188.3642578125" y="669.6875" width="189.677734375" height="74.6875"></rect>
    <rect x="121.8359375" y="520.8837890625" width="162.578125" height="235.576171875"></rect>
    <rect x="188.8525390625" y="667.24609375" width="208.232421875" height="71.7578125"></rect>
    <rect x="789.8046875" y="290.1708984375" width="150.859375" height="27.080078125"></rect>
    <rect x="26.2548828125" y="372.6904296875" width="263.896484375" height="39.775390625"></rect>
    <rect x="498.1787109375" y="892.7099609375" width="193.095703125" height="95.439453125"></rect>
    <rect x="94.8583984375" y="414.1943359375" width="155.986328125" height="89.580078125"></rect>
    <rect x="381.11328125" y="424.4482421875" width="83.4765625" height="90.556640625"></rect>
    <rect x="668.955078125" y="591.5625" width="240.21484375" height="94.21875"></rect>
    <rect x="762.4609375" y="883.06640625" width="264.140625" height="38.5546875"></rect>
    <rect x="182.5048828125" y="270.3955078125" width="80.302734375" height="97.880859375"></rect>
    <rect x="822.51953125" y="156.50390625" width="220.1953125" height="202.6171875"></rect>
    <rect x="60.4345703125" y="475.9619140625" width="244.365234375" height="190.654296875"></rect>
    <rect x="957.1630859375" y="6.4794921875" width="42.705078125" height="143.291015625"></rect>
    <rect x="873.30078125" y="-51.3818359375" width="106.9140625" height="192.607421875"></rect>
    <rect x="619.7607421875" y="357.5537109375" width="182.353515625" height="157.939453125"></rect>
    <rect x="729.501953125" y="463.388671875" width="52.71484375" height="266.58203125"></rect>
    <rect x="796.396484375" y="587.16796875" width="200.17578125" height="181.1328125"></rect>
    <rect x="-1.943359375" y="273.8134765625" width="175.76171875" height="112.529296875"></rect>
    <rect x="203.8671875" y="424.9365234375" width="66.875" height="79.814453125"></rect>
    <rect x="582.7734375" y="811.77734375" width="90.3125" height="122.5390625"></rect>
    <rect x="355.8447265625" y="286.9970703125" width="157.451171875" height="176.005859375"></rect>
    <rect x="719.3701171875" y="67.880859375" width="20.244140625" height="204.08203125"></rect>
    <rect x="314.951171875" y="440.8056640625" width="170.87890625" height="122.294921875"></rect>
    <rect x="18.9306640625" y="873.544921875" width="20.732421875" height="249.00390625"></rect>
    <rect x="477.9150390625" y="320.6884765625" width="223.857421875" height="239.482421875"></rect>
    <rect x="444.7119140625" y="283.701171875" width="26.591796875" height="231.42578125"></rect>
    <rect x="209.1162109375" y="326.669921875" width="81.767578125" height="63.45703125"></rect>
    <rect x="496.103515625" y="171.7626953125" width="193.33984375" height="27.568359375"></rect>
    <rect x="435.1904296875" y="-22.3291015625" width="207.744140625" height="93.486328125"></rect>
    <rect x="698.49609375" y="734.62890625" width="108.8671875" height="228.0078125"></rect>
    <rect x="159.189453125" y="350.83984375" width="144.51171875" height="42.4609375"></rect>
    <rect x="-58.33984375" y="481.2109375" width="167.4609375" height="252.421875"></rect>
    <rect x="510.751953125" y="332.041015625" width="123.02734375" height="158.18359375"></rect>
    <rect x="381.6015625" y="18.564453125" width="219.21875" height="46.85546875"></rect>
    <rect x="756.845703125" y="572.6416015625" width="52.71484375" height="67.607421875"></rect>
    <rect x="717.9052734375" y="270.6396484375" width="44.658203125" height="150.126953125"></rect>
    <rect x="80.087890625" y="799.2041015625" width="39.04296875" height="98.857421875"></rect>
    <rect x="108.896484375" y="784.921875" width="100.56640625" height="154.765625"></rect>
    <rect x="475.7177734375" y="395.6396484375" width="191.142578125" height="183.330078125"></rect>
    <rect x="424.814453125" y="256.11328125" width="199.19921875" height="179.1796875"></rect>
    <rect x="-9.51171875" y="913.583984375" width="44.4140625" height="112.28515625"></rect>
    <rect x="773.0810546875" y="610.7275390625" width="106.181640625" height="83.232421875"></rect>
    <rect x="156.50390625" y="371.9580078125" width="120.5859375" height="146.708984375"></rect>
    <rect x="55.4296875" y="571.4208984375" width="227.03125" height="195.048828125"></rect>
    <rect x="-3.7744140625" y="-22.939453125" width="122.783203125" height="47.83203125"></rect>
    <rect x="763.5595703125" y="808.84765625" width="33.427734375" height="198.7109375"></rect>
    <rect x="119.2724609375" y="114.755859375" width="263.408203125" height="73.22265625"></rect>
    <rect x="-0.1123046875" y="-36.0009765625" width="43.193359375" height="181.376953125"></rect>
    <rect x="240.6103515625" y="531.50390625" width="141.826171875" height="40.5078125"></rect>
    <rect x="549.326171875" y="470.8349609375" width="245.09765625" height="257.548828125"></rect>
    <rect x="259.287109375" y="488.53515625" width="120.09765625" height="24.8828125"></rect>
    <rect x="593.02734375" y="450.3271484375" width="104.9609375" height="241.923828125"></rect>
    <rect x="221.8115234375" y="134.4091796875" width="29.033203125" height="201.884765625"></rect>
    <rect x="606.943359375" y="386.728515625" width="38.06640625" height="201.15234375"></rect>
    <rect x="763.92578125" y="-91.54296875" width="231.9140625" height="228.0078125"></rect>
  </g>
</svg>
