<svg
  stroke="black"
  stroke-linecap="round"
  font-size="60"
  width="200px"
  height="200px"
  viewBox="0 0 1000 1000"
  xmlns="http://www.w3.org/2000/svg"
>
  <rect fill="white" stroke="white" x="0" y="0" width="100%" height="100%"></rect>
  <rect
    fill="hsl(6.5deg 6.5% 50% / 100%)"
    stroke="hsl(6.5deg 6.5% 50% / 100%)"
    x="65"
    y="865"
    width="70"
    height="70"
  ></rect>
  <rect
    fill="hsl(6.5deg 16.5% 50% / 100%)"
    stroke="hsl(6.5deg 16.5% 50% / 100%)"
    x="65"
    y="765"
    width="70"
    height="70"
  ></rect>
  <rect
    fill="hsl(6.5deg 26.5% 50% / 100%)"
    stroke="hsl(6.5deg 26.5% 50% / 100%)"
    x="65"
    y="665"
    width="70"
    height="70"
  ></rect>
  <rect
    fill="hsl(6.5deg 36.5% 50% / 100%)"
    stroke="hsl(6.5deg 36.5% 50% / 100%)"
    x="65"
    y="565"
    width="70"
    height="70"
  ></rect>
  <rect
    fill="hsl(6.5deg 46.5% 50% / 100%)"
    stroke="hsl(6.5deg 46.5% 50% / 100%)"
    x="65"
    y="465"
    width="70"
    height="70"
  ></rect>
  <rect
    fill="hsl(6.5deg 56.5% 50% / 100%)"
    stroke="hsl(6.5deg 56.5% 50% / 100%)"
    x="65"
    y="365"
    width="70"
    height="70"
  ></rect>
  <rect
    fill="hsl(6.5deg 66.5% 50% / 100%)"
    stroke="hsl(6.5deg 66.5% 50% / 100%)"
    x="65"
    y="265"
    width="70"
    height="70"
  ></rect>
  <rect
    fill="hsl(6.5deg 76.5% 50% / 100%)"
    stroke="hsl(6.5deg 76.5% 50% / 100%)"
    x="65"
    y="165"
    width="70"
    height="70"
  ></rect>
  <rect
    fill="hsl(6.5deg 86.5% 50% / 100%)"
    stroke="hsl(6.5deg 86.5% 50% / 100%)"
    x="65"
    y="65"
    width="70"
    height="70"
  ></rect>
  <rect
    fill="hsl(16.5deg 6.5% 50% / 100%)"
    stroke="hsl(16.5deg 6.5% 50% / 100%)"
    x="165"
    y="865"
    width="70"
    height="70"
  ></rect>
  <rect
    fill="hsl(16.5deg 16.5% 50% / 100%)"
    stroke="hsl(16.5deg 16.5% 50% / 100%)"
    x="165"
    y="765"
    width="70"
    height="70"
  ></rect>
  <rect
    fill="hsl(16.5deg 26.5% 50% / 100%)"
    stroke="hsl(16.5deg 26.5% 50% / 100%)"
    x="165"
    y="665"
    width="70"
    height="70"
  ></rect>
  <rect
    fill="hsl(16.5deg 36.5% 50% / 100%)"
    stroke="hsl(16.5deg 36.5% 50% / 100%)"
    x="165"
    y="565"
    width="70"
    height="70"
  ></rect>
  <rect
    fill="hsl(16.5deg 46.5% 50% / 100%)"
    stroke="hsl(16.5deg 46.5% 50% / 100%)"
    x="165"
    y="465"
    width="70"
    height="70"
  ></rect>
  <rect
    fill="hsl(16.5deg 56.5% 50% / 100%)"
    stroke="hsl(16.5deg 56.5% 50% / 100%)"
    x="165"
    y="365"
    width="70"
    height="70"
  ></rect>
  <rect
    fill="hsl(16.5deg 66.5% 50% / 100%)"
    stroke="hsl(16.5deg 66.5% 50% / 100%)"
    x="165"
    y="265"
    width="70"
    height="70"
  ></rect>
  <rect
    fill="hsl(16.5deg 76.5% 50% / 100%)"
    stroke="hsl(16.5deg 76.5% 50% / 100%)"
    x="165"
    y="165"
    width="70"
    height="70"
  ></rect>
  <rect
    fill="hsl(16.5deg 86.5% 50% / 100%)"
    stroke="hsl(16.5deg 86.5% 50% / 100%)"
    x="165"
    y="65"
    width="70"
    height="70"
  ></rect>
  <rect
    fill="hsl(26.5deg 6.5% 50% / 100%)"
    stroke="hsl(26.5deg 6.5% 50% / 100%)"
    x="265"
    y="865"
    width="70"
    height="70"
  ></rect>
  <rect
    fill="hsl(26.5deg 16.5% 50% / 100%)"
    stroke="hsl(26.5deg 16.5% 50% / 100%)"
    x="265"
    y="765"
    width="70"
    height="70"
  ></rect>
  <rect
    fill="hsl(26.5deg 26.5% 50% / 100%)"
    stroke="hsl(26.5deg 26.5% 50% / 100%)"
    x="265"
    y="665"
    width="70"
    height="70"
  ></rect>
  <rect
    fill="hsl(26.5deg 36.5% 50% / 100%)"
    stroke="hsl(26.5deg 36.5% 50% / 100%)"
    x="265"
    y="565"
    width="70"
    height="70"
  ></rect>
  <rect
    fill="hsl(26.5deg 46.5% 50% / 100%)"
    stroke="hsl(26.5deg 46.5% 50% / 100%)"
    x="265"
    y="465"
    width="70"
    height="70"
  ></rect>
  <rect
    fill="hsl(26.5deg 56.5% 50% / 100%)"
    stroke="hsl(26.5deg 56.5% 50% / 100%)"
    x="265"
    y="365"
    width="70"
    height="70"
  ></rect>
  <rect
    fill="hsl(26.5deg 66.5% 50% / 100%)"
    stroke="hsl(26.5deg 66.5% 50% / 100%)"
    x="265"
    y="265"
    width="70"
    height="70"
  ></rect>
  <rect
    fill="hsl(26.5deg 76.5% 50% / 100%)"
    stroke="hsl(26.5deg 76.5% 50% / 100%)"
    x="265"
    y="165"
    width="70"
    height="70"
  ></rect>
  <rect
    fill="hsl(26.5deg 86.5% 50% / 100%)"
    stroke="hsl(26.5deg 86.5% 50% / 100%)"
    x="265"
    y="65"
    width="70"
    height="70"
  ></rect>
  <rect
    fill="hsl(36.5deg 6.5% 50% / 100%)"
    stroke="hsl(36.5deg 6.5% 50% / 100%)"
    x="365"
    y="865"
    width="70"
    height="70"
  ></rect>
  <rect
    fill="hsl(36.5deg 16.5% 50% / 100%)"
    stroke="hsl(36.5deg 16.5% 50% / 100%)"
    x="365"
    y="765"
    width="70"
    height="70"
  ></rect>
  <rect
    fill="hsl(36.5deg 26.5% 50% / 100%)"
    stroke="hsl(36.5deg 26.5% 50% / 100%)"
    x="365"
    y="665"
    width="70"
    height="70"
  ></rect>
  <rect
    fill="hsl(36.5deg 36.5% 50% / 100%)"
    stroke="hsl(36.5deg 36.5% 50% / 100%)"
    x="365"
    y="565"
    width="70"
    height="70"
  ></rect>
  <rect
    fill="hsl(36.5deg 46.5% 50% / 100%)"
    stroke="hsl(36.5deg 46.5% 50% / 100%)"
    x="365"
    y="465"
    width="70"
    height="70"
  ></rect>
  <rect
    fill="hsl(36.5deg 56.5% 50% / 100%)"
    stroke="hsl(36.5deg 56.5% 50% / 100%)"
    x="365"
    y="365"
    width="70"
    height="70"
  ></rect>
  <rect
    fill="hsl(36.5deg 66.5% 50% / 100%)"
    stroke="hsl(36.5deg 66.5% 50% / 100%)"
    x="365"
    y="265"
    width="70"
    height="70"
  ></rect>
  <rect
    fill="hsl(36.5deg 76.5% 50% / 100%)"
    stroke="hsl(36.5deg 76.5% 50% / 100%)"
    x="365"
    y="165"
    width="70"
    height="70"
  ></rect>
  <rect
    fill="hsl(36.5deg 86.5% 50% / 100%)"
    stroke="hsl(36.5deg 86.5% 50% / 100%)"
    x="365"
    y="65"
    width="70"
    height="70"
  ></rect>
  <rect
    fill="hsl(46.5deg 6.5% 50% / 100%)"
    stroke="hsl(46.5deg 6.5% 50% / 100%)"
    x="465"
    y="865"
    width="70"
    height="70"
  ></rect>
  <rect
    fill="hsl(46.5deg 16.5% 50% / 100%)"
    stroke="hsl(46.5deg 16.5% 50% / 100%)"
    x="465"
    y="765"
    width="70"
    height="70"
  ></rect>
  <rect
    fill="hsl(46.5deg 26.5% 50% / 100%)"
    stroke="hsl(46.5deg 26.5% 50% / 100%)"
    x="465"
    y="665"
    width="70"
    height="70"
  ></rect>
  <rect
    fill="hsl(46.5deg 36.5% 50% / 100%)"
    stroke="hsl(46.5deg 36.5% 50% / 100%)"
    x="465"
    y="565"
    width="70"
    height="70"
  ></rect>
  <rect
    fill="hsl(46.5deg 46.5% 50% / 100%)"
    stroke="hsl(46.5deg 46.5% 50% / 100%)"
    x="465"
    y="465"
    width="70"
    height="70"
  ></rect>
  <rect
    fill="hsl(46.5deg 56.5% 50% / 100%)"
    stroke="hsl(46.5deg 56.5% 50% / 100%)"
    x="465"
    y="365"
    width="70"
    height="70"
  ></rect>
  <rect
    fill="hsl(46.5deg 66.5% 50% / 100%)"
    stroke="hsl(46.5deg 66.5% 50% / 100%)"
    x="465"
    y="265"
    width="70"
    height="70"
  ></rect>
  <rect
    fill="hsl(46.5deg 76.5% 50% / 100%)"
    stroke="hsl(46.5deg 76.5% 50% / 100%)"
    x="465"
    y="165"
    width="70"
    height="70"
  ></rect>
  <rect
    fill="hsl(46.5deg 86.5% 50% / 100%)"
    stroke="hsl(46.5deg 86.5% 50% / 100%)"
    x="465"
    y="65"
    width="70"
    height="70"
  ></rect>
  <rect
    fill="hsl(56.5deg 6.5% 50% / 100%)"
    stroke="hsl(56.5deg 6.5% 50% / 100%)"
    x="565"
    y="865"
    width="70"
    height="70"
  ></rect>
  <rect
    fill="hsl(56.5deg 16.5% 50% / 100%)"
    stroke="hsl(56.5deg 16.5% 50% / 100%)"
    x="565"
    y="765"
    width="70"
    height="70"
  ></rect>
  <rect
    fill="hsl(56.5deg 26.5% 50% / 100%)"
    stroke="hsl(56.5deg 26.5% 50% / 100%)"
    x="565"
    y="665"
    width="70"
    height="70"
  ></rect>
  <rect
    fill="hsl(56.5deg 36.5% 50% / 100%)"
    stroke="hsl(56.5deg 36.5% 50% / 100%)"
    x="565"
    y="565"
    width="70"
    height="70"
  ></rect>
  <rect
    fill="hsl(56.5deg 46.5% 50% / 100%)"
    stroke="hsl(56.5deg 46.5% 50% / 100%)"
    x="565"
    y="465"
    width="70"
    height="70"
  ></rect>
  <rect
    fill="hsl(56.5deg 56.5% 50% / 100%)"
    stroke="hsl(56.5deg 56.5% 50% / 100%)"
    x="565"
    y="365"
    width="70"
    height="70"
  ></rect>
  <rect
    fill="hsl(56.5deg 66.5% 50% / 100%)"
    stroke="hsl(56.5deg 66.5% 50% / 100%)"
    x="565"
    y="265"
    width="70"
    height="70"
  ></rect>
  <rect
    fill="hsl(56.5deg 76.5% 50% / 100%)"
    stroke="hsl(56.5deg 76.5% 50% / 100%)"
    x="565"
    y="165"
    width="70"
    height="70"
  ></rect>
  <rect
    fill="hsl(56.5deg 86.5% 50% / 100%)"
    stroke="hsl(56.5deg 86.5% 50% / 100%)"
    x="565"
    y="65"
    width="70"
    height="70"
  ></rect>
  <rect
    fill="hsl(66.5deg 6.5% 50% / 100%)"
    stroke="hsl(66.5deg 6.5% 50% / 100%)"
    x="665"
    y="865"
    width="70"
    height="70"
  ></rect>
  <rect
    fill="hsl(66.5deg 16.5% 50% / 100%)"
    stroke="hsl(66.5deg 16.5% 50% / 100%)"
    x="665"
    y="765"
    width="70"
    height="70"
  ></rect>
  <rect
    fill="hsl(66.5deg 26.5% 50% / 100%)"
    stroke="hsl(66.5deg 26.5% 50% / 100%)"
    x="665"
    y="665"
    width="70"
    height="70"
  ></rect>
  <rect
    fill="hsl(66.5deg 36.5% 50% / 100%)"
    stroke="hsl(66.5deg 36.5% 50% / 100%)"
    x="665"
    y="565"
    width="70"
    height="70"
  ></rect>
  <rect
    fill="hsl(66.5deg 46.5% 50% / 100%)"
    stroke="hsl(66.5deg 46.5% 50% / 100%)"
    x="665"
    y="465"
    width="70"
    height="70"
  ></rect>
  <rect
    fill="hsl(66.5deg 56.5% 50% / 100%)"
    stroke="hsl(66.5deg 56.5% 50% / 100%)"
    x="665"
    y="365"
    width="70"
    height="70"
  ></rect>
  <rect
    fill="hsl(66.5deg 66.5% 50% / 100%)"
    stroke="hsl(66.5deg 66.5% 50% / 100%)"
    x="665"
    y="265"
    width="70"
    height="70"
  ></rect>
  <rect
    fill="hsl(66.5deg 76.5% 50% / 100%)"
    stroke="hsl(66.5deg 76.5% 50% / 100%)"
    x="665"
    y="165"
    width="70"
    height="70"
  ></rect>
  <rect
    fill="hsl(66.5deg 86.5% 50% / 100%)"
    stroke="hsl(66.5deg 86.5% 50% / 100%)"
    x="665"
    y="65"
    width="70"
    height="70"
  ></rect>
  <rect
    fill="hsl(76.5deg 6.5% 50% / 100%)"
    stroke="hsl(76.5deg 6.5% 50% / 100%)"
    x="765"
    y="865"
    width="70"
    height="70"
  ></rect>
  <rect
    fill="hsl(76.5deg 16.5% 50% / 100%)"
    stroke="hsl(76.5deg 16.5% 50% / 100%)"
    x="765"
    y="765"
    width="70"
    height="70"
  ></rect>
  <rect
    fill="hsl(76.5deg 26.5% 50% / 100%)"
    stroke="hsl(76.5deg 26.5% 50% / 100%)"
    x="765"
    y="665"
    width="70"
    height="70"
  ></rect>
  <rect
    fill="hsl(76.5deg 36.5% 50% / 100%)"
    stroke="hsl(76.5deg 36.5% 50% / 100%)"
    x="765"
    y="565"
    width="70"
    height="70"
  ></rect>
  <rect
    fill="hsl(76.5deg 46.5% 50% / 100%)"
    stroke="hsl(76.5deg 46.5% 50% / 100%)"
    x="765"
    y="465"
    width="70"
    height="70"
  ></rect>
  <rect
    fill="hsl(76.5deg 56.5% 50% / 100%)"
    stroke="hsl(76.5deg 56.5% 50% / 100%)"
    x="765"
    y="365"
    width="70"
    height="70"
  ></rect>
  <rect
    fill="hsl(76.5deg 66.5% 50% / 100%)"
    stroke="hsl(76.5deg 66.5% 50% / 100%)"
    x="765"
    y="265"
    width="70"
    height="70"
  ></rect>
  <rect
    fill="hsl(76.5deg 76.5% 50% / 100%)"
    stroke="hsl(76.5deg 76.5% 50% / 100%)"
    x="765"
    y="165"
    width="70"
    height="70"
  ></rect>
  <rect
    fill="hsl(76.5deg 86.5% 50% / 100%)"
    stroke="hsl(76.5deg 86.5% 50% / 100%)"
    x="765"
    y="65"
    width="70"
    height="70"
  ></rect>
  <rect
    fill="hsl(86.5deg 6.5% 50% / 100%)"
    stroke="hsl(86.5deg 6.5% 50% / 100%)"
    x="865"
    y="865"
    width="70"
    height="70"
  ></rect>
  <rect
    fill="hsl(86.5deg 16.5% 50% / 100%)"
    stroke="hsl(86.5deg 16.5% 50% / 100%)"
    x="865"
    y="765"
    width="70"
    height="70"
  ></rect>
  <rect
    fill="hsl(86.5deg 26.5% 50% / 100%)"
    stroke="hsl(86.5deg 26.5% 50% / 100%)"
    x="865"
    y="665"
    width="70"
    height="70"
  ></rect>
  <rect
    fill="hsl(86.5deg 36.5% 50% / 100%)"
    stroke="hsl(86.5deg 36.5% 50% / 100%)"
    x="865"
    y="565"
    width="70"
    height="70"
  ></rect>
  <rect
    fill="hsl(86.5deg 46.5% 50% / 100%)"
    stroke="hsl(86.5deg 46.5% 50% / 100%)"
    x="865"
    y="465"
    width="70"
    height="70"
  ></rect>
  <rect
    fill="hsl(86.5deg 56.5% 50% / 100%)"
    stroke="hsl(86.5deg 56.5% 50% / 100%)"
    x="865"
    y="365"
    width="70"
    height="70"
  ></rect>
  <rect
    fill="hsl(86.5deg 66.5% 50% / 100%)"
    stroke="hsl(86.5deg 66.5% 50% / 100%)"
    x="865"
    y="265"
    width="70"
    height="70"
  ></rect>
  <rect
    fill="hsl(86.5deg 76.5% 50% / 100%)"
    stroke="hsl(86.5deg 76.5% 50% / 100%)"
    x="865"
    y="165"
    width="70"
    height="70"
  ></rect>
  <rect
    fill="hsl(86.5deg 86.5% 50% / 100%)"
    stroke="hsl(86.5deg 86.5% 50% / 100%)"
    x="865"
    y="65"
    width="70"
    height="70"
  ></rect>
</svg>
