<svg
  stroke="black"
  stroke-linecap="round"
  font-size="60"
  viewBox="0 0 1000 1000"
  xmlns="http://www.w3.org/2000/svg"
>
  <rect fill="white" stroke="white" x="0" y="0" width="100%" height="100%"></rect>
  <rect fill="darkblue" stroke="darkblue" x="0" y="0" width="3" height="1000"></rect>
  <rect fill="darkblue" stroke="darkblue" x="3" y="0" width="3" height="1000"></rect>
  <rect fill="darkblue" stroke="darkblue" x="6" y="0" width="3" height="1000"></rect>
  <rect fill="darkblue" stroke="darkblue" x="9" y="0" width="3" height="1000"></rect>
  <rect fill="darkblue" stroke="darkblue" x="12" y="0" width="3" height="1000"></rect>
  <rect fill="mediumblue" stroke="mediumblue" x="15" y="0" width="3" height="1000"></rect>
  <rect fill="darkblue" stroke="darkblue" x="18" y="0" width="3" height="1000"></rect>
  <rect fill="darkblue" stroke="darkblue" x="21" y="0" width="3" height="1000"></rect>
  <rect fill="darkblue" stroke="darkblue" x="24" y="0" width="3" height="1000"></rect>
  <rect
    fill="darkblue"
    stroke="darkblue"
    x="26.999999999999996"
    y="0"
    width="3"
    height="1000"
  ></rect>
  <rect
    fill="darkblue"
    stroke="darkblue"
    x="29.999999999999996"
    y="0"
    width="3"
    height="1000"
  ></rect>
  <rect
    fill="darkblue"
    stroke="darkblue"
    x="32.99999999999999"
    y="0"
    width="3"
    height="1000"
  ></rect>
  <rect
    fill="darkblue"
    stroke="darkblue"
    x="35.99999999999999"
    y="0"
    width="3"
    height="1000"
  ></rect>
  <rect
    fill="darkblue"
    stroke="darkblue"
    x="38.99999999999999"
    y="0"
    width="3"
    height="1000"
  ></rect>
  <rect
    fill="darkblue"
    stroke="darkblue"
    x="41.99999999999999"
    y="0"
    width="3"
    height="1000"
  ></rect>
  <rect
    fill="mediumblue"
    stroke="mediumblue"
    x="44.99999999999999"
    y="0"
    width="3"
    height="1000"
  ></rect>
  <rect
    fill="darkblue"
    stroke="darkblue"
    x="47.999999999999986"
    y="0"
    width="3"
    height="1000"
  ></rect>
  <rect
    fill="darkblue"
    stroke="darkblue"
    x="50.999999999999986"
    y="0"
    width="3"
    height="1000"
  ></rect>
  <rect
    fill="darkblue"
    stroke="darkblue"
    x="53.999999999999986"
    y="0"
    width="3"
    height="1000"
  ></rect>
  <rect
    fill="darkblue"
    stroke="darkblue"
    x="56.999999999999986"
    y="0"
    width="3"
    height="1000"
  ></rect>
  <rect
    fill="darkblue"
    stroke="darkblue"
    x="59.999999999999986"
    y="0"
    width="3"
    height="1000"
  ></rect>
  <rect
    fill="darkblue"
    stroke="darkblue"
    x="62.99999999999998"
    y="0"
    width="3"
    height="1000"
  ></rect>
  <rect
    fill="darkblue"
    stroke="darkblue"
    x="65.99999999999997"
    y="0"
    width="3"
    height="1000"
  ></rect>
  <rect
    fill="darkblue"
    stroke="darkblue"
    x="68.99999999999997"
    y="0"
    width="3"
    height="1000"
  ></rect>
  <rect
    fill="darkblue"
    stroke="darkblue"
    x="71.99999999999997"
    y="0"
    width="3"
    height="1000"
  ></rect>
  <rect
    fill="mediumblue"
    stroke="mediumblue"
    x="74.99999999999997"
    y="0"
    width="3"
    height="1000"
  ></rect>
  <rect fill="blue" stroke="blue" x="77.99999999999997" y="0" width="3" height="1000"></rect>
  <rect
    fill="mediumblue"
    stroke="mediumblue"
    x="80.99999999999997"
    y="0"
    width="3"
    height="1000"
  ></rect>
  <rect
    fill="mediumblue"
    stroke="mediumblue"
    x="83.99999999999999"
    y="0"
    width="3"
    height="1000"
  ></rect>
  <rect fill="mediumblue" stroke="mediumblue" x="87" y="0" width="3" height="1000"></rect>
  <rect fill="blue" stroke="blue" x="90" y="0" width="3" height="1000"></rect>
  <rect fill="mediumblue" stroke="mediumblue" x="93" y="0" width="3" height="1000"></rect>
  <rect
    fill="mediumblue"
    stroke="mediumblue"
    x="96.00000000000001"
    y="0"
    width="3"
    height="1000"
  ></rect>
  <rect
    fill="darkblue"
    stroke="darkblue"
    x="99.00000000000003"
    y="0"
    width="3"
    height="1000"
  ></rect>
  <rect
    fill="mediumblue"
    stroke="mediumblue"
    x="102.00000000000003"
    y="0"
    width="3"
    height="1000"
  ></rect>
  <rect fill="blue" stroke="blue" x="105.00000000000003" y="0" width="3" height="1000"></rect>
  <rect fill="blue" stroke="blue" x="108.00000000000004" y="0" width="3" height="1000"></rect>
  <rect
    fill="mediumblue"
    stroke="mediumblue"
    x="111.00000000000006"
    y="0"
    width="3"
    height="1000"
  ></rect>
  <rect
    fill="mediumblue"
    stroke="mediumblue"
    x="114.00000000000006"
    y="0"
    width="3"
    height="1000"
  ></rect>
  <rect
    fill="mediumblue"
    stroke="mediumblue"
    x="117.00000000000006"
    y="0"
    width="3"
    height="1000"
  ></rect>
  <rect
    fill="mediumblue"
    stroke="mediumblue"
    x="120.00000000000007"
    y="0"
    width="3"
    height="1000"
  ></rect>
  <rect
    fill="mediumblue"
    stroke="mediumblue"
    x="123.00000000000009"
    y="0"
    width="3"
    height="1000"
  ></rect>
  <rect
    fill="darkblue"
    stroke="darkblue"
    x="126.00000000000009"
    y="0"
    width="3"
    height="1000"
  ></rect>
  <rect
    fill="mediumblue"
    stroke="mediumblue"
    x="129.00000000000009"
    y="0"
    width="3"
    height="1000"
  ></rect>
  <rect
    fill="mediumblue"
    stroke="mediumblue"
    x="132.0000000000001"
    y="0"
    width="3"
    height="1000"
  ></rect>
  <rect
    fill="darkblue"
    stroke="darkblue"
    x="135.0000000000001"
    y="0"
    width="3"
    height="1000"
  ></rect>
  <rect
    fill="darkblue"
    stroke="darkblue"
    x="138.0000000000001"
    y="0"
    width="3"
    height="1000"
  ></rect>
  <rect
    fill="mediumblue"
    stroke="mediumblue"
    x="141.0000000000001"
    y="0"
    width="3"
    height="1000"
  ></rect>
  <rect fill="blue" stroke="blue" x="144.0000000000001" y="0" width="3" height="1000"></rect>
  <rect
    fill="mediumblue"
    stroke="mediumblue"
    x="147.00000000000014"
    y="0"
    width="3"
    height="1000"
  ></rect>
  <rect
    fill="darkblue"
    stroke="darkblue"
    x="150.00000000000014"
    y="0"
    width="3"
    height="1000"
  ></rect>
  <rect
    fill="darkblue"
    stroke="darkblue"
    x="153.00000000000014"
    y="0"
    width="3"
    height="1000"
  ></rect>
  <rect
    fill="mediumblue"
    stroke="mediumblue"
    x="156.00000000000017"
    y="0"
    width="3"
    height="1000"
  ></rect>
  <rect
    fill="mediumblue"
    stroke="mediumblue"
    x="159.00000000000017"
    y="0"
    width="3"
    height="1000"
  ></rect>
  <rect
    fill="royalblue"
    stroke="royalblue"
    x="162.00000000000017"
    y="0"
    width="3"
    height="1000"
  ></rect>
  <rect
    fill="mediumblue"
    stroke="mediumblue"
    x="165.00000000000017"
    y="0"
    width="3"
    height="1000"
  ></rect>
  <rect fill="blue" stroke="blue" x="168.00000000000017" y="0" width="3" height="1000"></rect>
  <rect
    fill="mediumblue"
    stroke="mediumblue"
    x="171.0000000000002"
    y="0"
    width="3"
    height="1000"
  ></rect>
  <rect
    fill="royalblue"
    stroke="royalblue"
    x="174.0000000000002"
    y="0"
    width="3"
    height="1000"
  ></rect>
  <rect fill="blue" stroke="blue" x="177.0000000000002" y="0" width="3" height="1000"></rect>
  <rect fill="blue" stroke="blue" x="180.00000000000023" y="0" width="3" height="1000"></rect>
  <rect
    fill="cornflowerblue"
    stroke="cornflowerblue"
    x="183.00000000000023"
    y="0"
    width="3"
    height="1000"
  ></rect>
  <rect
    fill="royalblue"
    stroke="royalblue"
    x="186.00000000000023"
    y="0"
    width="3"
    height="1000"
  ></rect>
  <rect
    fill="mediumblue"
    stroke="mediumblue"
    x="189.00000000000023"
    y="0"
    width="3"
    height="1000"
  ></rect>
  <rect
    fill="mediumblue"
    stroke="mediumblue"
    x="192.00000000000023"
    y="0"
    width="3"
    height="1000"
  ></rect>
  <rect
    fill="mediumblue"
    stroke="mediumblue"
    x="195.00000000000026"
    y="0"
    width="3"
    height="1000"
  ></rect>
  <rect
    fill="royalblue"
    stroke="royalblue"
    x="198.00000000000026"
    y="0"
    width="3"
    height="1000"
  ></rect>
  <rect
    fill="mediumblue"
    stroke="mediumblue"
    x="201.00000000000026"
    y="0"
    width="3"
    height="1000"
  ></rect>
  <rect
    fill="royalblue"
    stroke="royalblue"
    x="204.00000000000028"
    y="0"
    width="3"
    height="1000"
  ></rect>
  <rect
    fill="mediumblue"
    stroke="mediumblue"
    x="207.00000000000028"
    y="0"
    width="3"
    height="1000"
  ></rect>
  <rect
    fill="mediumblue"
    stroke="mediumblue"
    x="210.00000000000028"
    y="0"
    width="3"
    height="1000"
  ></rect>
  <rect
    fill="royalblue"
    stroke="royalblue"
    x="213.00000000000028"
    y="0"
    width="3"
    height="1000"
  ></rect>
  <rect
    fill="mediumblue"
    stroke="mediumblue"
    x="216.00000000000028"
    y="0"
    width="3"
    height="1000"
  ></rect>
  <rect
    fill="mediumblue"
    stroke="mediumblue"
    x="219.0000000000003"
    y="0"
    width="3"
    height="1000"
  ></rect>
  <rect
    fill="royalblue"
    stroke="royalblue"
    x="222.0000000000003"
    y="0"
    width="3"
    height="1000"
  ></rect>
  <rect
    fill="mediumblue"
    stroke="mediumblue"
    x="225.0000000000003"
    y="0"
    width="3"
    height="1000"
  ></rect>
  <rect fill="blue" stroke="blue" x="228.00000000000034" y="0" width="3" height="1000"></rect>
  <rect fill="blue" stroke="blue" x="231.00000000000034" y="0" width="3" height="1000"></rect>
  <rect fill="blue" stroke="blue" x="234.00000000000034" y="0" width="3" height="1000"></rect>
  <rect
    fill="royalblue"
    stroke="royalblue"
    x="237.00000000000034"
    y="0"
    width="3"
    height="1000"
  ></rect>
  <rect
    fill="cornflowerblue"
    stroke="cornflowerblue"
    x="240.00000000000034"
    y="0"
    width="3"
    height="1000"
  ></rect>
  <rect
    fill="cornflowerblue"
    stroke="cornflowerblue"
    x="243.00000000000037"
    y="0"
    width="3"
    height="1000"
  ></rect>
  <rect
    fill="cornflowerblue"
    stroke="cornflowerblue"
    x="246.00000000000037"
    y="0"
    width="3"
    height="1000"
  ></rect>
  <rect
    fill="cornflowerblue"
    stroke="cornflowerblue"
    x="249.00000000000037"
    y="0"
    width="3"
    height="1000"
  ></rect>
  <rect fill="blue" stroke="blue" x="252.0000000000004" y="0" width="3" height="1000"></rect>
  <rect
    fill="cornflowerblue"
    stroke="cornflowerblue"
    x="255.0000000000004"
    y="0"
    width="3"
    height="1000"
  ></rect>
  <rect fill="blue" stroke="blue" x="258.0000000000004" y="0" width="3" height="1000"></rect>
  <rect
    fill="cornflowerblue"
    stroke="cornflowerblue"
    x="261.0000000000004"
    y="0"
    width="3"
    height="1000"
  ></rect>
  <rect
    fill="mediumblue"
    stroke="mediumblue"
    x="264.0000000000004"
    y="0"
    width="3"
    height="1000"
  ></rect>
  <rect fill="blue" stroke="blue" x="267.0000000000004" y="0" width="3" height="1000"></rect>
  <rect fill="blue" stroke="blue" x="270.00000000000045" y="0" width="3" height="1000"></rect>
  <rect
    fill="royalblue"
    stroke="royalblue"
    x="273.00000000000045"
    y="0"
    width="3"
    height="1000"
  ></rect>
  <rect
    fill="royalblue"
    stroke="royalblue"
    x="276.00000000000045"
    y="0"
    width="3"
    height="1000"
  ></rect>
  <rect
    fill="cornflowerblue"
    stroke="cornflowerblue"
    x="279.00000000000045"
    y="0"
    width="3"
    height="1000"
  ></rect>
  <rect fill="blue" stroke="blue" x="282.00000000000045" y="0" width="3" height="1000"></rect>
  <rect
    fill="royalblue"
    stroke="royalblue"
    x="285.00000000000045"
    y="0"
    width="3"
    height="1000"
  ></rect>
  <rect
    fill="cornflowerblue"
    stroke="cornflowerblue"
    x="288.00000000000045"
    y="0"
    width="3"
    height="1000"
  ></rect>
  <rect
    fill="lightblue"
    stroke="lightblue"
    x="291.00000000000045"
    y="0"
    width="3"
    height="1000"
  ></rect>
  <rect
    fill="royalblue"
    stroke="royalblue"
    x="294.00000000000045"
    y="0"
    width="3"
    height="1000"
  ></rect>
  <rect fill="blue" stroke="blue" x="297.0000000000005" y="0" width="3" height="1000"></rect>
  <rect
    fill="royalblue"
    stroke="royalblue"
    x="300.0000000000005"
    y="0"
    width="3"
    height="1000"
  ></rect>
  <rect fill="blue" stroke="blue" x="303.0000000000005" y="0" width="3" height="1000"></rect>
  <rect
    fill="cornflowerblue"
    stroke="cornflowerblue"
    x="306.0000000000005"
    y="0"
    width="3"
    height="1000"
  ></rect>
  <rect
    fill="royalblue"
    stroke="royalblue"
    x="309.0000000000005"
    y="0"
    width="3"
    height="1000"
  ></rect>
  <rect
    fill="mistyrose"
    stroke="mistyrose"
    x="312.0000000000005"
    y="0"
    width="3"
    height="1000"
  ></rect>
  <rect
    fill="mistyrose"
    stroke="mistyrose"
    x="315.0000000000005"
    y="0"
    width="3"
    height="1000"
  ></rect>
  <rect fill="blue" stroke="blue" x="318.00000000000057" y="0" width="3" height="1000"></rect>
  <rect fill="blue" stroke="blue" x="321.0000000000005" y="0" width="3" height="1000"></rect>
  <rect
    fill="mistyrose"
    stroke="mistyrose"
    x="324.00000000000045"
    y="0"
    width="3"
    height="1000"
  ></rect>
  <rect
    fill="lightblue"
    stroke="lightblue"
    x="327.00000000000045"
    y="0"
    width="3"
    height="1000"
  ></rect>
  <rect
    fill="lightblue"
    stroke="lightblue"
    x="330.00000000000045"
    y="0"
    width="3"
    height="1000"
  ></rect>
  <rect
    fill="mistyrose"
    stroke="mistyrose"
    x="333.0000000000004"
    y="0"
    width="3"
    height="1000"
  ></rect>
  <rect
    fill="mistyrose"
    stroke="mistyrose"
    x="336.00000000000034"
    y="0"
    width="3"
    height="1000"
  ></rect>
  <rect
    fill="mistyrose"
    stroke="mistyrose"
    x="339.00000000000034"
    y="0"
    width="3"
    height="1000"
  ></rect>
  <rect fill="blue" stroke="blue" x="342.00000000000034" y="0" width="3" height="1000"></rect>
  <rect fill="blue" stroke="blue" x="345.0000000000003" y="0" width="3" height="1000"></rect>
  <rect
    fill="royalblue"
    stroke="royalblue"
    x="348.0000000000002"
    y="0"
    width="3"
    height="1000"
  ></rect>
  <rect
    fill="lightblue"
    stroke="lightblue"
    x="351.0000000000002"
    y="0"
    width="3"
    height="1000"
  ></rect>
  <rect
    fill="cornflowerblue"
    stroke="cornflowerblue"
    x="354.0000000000002"
    y="0"
    width="3"
    height="1000"
  ></rect>
  <rect fill="blue" stroke="blue" x="357.00000000000017" y="0" width="3" height="1000"></rect>
  <rect
    fill="lightpink"
    stroke="lightpink"
    x="360.0000000000001"
    y="0"
    width="3"
    height="1000"
  ></rect>
  <rect
    fill="royalblue"
    stroke="royalblue"
    x="363.0000000000001"
    y="0"
    width="3"
    height="1000"
  ></rect>
  <rect
    fill="cornflowerblue"
    stroke="cornflowerblue"
    x="366.0000000000001"
    y="0"
    width="3"
    height="1000"
  ></rect>
  <rect
    fill="lightblue"
    stroke="lightblue"
    x="369.00000000000006"
    y="0"
    width="3"
    height="1000"
  ></rect>
  <rect fill="royalblue" stroke="royalblue" x="372" y="0" width="3" height="1000"></rect>
  <rect fill="royalblue" stroke="royalblue" x="375" y="0" width="3" height="1000"></rect>
  <rect fill="mistyrose" stroke="mistyrose" x="378" y="0" width="3" height="1000"></rect>
  <rect fill="blue" stroke="blue" x="380.99999999999994" y="0" width="3" height="1000"></rect>
  <rect
    fill="cornflowerblue"
    stroke="cornflowerblue"
    x="383.9999999999999"
    y="0"
    width="3"
    height="1000"
  ></rect>
  <rect
    fill="lightcoral"
    stroke="lightcoral"
    x="386.9999999999999"
    y="0"
    width="3"
    height="1000"
  ></rect>
  <rect
    fill="cornflowerblue"
    stroke="cornflowerblue"
    x="389.9999999999999"
    y="0"
    width="3"
    height="1000"
  ></rect>
  <rect
    fill="lightcoral"
    stroke="lightcoral"
    x="392.99999999999983"
    y="0"
    width="3"
    height="1000"
  ></rect>
  <rect fill="blue" stroke="blue" x="395.9999999999998" y="0" width="3" height="1000"></rect>
  <rect
    fill="cornflowerblue"
    stroke="cornflowerblue"
    x="398.9999999999998"
    y="0"
    width="3"
    height="1000"
  ></rect>
  <rect
    fill="mistyrose"
    stroke="mistyrose"
    x="401.9999999999998"
    y="0"
    width="3"
    height="1000"
  ></rect>
  <rect
    fill="mistyrose"
    stroke="mistyrose"
    x="404.9999999999997"
    y="0"
    width="3"
    height="1000"
  ></rect>
  <rect
    fill="royalblue"
    stroke="royalblue"
    x="407.99999999999966"
    y="0"
    width="3"
    height="1000"
  ></rect>
  <rect
    fill="lightblue"
    stroke="lightblue"
    x="410.99999999999966"
    y="0"
    width="3"
    height="1000"
  ></rect>
  <rect
    fill="lightcoral"
    stroke="lightcoral"
    x="413.99999999999966"
    y="0"
    width="3"
    height="1000"
  ></rect>
  <rect
    fill="lightblue"
    stroke="lightblue"
    x="416.9999999999996"
    y="0"
    width="3"
    height="1000"
  ></rect>
  <rect
    fill="lightblue"
    stroke="lightblue"
    x="419.99999999999955"
    y="0"
    width="3"
    height="1000"
  ></rect>
  <rect
    fill="mistyrose"
    stroke="mistyrose"
    x="422.99999999999955"
    y="0"
    width="3"
    height="1000"
  ></rect>
  <rect
    fill="royalblue"
    stroke="royalblue"
    x="425.99999999999955"
    y="0"
    width="3"
    height="1000"
  ></rect>
  <rect
    fill="lightpink"
    stroke="lightpink"
    x="428.9999999999995"
    y="0"
    width="3"
    height="1000"
  ></rect>
  <rect
    fill="lightblue"
    stroke="lightblue"
    x="431.99999999999943"
    y="0"
    width="3"
    height="1000"
  ></rect>
  <rect
    fill="lightblue"
    stroke="lightblue"
    x="434.99999999999943"
    y="0"
    width="3"
    height="1000"
  ></rect>
  <rect
    fill="cornflowerblue"
    stroke="cornflowerblue"
    x="437.99999999999943"
    y="0"
    width="3"
    height="1000"
  ></rect>
  <rect fill="blue" stroke="blue" x="440.9999999999994" y="0" width="3" height="1000"></rect>
  <rect
    fill="cornflowerblue"
    stroke="cornflowerblue"
    x="443.9999999999993"
    y="0"
    width="3"
    height="1000"
  ></rect>
  <rect
    fill="cornflowerblue"
    stroke="cornflowerblue"
    x="446.9999999999993"
    y="0"
    width="3"
    height="1000"
  ></rect>
  <rect
    fill="cornflowerblue"
    stroke="cornflowerblue"
    x="449.9999999999993"
    y="0"
    width="3"
    height="1000"
  ></rect>
  <rect
    fill="lightblue"
    stroke="lightblue"
    x="452.99999999999926"
    y="0"
    width="3"
    height="1000"
  ></rect>
  <rect
    fill="lightpink"
    stroke="lightpink"
    x="455.9999999999992"
    y="0"
    width="3"
    height="1000"
  ></rect>
  <rect
    fill="mistyrose"
    stroke="mistyrose"
    x="458.9999999999992"
    y="0"
    width="3"
    height="1000"
  ></rect>
  <rect
    fill="lightpink"
    stroke="lightpink"
    x="461.9999999999992"
    y="0"
    width="3"
    height="1000"
  ></rect>
  <rect
    fill="royalblue"
    stroke="royalblue"
    x="464.99999999999915"
    y="0"
    width="3"
    height="1000"
  ></rect>
  <rect
    fill="cornflowerblue"
    stroke="cornflowerblue"
    x="467.9999999999991"
    y="0"
    width="3"
    height="1000"
  ></rect>
  <rect
    fill="lightcoral"
    stroke="lightcoral"
    x="470.9999999999991"
    y="0"
    width="3"
    height="1000"
  ></rect>
  <rect
    fill="cornflowerblue"
    stroke="cornflowerblue"
    x="473.9999999999991"
    y="0"
    width="3"
    height="1000"
  ></rect>
  <rect
    fill="cornflowerblue"
    stroke="cornflowerblue"
    x="476.99999999999903"
    y="0"
    width="3"
    height="1000"
  ></rect>
  <rect
    fill="cornflowerblue"
    stroke="cornflowerblue"
    x="479.999999999999"
    y="0"
    width="3"
    height="1000"
  ></rect>
  <rect
    fill="indianred"
    stroke="indianred"
    x="482.999999999999"
    y="0"
    width="3"
    height="1000"
  ></rect>
  <rect
    fill="mistyrose"
    stroke="mistyrose"
    x="485.999999999999"
    y="0"
    width="3"
    height="1000"
  ></rect>
  <rect
    fill="lightblue"
    stroke="lightblue"
    x="488.9999999999989"
    y="0"
    width="3"
    height="1000"
  ></rect>
  <rect
    fill="lightcoral"
    stroke="lightcoral"
    x="491.99999999999886"
    y="0"
    width="3"
    height="1000"
  ></rect>
  <rect
    fill="royalblue"
    stroke="royalblue"
    x="494.99999999999886"
    y="0"
    width="3"
    height="1000"
  ></rect>
  <rect
    fill="indianred"
    stroke="indianred"
    x="497.99999999999886"
    y="0"
    width="3"
    height="1000"
  ></rect>
  <rect
    fill="royalblue"
    stroke="royalblue"
    x="500.9999999999988"
    y="0"
    width="3"
    height="1000"
  ></rect>
  <rect
    fill="indianred"
    stroke="indianred"
    x="503.99999999999875"
    y="0"
    width="3"
    height="1000"
  ></rect>
  <rect
    fill="mistyrose"
    stroke="mistyrose"
    x="506.99999999999875"
    y="0"
    width="3"
    height="1000"
  ></rect>
  <rect
    fill="lightblue"
    stroke="lightblue"
    x="509.99999999999875"
    y="0"
    width="3"
    height="1000"
  ></rect>
  <rect
    fill="indianred"
    stroke="indianred"
    x="512.9999999999986"
    y="0"
    width="3"
    height="1000"
  ></rect>
  <rect
    fill="royalblue"
    stroke="royalblue"
    x="515.9999999999986"
    y="0"
    width="3"
    height="1000"
  ></rect>
  <rect
    fill="lightcoral"
    stroke="lightcoral"
    x="518.9999999999986"
    y="0"
    width="3"
    height="1000"
  ></rect>
  <rect
    fill="lightblue"
    stroke="lightblue"
    x="521.9999999999986"
    y="0"
    width="3"
    height="1000"
  ></rect>
  <rect
    fill="mistyrose"
    stroke="mistyrose"
    x="524.9999999999986"
    y="0"
    width="3"
    height="1000"
  ></rect>
  <rect
    fill="mistyrose"
    stroke="mistyrose"
    x="527.9999999999985"
    y="0"
    width="3"
    height="1000"
  ></rect>
  <rect
    fill="lightcoral"
    stroke="lightcoral"
    x="530.9999999999985"
    y="0"
    width="3"
    height="1000"
  ></rect>
  <rect
    fill="mistyrose"
    stroke="mistyrose"
    x="533.9999999999985"
    y="0"
    width="3"
    height="1000"
  ></rect>
  <rect
    fill="mistyrose"
    stroke="mistyrose"
    x="536.9999999999984"
    y="0"
    width="3"
    height="1000"
  ></rect>
  <rect
    fill="lightcoral"
    stroke="lightcoral"
    x="539.9999999999984"
    y="0"
    width="3"
    height="1000"
  ></rect>
  <rect
    fill="mistyrose"
    stroke="mistyrose"
    x="542.9999999999984"
    y="0"
    width="3"
    height="1000"
  ></rect>
  <rect
    fill="royalblue"
    stroke="royalblue"
    x="545.9999999999984"
    y="0"
    width="3"
    height="1000"
  ></rect>
  <rect
    fill="indianred"
    stroke="indianred"
    x="548.9999999999984"
    y="0"
    width="3"
    height="1000"
  ></rect>
  <rect
    fill="lightpink"
    stroke="lightpink"
    x="551.9999999999983"
    y="0"
    width="3"
    height="1000"
  ></rect>
  <rect
    fill="lightcoral"
    stroke="lightcoral"
    x="554.9999999999983"
    y="0"
    width="3"
    height="1000"
  ></rect>
  <rect
    fill="lightblue"
    stroke="lightblue"
    x="557.9999999999983"
    y="0"
    width="3"
    height="1000"
  ></rect>
  <rect
    fill="indianred"
    stroke="indianred"
    x="560.9999999999982"
    y="0"
    width="3"
    height="1000"
  ></rect>
  <rect
    fill="mistyrose"
    stroke="mistyrose"
    x="563.9999999999982"
    y="0"
    width="3"
    height="1000"
  ></rect>
  <rect
    fill="lightpink"
    stroke="lightpink"
    x="566.9999999999982"
    y="0"
    width="3"
    height="1000"
  ></rect>
  <rect
    fill="cornflowerblue"
    stroke="cornflowerblue"
    x="569.9999999999982"
    y="0"
    width="3"
    height="1000"
  ></rect>
  <rect fill="darkred" stroke="darkred" x="572.9999999999982" y="0" width="3" height="1000"></rect>
  <rect
    fill="mistyrose"
    stroke="mistyrose"
    x="575.9999999999981"
    y="0"
    width="3"
    height="1000"
  ></rect>
  <rect
    fill="lightpink"
    stroke="lightpink"
    x="578.9999999999981"
    y="0"
    width="3"
    height="1000"
  ></rect>
  <rect
    fill="indianred"
    stroke="indianred"
    x="581.9999999999981"
    y="0"
    width="3"
    height="1000"
  ></rect>
  <rect
    fill="cornflowerblue"
    stroke="cornflowerblue"
    x="584.999999999998"
    y="0"
    width="3"
    height="1000"
  ></rect>
  <rect
    fill="lightcoral"
    stroke="lightcoral"
    x="587.999999999998"
    y="0"
    width="3"
    height="1000"
  ></rect>
  <rect
    fill="mistyrose"
    stroke="mistyrose"
    x="590.999999999998"
    y="0"
    width="3"
    height="1000"
  ></rect>
  <rect
    fill="indianred"
    stroke="indianred"
    x="593.999999999998"
    y="0"
    width="3"
    height="1000"
  ></rect>
  <rect
    fill="cornflowerblue"
    stroke="cornflowerblue"
    x="596.999999999998"
    y="0"
    width="3"
    height="1000"
  ></rect>
  <rect
    fill="lightblue"
    stroke="lightblue"
    x="599.9999999999978"
    y="0"
    width="3"
    height="1000"
  ></rect>
  <rect
    fill="royalblue"
    stroke="royalblue"
    x="602.9999999999978"
    y="0"
    width="3"
    height="1000"
  ></rect>
  <rect
    fill="lightblue"
    stroke="lightblue"
    x="605.9999999999978"
    y="0"
    width="3"
    height="1000"
  ></rect>
  <rect
    fill="lightcoral"
    stroke="lightcoral"
    x="608.9999999999977"
    y="0"
    width="3"
    height="1000"
  ></rect>
  <rect
    fill="cornflowerblue"
    stroke="cornflowerblue"
    x="611.9999999999977"
    y="0"
    width="3"
    height="1000"
  ></rect>
  <rect fill="darkred" stroke="darkred" x="614.9999999999977" y="0" width="3" height="1000"></rect>
  <rect
    fill="lightcoral"
    stroke="lightcoral"
    x="617.9999999999977"
    y="0"
    width="3"
    height="1000"
  ></rect>
  <rect
    fill="cornflowerblue"
    stroke="cornflowerblue"
    x="620.9999999999977"
    y="0"
    width="3"
    height="1000"
  ></rect>
  <rect
    fill="lightblue"
    stroke="lightblue"
    x="623.9999999999976"
    y="0"
    width="3"
    height="1000"
  ></rect>
  <rect fill="maroon" stroke="maroon" x="626.9999999999976" y="0" width="3" height="1000"></rect>
  <rect
    fill="indianred"
    stroke="indianred"
    x="629.9999999999976"
    y="0"
    width="3"
    height="1000"
  ></rect>
  <rect
    fill="lightblue"
    stroke="lightblue"
    x="632.9999999999975"
    y="0"
    width="3"
    height="1000"
  ></rect>
  <rect fill="maroon" stroke="maroon" x="635.9999999999975" y="0" width="3" height="1000"></rect>
  <rect
    fill="mistyrose"
    stroke="mistyrose"
    x="638.9999999999975"
    y="0"
    width="3"
    height="1000"
  ></rect>
  <rect
    fill="lightcoral"
    stroke="lightcoral"
    x="641.9999999999975"
    y="0"
    width="3"
    height="1000"
  ></rect>
  <rect
    fill="indianred"
    stroke="indianred"
    x="644.9999999999975"
    y="0"
    width="3"
    height="1000"
  ></rect>
  <rect fill="brown" stroke="brown" x="647.9999999999974" y="0" width="3" height="1000"></rect>
  <rect
    fill="lightblue"
    stroke="lightblue"
    x="650.9999999999974"
    y="0"
    width="3"
    height="1000"
  ></rect>
  <rect
    fill="indianred"
    stroke="indianred"
    x="653.9999999999974"
    y="0"
    width="3"
    height="1000"
  ></rect>
  <rect
    fill="lightblue"
    stroke="lightblue"
    x="656.9999999999973"
    y="0"
    width="3"
    height="1000"
  ></rect>
  <rect fill="brown" stroke="brown" x="659.9999999999973" y="0" width="3" height="1000"></rect>
  <rect
    fill="cornflowerblue"
    stroke="cornflowerblue"
    x="662.9999999999973"
    y="0"
    width="3"
    height="1000"
  ></rect>
  <rect
    fill="mistyrose"
    stroke="mistyrose"
    x="665.9999999999973"
    y="0"
    width="3"
    height="1000"
  ></rect>
  <rect fill="maroon" stroke="maroon" x="668.9999999999973" y="0" width="3" height="1000"></rect>
  <rect
    fill="cornflowerblue"
    stroke="cornflowerblue"
    x="671.9999999999972"
    y="0"
    width="3"
    height="1000"
  ></rect>
  <rect
    fill="cornflowerblue"
    stroke="cornflowerblue"
    x="674.9999999999972"
    y="0"
    width="3"
    height="1000"
  ></rect>
  <rect fill="darkred" stroke="darkred" x="677.9999999999972" y="0" width="3" height="1000"></rect>
  <rect
    fill="mistyrose"
    stroke="mistyrose"
    x="680.999999999997"
    y="0"
    width="3"
    height="1000"
  ></rect>
  <rect
    fill="indianred"
    stroke="indianred"
    x="683.999999999997"
    y="0"
    width="3"
    height="1000"
  ></rect>
  <rect
    fill="lightpink"
    stroke="lightpink"
    x="686.999999999997"
    y="0"
    width="3"
    height="1000"
  ></rect>
  <rect fill="brown" stroke="brown" x="689.999999999997" y="0" width="3" height="1000"></rect>
  <rect fill="maroon" stroke="maroon" x="692.999999999997" y="0" width="3" height="1000"></rect>
  <rect
    fill="indianred"
    stroke="indianred"
    x="695.9999999999969"
    y="0"
    width="3"
    height="1000"
  ></rect>
  <rect fill="maroon" stroke="maroon" x="698.9999999999969" y="0" width="3" height="1000"></rect>
  <rect
    fill="indianred"
    stroke="indianred"
    x="701.9999999999969"
    y="0"
    width="3"
    height="1000"
  ></rect>
  <rect
    fill="indianred"
    stroke="indianred"
    x="704.9999999999968"
    y="0"
    width="3"
    height="1000"
  ></rect>
  <rect
    fill="mistyrose"
    stroke="mistyrose"
    x="707.9999999999968"
    y="0"
    width="3"
    height="1000"
  ></rect>
  <rect
    fill="indianred"
    stroke="indianred"
    x="710.9999999999968"
    y="0"
    width="3"
    height="1000"
  ></rect>
  <rect fill="maroon" stroke="maroon" x="713.9999999999968" y="0" width="3" height="1000"></rect>
  <rect
    fill="lightblue"
    stroke="lightblue"
    x="716.9999999999968"
    y="0"
    width="3"
    height="1000"
  ></rect>
  <rect
    fill="lightblue"
    stroke="lightblue"
    x="719.9999999999967"
    y="0"
    width="3"
    height="1000"
  ></rect>
  <rect fill="maroon" stroke="maroon" x="722.9999999999967" y="0" width="3" height="1000"></rect>
  <rect
    fill="mistyrose"
    stroke="mistyrose"
    x="725.9999999999967"
    y="0"
    width="3"
    height="1000"
  ></rect>
  <rect
    fill="indianred"
    stroke="indianred"
    x="728.9999999999966"
    y="0"
    width="3"
    height="1000"
  ></rect>
  <rect fill="maroon" stroke="maroon" x="731.9999999999966" y="0" width="3" height="1000"></rect>
  <rect
    fill="indianred"
    stroke="indianred"
    x="734.9999999999966"
    y="0"
    width="3"
    height="1000"
  ></rect>
  <rect
    fill="lightpink"
    stroke="lightpink"
    x="737.9999999999966"
    y="0"
    width="3"
    height="1000"
  ></rect>
  <rect
    fill="mistyrose"
    stroke="mistyrose"
    x="740.9999999999966"
    y="0"
    width="3"
    height="1000"
  ></rect>
  <rect
    fill="lightpink"
    stroke="lightpink"
    x="743.9999999999965"
    y="0"
    width="3"
    height="1000"
  ></rect>
  <rect fill="darkred" stroke="darkred" x="746.9999999999965" y="0" width="3" height="1000"></rect>
  <rect
    fill="mistyrose"
    stroke="mistyrose"
    x="749.9999999999965"
    y="0"
    width="3"
    height="1000"
  ></rect>
  <rect fill="maroon" stroke="maroon" x="752.9999999999964" y="0" width="3" height="1000"></rect>
  <rect
    fill="indianred"
    stroke="indianred"
    x="755.9999999999964"
    y="0"
    width="3"
    height="1000"
  ></rect>
  <rect fill="darkred" stroke="darkred" x="758.9999999999964" y="0" width="3" height="1000"></rect>
  <rect
    fill="lightblue"
    stroke="lightblue"
    x="761.9999999999964"
    y="0"
    width="3"
    height="1000"
  ></rect>
  <rect fill="maroon" stroke="maroon" x="764.9999999999964" y="0" width="3" height="1000"></rect>
  <rect
    fill="lightpink"
    stroke="lightpink"
    x="767.9999999999962"
    y="0"
    width="3"
    height="1000"
  ></rect>
  <rect fill="maroon" stroke="maroon" x="770.9999999999962" y="0" width="3" height="1000"></rect>
  <rect
    fill="indianred"
    stroke="indianred"
    x="773.9999999999962"
    y="0"
    width="3"
    height="1000"
  ></rect>
  <rect
    fill="mistyrose"
    stroke="mistyrose"
    x="776.9999999999961"
    y="0"
    width="3"
    height="1000"
  ></rect>
  <rect fill="maroon" stroke="maroon" x="779.9999999999961" y="0" width="3" height="1000"></rect>
  <rect fill="brown" stroke="brown" x="782.9999999999961" y="0" width="3" height="1000"></rect>
  <rect
    fill="lightpink"
    stroke="lightpink"
    x="785.9999999999961"
    y="0"
    width="3"
    height="1000"
  ></rect>
  <rect
    fill="indianred"
    stroke="indianred"
    x="788.9999999999961"
    y="0"
    width="3"
    height="1000"
  ></rect>
  <rect fill="maroon" stroke="maroon" x="791.999999999996" y="0" width="3" height="1000"></rect>
  <rect
    fill="indianred"
    stroke="indianred"
    x="794.999999999996"
    y="0"
    width="3"
    height="1000"
  ></rect>
  <rect
    fill="lightblue"
    stroke="lightblue"
    x="797.999999999996"
    y="0"
    width="3"
    height="1000"
  ></rect>
  <rect
    fill="lightcoral"
    stroke="lightcoral"
    x="800.9999999999959"
    y="0"
    width="3"
    height="1000"
  ></rect>
  <rect fill="maroon" stroke="maroon" x="803.9999999999959" y="0" width="3" height="1000"></rect>
  <rect
    fill="indianred"
    stroke="indianred"
    x="806.9999999999959"
    y="0"
    width="3"
    height="1000"
  ></rect>
  <rect
    fill="lightcoral"
    stroke="lightcoral"
    x="809.9999999999959"
    y="0"
    width="3"
    height="1000"
  ></rect>
  <rect fill="maroon" stroke="maroon" x="812.9999999999959" y="0" width="3" height="1000"></rect>
  <rect
    fill="lightcoral"
    stroke="lightcoral"
    x="815.9999999999958"
    y="0"
    width="3"
    height="1000"
  ></rect>
  <rect
    fill="lightcoral"
    stroke="lightcoral"
    x="818.9999999999958"
    y="0"
    width="3"
    height="1000"
  ></rect>
  <rect fill="maroon" stroke="maroon" x="821.9999999999958" y="0" width="3" height="1000"></rect>
  <rect fill="maroon" stroke="maroon" x="824.9999999999957" y="0" width="3" height="1000"></rect>
  <rect
    fill="lightcoral"
    stroke="lightcoral"
    x="827.9999999999957"
    y="0"
    width="3"
    height="1000"
  ></rect>
  <rect
    fill="lightblue"
    stroke="lightblue"
    x="830.9999999999957"
    y="0"
    width="3"
    height="1000"
  ></rect>
  <rect fill="maroon" stroke="maroon" x="833.9999999999957" y="0" width="3" height="1000"></rect>
  <rect fill="maroon" stroke="maroon" x="836.9999999999957" y="0" width="3" height="1000"></rect>
  <rect fill="darkred" stroke="darkred" x="839.9999999999956" y="0" width="3" height="1000"></rect>
  <rect fill="maroon" stroke="maroon" x="842.9999999999956" y="0" width="3" height="1000"></rect>
  <rect
    fill="lightblue"
    stroke="lightblue"
    x="845.9999999999956"
    y="0"
    width="3"
    height="1000"
  ></rect>
  <rect fill="maroon" stroke="maroon" x="848.9999999999955" y="0" width="3" height="1000"></rect>
  <rect
    fill="mistyrose"
    stroke="mistyrose"
    x="851.9999999999955"
    y="0"
    width="3"
    height="1000"
  ></rect>
  <rect
    fill="lightpink"
    stroke="lightpink"
    x="854.9999999999955"
    y="0"
    width="3"
    height="1000"
  ></rect>
  <rect fill="brown" stroke="brown" x="857.9999999999955" y="0" width="3" height="1000"></rect>
  <rect fill="maroon" stroke="maroon" x="860.9999999999955" y="0" width="3" height="1000"></rect>
  <rect fill="maroon" stroke="maroon" x="863.9999999999953" y="0" width="3" height="1000"></rect>
  <rect
    fill="lightpink"
    stroke="lightpink"
    x="866.9999999999953"
    y="0"
    width="3"
    height="1000"
  ></rect>
  <rect fill="brown" stroke="brown" x="869.9999999999953" y="0" width="3" height="1000"></rect>
  <rect fill="maroon" stroke="maroon" x="872.9999999999952" y="0" width="3" height="1000"></rect>
  <rect
    fill="mistyrose"
    stroke="mistyrose"
    x="875.9999999999952"
    y="0"
    width="3"
    height="1000"
  ></rect>
  <rect
    fill="mistyrose"
    stroke="mistyrose"
    x="878.9999999999952"
    y="0"
    width="3"
    height="1000"
  ></rect>
  <rect fill="darkred" stroke="darkred" x="881.9999999999952" y="0" width="3" height="1000"></rect>
  <rect
    fill="indianred"
    stroke="indianred"
    x="884.9999999999952"
    y="0"
    width="3"
    height="1000"
  ></rect>
  <rect fill="darkred" stroke="darkred" x="887.9999999999951" y="0" width="3" height="1000"></rect>
  <rect fill="brown" stroke="brown" x="890.9999999999951" y="0" width="3" height="1000"></rect>
  <rect
    fill="lightpink"
    stroke="lightpink"
    x="893.9999999999951"
    y="0"
    width="3"
    height="1000"
  ></rect>
  <rect fill="maroon" stroke="maroon" x="896.999999999995" y="0" width="3" height="1000"></rect>
  <rect fill="maroon" stroke="maroon" x="899.999999999995" y="0" width="3" height="1000"></rect>
  <rect fill="brown" stroke="brown" x="902.999999999995" y="0" width="3" height="1000"></rect>
  <rect
    fill="lightpink"
    stroke="lightpink"
    x="905.999999999995"
    y="0"
    width="3"
    height="1000"
  ></rect>
  <rect fill="maroon" stroke="maroon" x="908.999999999995" y="0" width="3" height="1000"></rect>
  <rect fill="maroon" stroke="maroon" x="911.9999999999949" y="0" width="3" height="1000"></rect>
  <rect fill="maroon" stroke="maroon" x="914.9999999999949" y="0" width="3" height="1000"></rect>
  <rect fill="maroon" stroke="maroon" x="917.9999999999949" y="0" width="3" height="1000"></rect>
  <rect
    fill="lightblue"
    stroke="lightblue"
    x="920.9999999999948"
    y="0"
    width="3"
    height="1000"
  ></rect>
  <rect
    fill="indianred"
    stroke="indianred"
    x="923.9999999999948"
    y="0"
    width="3"
    height="1000"
  ></rect>
  <rect fill="maroon" stroke="maroon" x="926.9999999999948" y="0" width="3" height="1000"></rect>
  <rect fill="maroon" stroke="maroon" x="929.9999999999948" y="0" width="3" height="1000"></rect>
  <rect
    fill="indianred"
    stroke="indianred"
    x="932.9999999999948"
    y="0"
    width="3"
    height="1000"
  ></rect>
  <rect fill="maroon" stroke="maroon" x="935.9999999999947" y="0" width="3" height="1000"></rect>
  <rect fill="maroon" stroke="maroon" x="938.9999999999947" y="0" width="3" height="1000"></rect>
  <rect fill="maroon" stroke="maroon" x="941.9999999999947" y="0" width="3" height="1000"></rect>
  <rect fill="maroon" stroke="maroon" x="944.9999999999945" y="0" width="3" height="1000"></rect>
  <rect fill="maroon" stroke="maroon" x="947.9999999999945" y="0" width="3" height="1000"></rect>
  <rect fill="maroon" stroke="maroon" x="950.9999999999945" y="0" width="3" height="1000"></rect>
  <rect fill="maroon" stroke="maroon" x="953.9999999999945" y="0" width="3" height="1000"></rect>
  <rect
    fill="lightcoral"
    stroke="lightcoral"
    x="956.9999999999945"
    y="0"
    width="3"
    height="1000"
  ></rect>
  <rect fill="brown" stroke="brown" x="959.9999999999944" y="0" width="3" height="1000"></rect>
  <rect fill="maroon" stroke="maroon" x="962.9999999999944" y="0" width="3" height="1000"></rect>
  <rect
    fill="lightcoral"
    stroke="lightcoral"
    x="965.9999999999944"
    y="0"
    width="3"
    height="1000"
  ></rect>
  <rect
    fill="lightcoral"
    stroke="lightcoral"
    x="968.9999999999943"
    y="0"
    width="3"
    height="1000"
  ></rect>
  <rect fill="maroon" stroke="maroon" x="971.9999999999943" y="0" width="3" height="1000"></rect>
  <rect fill="maroon" stroke="maroon" x="974.9999999999943" y="0" width="3" height="1000"></rect>
  <rect fill="maroon" stroke="maroon" x="977.9999999999943" y="0" width="3" height="1000"></rect>
  <rect fill="brown" stroke="brown" x="980.9999999999943" y="0" width="3" height="1000"></rect>
  <rect fill="maroon" stroke="maroon" x="983.9999999999942" y="0" width="3" height="1000"></rect>
  <rect
    fill="mistyrose"
    stroke="mistyrose"
    x="986.9999999999942"
    y="0"
    width="3"
    height="1000"
  ></rect>
  <rect
    fill="lightpink"
    stroke="lightpink"
    x="989.9999999999942"
    y="0"
    width="3"
    height="1000"
  ></rect>
  <rect
    fill="lightpink"
    stroke="lightpink"
    x="992.9999999999941"
    y="0"
    width="3"
    height="1000"
  ></rect>
  <rect fill="darkred" stroke="darkred" x="995.9999999999941" y="0" width="3" height="1000"></rect>
  <rect
    fill="lightpink"
    stroke="lightpink"
    x="998.9999999999941"
    y="0"
    width="3"
    height="1000"
  ></rect>
</svg>
