<svg
  stroke="black"
  stroke-linecap="round"
  font-size="60"
  viewBox="0 0 1000 1000"
  xmlns="http://www.w3.org/2000/svg"
>
  <rect fill="white" stroke="white" x="0" y="0" width="100%" height="100%"></rect>
  <rect stroke-width="10" x="0" y="0" width="100%" height="100%"></rect>
  <g fill="none" stroke="blue" stroke-width="10">
    <circle cx="500" cy="500" r="10"></circle>
    <circle cx="500" cy="500" r="30"></circle>
    <circle cx="500" cy="500" r="50"></circle>
    <circle cx="500" cy="500" r="70"></circle>
    <circle cx="500" cy="500" r="90"></circle>
    <circle cx="500" cy="500" r="110"></circle>
    <circle cx="500" cy="500" r="130"></circle>
    <circle cx="500" cy="500" r="150"></circle>
    <circle cx="500" cy="500" r="170"></circle>
    <circle cx="500" cy="500" r="190"></circle>
    <circle cx="500" cy="500" r="210"></circle>
    <circle cx="500" cy="500" r="230"></circle>
    <circle cx="500" cy="500" r="250"></circle>
    <circle cx="500" cy="500" r="270"></circle>
    <circle cx="500" cy="500" r="290"></circle>
    <circle cx="500" cy="500" r="310"></circle>
    <circle cx="500" cy="500" r="330"></circle>
    <circle cx="500" cy="500" r="350"></circle>
    <circle cx="500" cy="500" r="370"></circle>
    <circle cx="500" cy="500" r="390"></circle>
    <circle cx="500" cy="500" r="410"></circle>
    <circle cx="500" cy="500" r="430"></circle>
  </g>
</svg>
