<svg
  stroke="black"
  stroke-linecap="round"
  font-size="60"
  viewBox="0 0 1000 1000"
  xmlns="http://www.w3.org/2000/svg"
>
  <g>
    <rect fill="white" stroke="white" x="0" y="0" width="100%" height="100%"></rect>
    <rect fill="black" stroke="black" x="0" y="0" width="100%" height="100%"></rect>
  </g>
  <rect fill="orange" stroke-width="5" x="0" y="900" width="100" height="100"></rect>
  <rect fill="orange" stroke-width="5" x="100" y="900" width="100" height="100"></rect>
  <rect fill="cyan" stroke-width="5" x="200" y="900" width="100" height="100"></rect>
  <rect fill="cyan" stroke-width="5" x="300" y="900" width="100" height="100"></rect>
  <rect fill="cyan" stroke-width="5" x="400" y="900" width="100" height="100"></rect>
  <rect fill="cyan" stroke-width="5" x="500" y="900" width="100" height="100"></rect>
  <rect fill="blue" stroke-width="5" x="600" y="900" width="100" height="100"></rect>
  <rect fill="blue" stroke-width="5" x="700" y="900" width="100" height="100"></rect>
  <rect fill="blue" stroke-width="5" x="800" y="900" width="100" height="100"></rect>
  <rect fill="orange" stroke-width="5" x="0" y="800" width="100" height="100"></rect>
  <rect fill="gold" stroke-width="5" x="100" y="800" width="100" height="100"></rect>
  <rect fill="gold" stroke-width="5" x="200" y="800" width="100" height="100"></rect>
  <rect fill="darkmagenta" stroke-width="5" x="300" y="800" width="100" height="100"></rect>
  <rect fill="forestgreen" stroke-width="5" x="400" y="800" width="100" height="100"></rect>
  <rect fill="forestgreen" stroke-width="5" x="500" y="800" width="100" height="100"></rect>
  <rect fill="blue" stroke-width="5" x="600" y="800" width="100" height="100"></rect>
  <rect fill="gold" stroke-width="5" x="700" y="800" width="100" height="100"></rect>
  <rect fill="gold" stroke-width="5" x="800" y="800" width="100" height="100"></rect>
  <rect fill="orange" stroke-width="5" x="0" y="700" width="100" height="100"></rect>
  <rect fill="gold" stroke-width="5" x="100" y="700" width="100" height="100"></rect>
  <rect fill="gold" stroke-width="5" x="200" y="700" width="100" height="100"></rect>
  <rect fill="darkmagenta" stroke-width="5" x="300" y="700" width="100" height="100"></rect>
  <rect fill="darkmagenta" stroke-width="5" x="400" y="700" width="100" height="100"></rect>
  <rect fill="forestgreen" stroke-width="5" x="500" y="700" width="100" height="100"></rect>
  <rect fill="forestgreen" stroke-width="5" x="600" y="700" width="100" height="100"></rect>
  <rect fill="gold" stroke-width="5" x="700" y="700" width="100" height="100"></rect>
  <rect fill="gold" stroke-width="5" x="800" y="700" width="100" height="100"></rect>
  <rect fill="darkmagenta" stroke-width="5" x="300" y="600" width="100" height="100"></rect>
  <rect fill="red" stroke-width="5" x="400" y="600" width="100" height="100"></rect>
  <rect fill="red" stroke-width="5" x="500" y="600" width="100" height="100"></rect>
  <rect fill="red" stroke-width="5" x="300" y="500" width="100" height="100"></rect>
  <rect fill="red" stroke-width="5" x="400" y="500" width="100" height="100"></rect>
  <rect fill="cyan" stroke-width="5" x="900" y="500" width="100" height="100"></rect>
  <rect fill="cyan" stroke-width="5" x="900" y="400" width="100" height="100"></rect>
  <rect fill="cyan" stroke-width="5" x="900" y="300" width="100" height="100"></rect>
  <rect fill="cyan" stroke-width="5" x="900" y="200" width="100" height="100"></rect>
</svg>
