<svg
  stroke="black"
  stroke-linecap="round"
  font-size="60"
  viewBox="0 0 1000 1000"
  xmlns="http://www.w3.org/2000/svg"
>
  <rect fill="white" stroke="white" x="0" y="0" width="100%" height="100%"></rect>
  <rect fill="gold" stroke="gold" x="65" y="865" width="70" height="70"></rect>
  <rect
    fill="mediumvioletred"
    stroke="mediumvioletred"
    x="65"
    y="765"
    width="70"
    height="70"
  ></rect>
  <rect fill="orange" stroke="orange" x="65" y="665" width="70" height="70"></rect>
  <rect fill="darkorange" stroke="darkorange" x="65" y="565" width="70" height="70"></rect>
  <rect fill="maroon" stroke="maroon" x="65" y="465" width="70" height="70"></rect>
  <rect fill="purple" stroke="purple" x="65" y="365" width="70" height="70"></rect>
  <rect fill="orange" stroke="orange" x="65" y="265" width="70" height="70"></rect>
  <rect
    fill="mediumvioletred"
    stroke="mediumvioletred"
    x="65"
    y="165"
    width="70"
    height="70"
  ></rect>
  <rect fill="firebrick" stroke="firebrick" x="65" y="65" width="70" height="70"></rect>
  <rect fill="orange" stroke="orange" x="165" y="865" width="70" height="70"></rect>
  <rect fill="firebrick" stroke="firebrick" x="165" y="765" width="70" height="70"></rect>
  <rect fill="purple" stroke="purple" x="165" y="665" width="70" height="70"></rect>
  <rect fill="orange" stroke="orange" x="165" y="565" width="70" height="70"></rect>
  <rect fill="firebrick" stroke="firebrick" x="165" y="465" width="70" height="70"></rect>
  <rect fill="purple" stroke="purple" x="165" y="365" width="70" height="70"></rect>
  <rect
    fill="mediumvioletred"
    stroke="mediumvioletred"
    x="165"
    y="265"
    width="70"
    height="70"
  ></rect>
  <rect
    fill="mediumvioletred"
    stroke="mediumvioletred"
    x="165"
    y="165"
    width="70"
    height="70"
  ></rect>
  <rect fill="firebrick" stroke="firebrick" x="165" y="65" width="70" height="70"></rect>
  <rect fill="maroon" stroke="maroon" x="265" y="865" width="70" height="70"></rect>
  <rect fill="firebrick" stroke="firebrick" x="265" y="765" width="70" height="70"></rect>
  <rect fill="orange" stroke="orange" x="265" y="665" width="70" height="70"></rect>
  <rect fill="firebrick" stroke="firebrick" x="265" y="565" width="70" height="70"></rect>
  <rect fill="darkorange" stroke="darkorange" x="265" y="465" width="70" height="70"></rect>
  <rect fill="gold" stroke="gold" x="265" y="365" width="70" height="70"></rect>
  <rect fill="firebrick" stroke="firebrick" x="265" y="265" width="70" height="70"></rect>
  <rect fill="darkorange" stroke="darkorange" x="265" y="165" width="70" height="70"></rect>
  <rect fill="gold" stroke="gold" x="265" y="65" width="70" height="70"></rect>
  <rect fill="firebrick" stroke="firebrick" x="365" y="865" width="70" height="70"></rect>
  <rect fill="maroon" stroke="maroon" x="365" y="765" width="70" height="70"></rect>
  <rect
    fill="mediumvioletred"
    stroke="mediumvioletred"
    x="365"
    y="665"
    width="70"
    height="70"
  ></rect>
  <rect fill="gold" stroke="gold" x="365" y="565" width="70" height="70"></rect>
  <rect
    fill="mediumvioletred"
    stroke="mediumvioletred"
    x="365"
    y="465"
    width="70"
    height="70"
  ></rect>
  <rect fill="maroon" stroke="maroon" x="365" y="365" width="70" height="70"></rect>
  <rect fill="orange" stroke="orange" x="365" y="265" width="70" height="70"></rect>
  <rect fill="purple" stroke="purple" x="365" y="165" width="70" height="70"></rect>
  <rect fill="purple" stroke="purple" x="365" y="65" width="70" height="70"></rect>
  <rect fill="darkorange" stroke="darkorange" x="465" y="865" width="70" height="70"></rect>
  <rect fill="maroon" stroke="maroon" x="465" y="765" width="70" height="70"></rect>
  <rect fill="darkorange" stroke="darkorange" x="465" y="665" width="70" height="70"></rect>
  <rect
    fill="mediumvioletred"
    stroke="mediumvioletred"
    x="465"
    y="565"
    width="70"
    height="70"
  ></rect>
  <rect fill="purple" stroke="purple" x="465" y="465" width="70" height="70"></rect>
  <rect fill="darkorange" stroke="darkorange" x="465" y="365" width="70" height="70"></rect>
  <rect fill="orange" stroke="orange" x="465" y="265" width="70" height="70"></rect>
  <rect fill="orange" stroke="orange" x="465" y="165" width="70" height="70"></rect>
  <rect fill="orange" stroke="orange" x="465" y="65" width="70" height="70"></rect>
  <rect fill="purple" stroke="purple" x="565" y="865" width="70" height="70"></rect>
  <rect fill="firebrick" stroke="firebrick" x="565" y="765" width="70" height="70"></rect>
  <rect fill="maroon" stroke="maroon" x="565" y="665" width="70" height="70"></rect>
  <rect fill="gold" stroke="gold" x="565" y="565" width="70" height="70"></rect>
  <rect fill="firebrick" stroke="firebrick" x="565" y="465" width="70" height="70"></rect>
  <rect fill="gold" stroke="gold" x="565" y="365" width="70" height="70"></rect>
  <rect fill="maroon" stroke="maroon" x="565" y="265" width="70" height="70"></rect>
  <rect fill="maroon" stroke="maroon" x="565" y="165" width="70" height="70"></rect>
  <rect fill="darkorange" stroke="darkorange" x="565" y="65" width="70" height="70"></rect>
  <rect fill="darkorange" stroke="darkorange" x="665" y="865" width="70" height="70"></rect>
  <rect fill="orange" stroke="orange" x="665" y="765" width="70" height="70"></rect>
  <rect fill="orange" stroke="orange" x="665" y="665" width="70" height="70"></rect>
  <rect fill="orange" stroke="orange" x="665" y="565" width="70" height="70"></rect>
  <rect fill="maroon" stroke="maroon" x="665" y="465" width="70" height="70"></rect>
  <rect fill="firebrick" stroke="firebrick" x="665" y="365" width="70" height="70"></rect>
  <rect fill="darkorange" stroke="darkorange" x="665" y="265" width="70" height="70"></rect>
  <rect fill="gold" stroke="gold" x="665" y="165" width="70" height="70"></rect>
  <rect fill="orange" stroke="orange" x="665" y="65" width="70" height="70"></rect>
  <rect fill="maroon" stroke="maroon" x="765" y="865" width="70" height="70"></rect>
  <rect
    fill="mediumvioletred"
    stroke="mediumvioletred"
    x="765"
    y="765"
    width="70"
    height="70"
  ></rect>
  <rect fill="firebrick" stroke="firebrick" x="765" y="665" width="70" height="70"></rect>
  <rect
    fill="mediumvioletred"
    stroke="mediumvioletred"
    x="765"
    y="565"
    width="70"
    height="70"
  ></rect>
  <rect fill="orange" stroke="orange" x="765" y="465" width="70" height="70"></rect>
  <rect fill="orange" stroke="orange" x="765" y="365" width="70" height="70"></rect>
  <rect fill="firebrick" stroke="firebrick" x="765" y="265" width="70" height="70"></rect>
  <rect fill="purple" stroke="purple" x="765" y="165" width="70" height="70"></rect>
  <rect fill="purple" stroke="purple" x="765" y="65" width="70" height="70"></rect>
  <rect fill="maroon" stroke="maroon" x="865" y="865" width="70" height="70"></rect>
  <rect fill="maroon" stroke="maroon" x="865" y="765" width="70" height="70"></rect>
  <rect fill="gold" stroke="gold" x="865" y="665" width="70" height="70"></rect>
  <rect fill="orange" stroke="orange" x="865" y="565" width="70" height="70"></rect>
  <rect fill="maroon" stroke="maroon" x="865" y="465" width="70" height="70"></rect>
  <rect fill="orange" stroke="orange" x="865" y="365" width="70" height="70"></rect>
  <rect fill="maroon" stroke="maroon" x="865" y="265" width="70" height="70"></rect>
  <rect fill="darkorange" stroke="darkorange" x="865" y="165" width="70" height="70"></rect>
  <rect fill="darkorange" stroke="darkorange" x="865" y="65" width="70" height="70"></rect>
</svg>
